<?xml version="1.0" encoding="utf-8"?>
<!-- Generator: Adobe Illustrator 24.2.3, SVG Export Plug-In . SVG Version: 6.00 Build 0)  -->
<svg version="1.1" id="Camada_1" xmlns="http://www.w3.org/2000/svg" xmlns:xlink="http://www.w3.org/1999/xlink" x="0px" y="0px"
	 viewBox="0 0 1366 645.7" style="enable-background:new 0 0 1366 645.7;" xml:space="preserve">
<style type="text/css">
	.st0{fill:#0099FF;}
	.st1{fill:#1B365F;}
</style>
<g>
	<path class="st0" d="M395,32c59.5-7,80.9,45.3,70.4,87.9c-2.3,9-1.3,17.9-1.3,27c-0.3,107-0.3,214,0,321.3
		c0,12.3,0.7,24.8-2.7,36.9c-7,24.8-28.1,42.2-53.9,42.6c-27,0.7-53.6,0.4-80.6,0.4c-4.6,0-8.2,0.9-11.5,3.9
		c-22.8,19.1-45.8,37.6-68.7,56.4c-14.1,11.5-29,6.2-33-11.5c-3-13.5-6.6-27-9-40.2c-1.3-6.6-4-8.6-10.6-8.6
		c-32,0.4-63.8,0.7-95.7-0.3c-37.1-0.9-61.8-27-61.8-64.1c-0.3-104.7,0-209.4,0-314.2c0-15.5-0.7-31.1,0.3-46.5
		c1.3-19.8,13.2-31.1,30-38.2c18.8-7.9,38.6-12.3,58.1-16.9c67.1-15.5,133.7-10.5,200.4,4c19.1,4,37.9,9.3,57.4,9.8
		c2.3,0,4.4,0.3,6.7,0c10.2,0,19.5-1.9,24-12.3c3.9-9-0.9-21.8-10.2-29.4C400.1,37.1,396.8,35.7,395,32z M45.9,394.1
		C45.6,394.1,45.6,394.1,45.9,394.1c-0.3,25.1-0.3,50.2-0.3,75.4c0,8.6-0.7,16.9,1.1,25.4c5.2,27,26.2,43,54.9,43
		c33.4,0.3,66.7,0,99.8-0.3c6,0,9,1.4,10.6,7.9c3.7,16.2,7.9,32.3,11.5,48.5c2.7,11.5,7.9,13.5,16.9,5.7
		c22.9-18.8,46-37.4,68.7-56.4c4.6-3.9,9-5.7,15.3-5.7c25.4,0.4,50.6,0.4,76.2,0c32.3-0.4,53.2-21.8,53.2-53.9
		c0-61.2,0-122.6,0-183.7c0-8.6-3.3-10.2-10.9-6.6c-3.9,1.7-4.9,5.2-6,8.7c-2.2,8.6-4.2,16.8-6.7,25.1c-9.6,32-37.9,57.1-68.6,60.2
		c-38.2,4-70.1-12.3-87.9-44.3c-7.5-13.5-10.9-28.3-15.5-42.7c-2.7-9-10.9-12.5-18.5-8.2c-4.4,2.6-5.3,7-6.6,11.3
		c-4.6,17.2-9.3,34.6-20.2,49.1c-20.9,28.5-49.6,40.6-84.3,34.6c-34.6-6-56.2-27.8-66-61.2c-2.7-9-4.4-17.9-7-27
		c-1.1-3.9-4-6.6-8.2-6c-4.6,0.7-2.6,4.9-2.6,7.5C45.6,331.6,45.9,362.6,45.9,394.1z M419.2,42.9c1.1,2.7,1.7,4,2.2,5.3
		c8.2,23.2-4,41.3-28.8,42.7c-14.5,0.7-28.8-1.3-42.7-4.2c-34.9-7.5-70.1-13.6-105.6-18.1C184.2,61.1,127,72.3,71.3,93
		c-14.6,5.6-25.1,15.3-25.4,32.3c-0.3,34.6,0,68.7-0.3,103.3c0,4.9,1.7,5.7,6,4.9c15.5-2.6,23.4-14.9,17.9-30.4
		C58.2,172,81.9,150.3,105.3,145c29-6.5,58.8-7,88.4-5.7c32.7,1.7,64.5,9,96.7,14.9c35.1,6.6,70.1,14.2,106.3,12.8
		c14.1-0.7,26.7-4.6,37.4-13.6c24-19.8,31.3-59.4,16.5-86.6C444,54.9,434.7,46,419.2,42.9z M454.1,147.9c-6,6-10.2,11.2-15.5,15.1
		c-19.4,14.9-42.2,15.5-64.5,14.1c-30.4-2.2-60.2-7.5-90.1-13.9c-57.1-12.3-114.5-19.5-173-9.3c-24.4,4.2-37.6,23.2-31.6,46.5
		s-4.9,40-28.8,43.5c-1.7,0.3-3.9-0.7-4.9,2.2c-0.9,2.6,0,22.9,1.3,22.9c7.2,0,13.6-3,19.2-7.6c1.4-1.3,2.7-2.7,4-4.2
		c6.6-6.2,13.1-12.5,19.8-18.4c31.6-26.2,77.3-25.8,109,0.7c8.2,6.7,15.3,14.5,21.8,22.5c6.5,7.9,13.5,12.8,24.1,9.3
		c2.2-0.7,4.9,0,7.5,0.7c6.2,1.4,11.3-0.3,15.3-4.9c4.9-5.3,10-10.9,14.9-16.2c25.5-27.8,56.7-37.9,93.4-27.3
		c19.8,5.7,34.3,20.2,48.8,34.1c6.6,6.5,14.1,10,22.8,11.9c5.2,1.1,6.6-0.4,6.6-5.3C454.1,225.9,454.1,187.7,454.1,147.9z
		 M144,377.3c40.9,0,74-33.4,74-74.3c0-39-34.6-73-73.1-72.9c-40.6,0.3-73.4,33.3-73.6,73.9C71,344.1,104,377.3,144,377.3z
		 M422.5,304.1c-0.3-43-34.3-73-72.7-73.9c-40.2-0.7-73,32.1-74,71.3c-1.3,39.7,30.8,75,71.7,75.4
		C389,377.8,422.2,345.2,422.5,304.1z"/>
	<path class="st0" d="M87.3,97.5c53.2-22.8,108.4-23.4,164.2-13.9C195.9,80.5,140.5,78.4,87.3,97.5z"/>
	<path class="st0" d="M335.6,152.7c41.2,6.5,79,4.6,100.5-40.4c1.4,13.5-8.2,28.8-21.8,36c-16.9,9-35.6,12.3-54.8,9.8
		C351.7,156.9,343.2,156.9,335.6,152.7z"/>
	<path class="st0" d="M120.2,300.2c0.4-10.5,1.9-21.4,7.9-30.8c8.6-13.9,21.8-13.9,29.7,0.4c10.9,19.8,11.2,40.6,0.4,60.7
		c-8.2,15.5-22.4,15.3-31.1-0.3C122,321.3,120.3,311.4,120.2,300.2z"/>
	<path class="st0" d="M374.3,300.6c-0.9,10.9-2.3,21.8-8.3,31.6c-8.6,13.5-21.8,13.5-29.4-0.4c-11.3-20.9-11.5-42.2,0.4-62.8
		c7.9-13.5,20.2-13.1,28.8,0.3C372.3,278.5,373.2,289.6,374.3,300.6z"/>
</g>
<g>
	<path class="st1" d="M574.3,188.9c0,1.1-0.4,2-1.2,2.8c-0.8,0.8-1.7,1.2-2.8,1.2h-0.1c-1.1,0-2-0.4-2.8-1.2
		c-0.8-0.8-1.2-1.7-1.2-2.8v-20.8h-26.4v20.8c0,1.1-0.4,2-1.2,2.8c-0.8,0.8-1.7,1.2-2.8,1.2h-0.1c-1.1,0-2-0.4-2.8-1.2
		c-0.8-0.8-1.2-1.7-1.2-2.8v-40.4c0-5.9,2.1-10.9,6.2-15.1c4.2-4.1,9.2-6.2,15-6.2c5.9,0,10.9,2.1,15.1,6.2
		c4.2,4.2,6.2,9.2,6.2,15.1V188.9z M566.3,160v-11.5c0-3.6-1.3-6.8-3.8-9.3c-2.6-2.6-5.7-3.9-9.4-3.9c-3.6,0-6.8,1.3-9.3,3.9
		c-2.6,2.6-3.8,5.7-3.8,9.3V160H566.3z"/>
	<path class="st1" d="M606,202.7c4,0,7.6-1.5,10.8-4.6c3.3-3.2,5-6.9,5-11.1v-0.1c-4.5,4-9.8,6-15.8,6c-6.6,0-12.2-2.3-16.9-7
		c-4.7-4.7-7-10.3-7-16.9c0-6.6,2.3-12.2,7-16.9c4.7-4.7,10.3-7,16.9-7c6.6,0,12.2,2.3,16.8,6.9c4.7,4.6,7,10.2,7,16.8v18
		c0,6.4-2.5,12.1-7.5,16.9c-4.8,4.7-10.3,7-16.3,7c-9.3,0-16.3-3.6-21-10.8c-0.7-1.1-0.8-2.2-0.4-3.5c0.4-1.2,1.2-2.1,2.4-2.5l0.1,0
		c2-0.7,3.5-0.1,4.7,1.6C595,200.3,599.8,202.7,606,202.7z M621.8,168.7c-0.1-4.3-1.6-8-4.7-11c-3.1-3-6.7-4.5-11-4.5
		c-4.4,0-8.1,1.5-11.2,4.6c-3.1,3.1-4.6,6.8-4.6,11.1c0,4.4,1.5,8.1,4.6,11.2c3.1,3.1,6.8,4.6,11.2,4.6s8.1-1.5,11.1-4.6
		c3.1-3.1,4.6-6.8,4.6-11.2V168.7z"/>
	<path class="st1" d="M661.2,145.2c6.6,0,12.2,2.3,16.9,7c4.7,4.7,7,10.3,7,16.9c0,6.6-2.3,12.2-7,16.9c-4.7,4.7-10.3,7-16.9,7
		c-6.6,0-12.2-2.3-16.9-7c-4.7-4.7-7-10.3-7-16.9c0-6.6,2.3-12.2,7-16.9C649,147.5,654.6,145.2,661.2,145.2z M661.2,153.3
		c-4.4,0-8.1,1.5-11.2,4.6c-3.1,3.1-4.6,6.8-4.6,11.2c0,4.3,1.5,8.1,4.6,11.1c3.1,3.1,6.8,4.6,11.2,4.6s8.1-1.5,11.1-4.6
		c3.1-3.1,4.6-6.8,4.6-11.1c0-4.4-1.5-8.1-4.6-11.2C669.2,154.9,665.5,153.3,661.2,153.3z"/>
	<path class="st1" d="M712.9,145.2c1.1,0,2.1,0.4,2.8,1.2c0.8,0.8,1.1,1.7,1.1,2.8v0.1c0,1.1-0.4,2-1.1,2.8
		c-0.8,0.8-1.7,1.2-2.8,1.2h-2.5c-2.7,0-5.1,1-7,2.9c-1.9,1.9-2.9,4.3-2.9,7v25.8c0,1.1-0.4,2-1.2,2.8c-0.8,0.8-1.7,1.2-2.8,1.2
		h-0.1c-1.1,0-2-0.4-2.8-1.2c-0.8-0.8-1.2-1.7-1.2-2.8v-25.8c0.1-5,1.8-9.2,5.2-12.7c3.5-3.5,7.7-5.2,12.7-5.2H712.9z"/>
	<path class="st1" d="M762.3,152.1c4.7,4.7,7,10.3,7,16.9v19.9c0,1.1-0.4,2-1.2,2.8c-0.8,0.8-1.7,1.2-2.8,1.2h-0.1
		c-1.1,0-2-0.4-2.8-1.2c-0.8-0.8-1.2-1.7-1.2-2.8v-2c-4.5,4-9.8,6-15.8,6c-6.6,0-12.2-2.3-16.9-7c-4.7-4.7-7-10.3-7-16.9
		c0-6.6,2.3-12.2,7-16.9c4.7-4.7,10.3-7,16.9-7C752.1,145.2,757.7,147.5,762.3,152.1z M734.3,157.9c-3.1,3.1-4.6,6.8-4.6,11.1
		c0,4.4,1.5,8.1,4.6,11.2c3.1,3.1,6.8,4.6,11.2,4.6s8.1-1.5,11.1-4.6c3.1-3.1,4.6-6.8,4.6-11.2c0-4.3-1.5-8-4.6-11.1
		c-3.1-3.1-6.8-4.6-11.1-4.6S737.4,154.8,734.3,157.9z"/>
	<path class="st1" d="M785,184.9c0.6,0,1,0.3,1.4,0.8c0.3,0.5,0.3,1,0.1,1.6l-5.6,12.6c-0.3,0.7-0.8,1-1.5,1h-2.9
		c-0.6,0-1-0.2-1.4-0.7c-0.3-0.4-0.4-0.9-0.3-1.4l3.4-12.6c0.2-0.8,0.7-1.3,1.6-1.3H785z"/>
	<path class="st0" d="M822.7,210.8c-1.1,0-2-0.4-2.8-1.2c-0.8-0.8-1.2-1.7-1.2-2.8v-37.9c0-6.6,2.4-12.2,7-16.8
		c4.6-4.6,10.2-6.9,16.8-6.9s12.2,2.3,16.9,7c4.7,4.7,7,10.3,7,16.9c0,6.6-2.3,12.2-7,16.9c-4.7,4.7-10.3,7-16.9,7
		c-6,0-11.3-2-15.8-6v20c0,1.1-0.4,2-1.2,2.8s-1.7,1.2-2.8,1.2H822.7z M853.8,180c3.1-3.1,4.6-6.8,4.6-11.1c0-4.4-1.5-8.1-4.6-11.2
		c-3.1-3.1-6.8-4.6-11.1-4.6c-4.4,0-8.1,1.5-11.2,4.6c-3.1,3.1-4.6,6.8-4.6,11.2c0,4.3,1.5,8.1,4.6,11.1c3.1,3.1,6.8,4.6,11.2,4.6
		C847,184.7,850.7,183.1,853.8,180z"/>
	<path class="st0" d="M918.1,159.1c0.5,1,0.5,2,0.1,3.1c-0.4,1-1.1,1.8-2.1,2.2c-4.1,1.8-9.4,4.3-16.1,7.3c-8.2,3.7-13.6,6.1-16,7.2
		c3.1,4,7.3,6,12.4,6c3.4,0,6.5-1,9.3-3c2.7-2,4.6-4.5,5.6-7.6c0.6-1.8,1.9-2.7,3.8-2.7c1.4,0,2.5,0.6,3.3,1.7
		c0.8,1.1,0.9,2.3,0.5,3.6c-1.6,4.7-4.5,8.5-8.6,11.4c-4.2,3-8.8,4.5-13.9,4.5c-6.6,0-12.2-2.3-16.9-7c-4.7-4.7-7-10.3-7-16.9
		c0-6.6,2.3-12.2,7-16.9c4.7-4.7,10.3-7,16.9-7c4.7,0,9.1,1.3,13,3.9C913.3,151.6,916.2,154.9,918.1,159.1z M896.4,153.3
		c-4.4,0-8.1,1.5-11.2,4.6c-3.1,3.1-4.6,6.8-4.6,11.2c0,0.8,0.1,1.6,0.2,2.3l27.6-12.5C905.3,155.2,901.3,153.3,896.4,153.3z"/>
	<path class="st0" d="M971.2,159.1c0.5,1,0.5,2,0.1,3.1c-0.4,1-1.1,1.8-2.1,2.2c-4.1,1.8-9.4,4.3-16.1,7.3c-8.2,3.7-13.6,6.1-16,7.2
		c3.1,4,7.3,6,12.4,6c3.4,0,6.5-1,9.3-3c2.7-2,4.6-4.5,5.6-7.6c0.6-1.8,1.9-2.7,3.8-2.7c1.4,0,2.5,0.6,3.3,1.7
		c0.8,1.1,0.9,2.3,0.5,3.6c-1.6,4.7-4.5,8.5-8.6,11.4c-4.2,3-8.8,4.5-13.9,4.5c-6.6,0-12.2-2.3-16.9-7c-4.7-4.7-7-10.3-7-16.9
		c0-6.6,2.3-12.2,7-16.9c4.7-4.7,10.3-7,16.9-7c4.7,0,9.1,1.3,13,3.9C966.5,151.6,969.3,154.9,971.2,159.1z M949.6,153.3
		c-4.4,0-8.1,1.5-11.2,4.6c-3.1,3.1-4.6,6.8-4.6,11.2c0,0.8,0.1,1.6,0.2,2.3l27.6-12.5C958.5,155.2,954.5,153.3,949.6,153.3z"/>
	<path class="st0" d="M988.3,188.9c0,1.1-0.4,2-1.2,2.8c-0.8,0.8-1.7,1.2-2.8,1.2h-0.1c-1.1,0-2-0.4-2.8-1.2
		c-0.8-0.8-1.2-1.7-1.2-2.8V165c0-5.5,1.9-10.1,5.8-14c3.9-3.9,8.5-5.8,14-5.8c5.4,0,10.1,1.9,14,5.8c3.9,3.9,5.8,8.5,5.8,14v23.9
		c0,1.1-0.4,2-1.2,2.8c-0.8,0.8-1.7,1.2-2.8,1.2h-0.1c-1.1,0-2.1-0.4-2.8-1.2c-0.8-0.8-1.2-1.7-1.2-2.8V165c0-3.2-1.1-6-3.4-8.3
		c-2.3-2.3-5.1-3.5-8.3-3.5c-3.3,0-6,1.2-8.3,3.5c-2.3,2.3-3.4,5.1-3.4,8.3V188.9z"/>
	<path class="st0" d="M1058.3,146.3c1.9,0.6,2.8,1.8,2.8,3.8v0.2c0,1.3-0.5,2.4-1.6,3.2c-1.1,0.8-2.3,1-3.6,0.6
		c-1.5-0.5-3.1-0.8-4.8-0.8c-4.4,0-8.1,1.5-11.2,4.6c-3.1,3.1-4.6,6.8-4.6,11.2c0,4.3,1.5,8.1,4.6,11.1c3.1,3.1,6.8,4.6,11.2,4.6
		c1.7,0,3.3-0.2,4.8-0.7c1.3-0.4,2.5-0.2,3.6,0.6c1.1,0.8,1.6,1.9,1.6,3.2c0,1.9-0.9,3.2-2.8,3.8c-2.3,0.7-4.7,1.1-7.2,1.1
		c-6.6,0-12.2-2.3-16.9-7c-4.7-4.7-7-10.3-7-16.9c0-6.6,2.3-12.2,7-16.9c4.7-4.7,10.3-7,16.9-7
		C1053.5,145.2,1055.9,145.5,1058.3,146.3z"/>
	<path class="st0" d="M1072.6,127.2c1.1,0,2,0.4,2.8,1.1c0.8,0.8,1.2,1.7,1.2,2.8V149c3.5-2.6,7.4-3.9,11.7-3.9
		c5.4,0,10.1,1.9,14,5.8c3.9,3.9,5.8,8.5,5.8,14v23.9c0,1.1-0.4,2-1.2,2.8c-0.8,0.8-1.7,1.2-2.8,1.2h-0.1c-1.1,0-2.1-0.4-2.8-1.2
		c-0.8-0.8-1.2-1.7-1.2-2.8V165c0-3.2-1.1-6-3.4-8.3c-2.3-2.3-5.1-3.5-8.3-3.5c-3.3,0-6,1.2-8.3,3.5c-2.3,2.3-3.4,5.1-3.4,8.3v23.9
		c0,1.1-0.4,2-1.2,2.8c-0.8,0.8-1.7,1.2-2.8,1.2h-0.1c-1.1,0-2-0.4-2.8-1.2c-0.8-0.8-1.2-1.7-1.2-2.8v-57.6c0-1.1,0.4-2.1,1.2-2.8
		c0.8-0.8,1.7-1.1,2.8-1.1H1072.6z"/>
	<path class="st0" d="M1157.5,152.1c4.7,4.7,7,10.3,7,16.9v19.9c0,1.1-0.4,2-1.2,2.8c-0.8,0.8-1.7,1.2-2.8,1.2h-0.1
		c-1.1,0-2-0.4-2.8-1.2c-0.8-0.8-1.2-1.7-1.2-2.8v-2c-4.5,4-9.8,6-15.8,6c-6.6,0-12.2-2.3-16.9-7c-4.7-4.7-7-10.3-7-16.9
		c0-6.6,2.3-12.2,7-16.9c4.7-4.7,10.3-7,16.9-7S1152.9,147.5,1157.5,152.1z M1129.5,157.9c-3.1,3.1-4.6,6.8-4.6,11.1
		c0,4.4,1.5,8.1,4.6,11.2c3.1,3.1,6.8,4.6,11.2,4.6c4.4,0,8.1-1.5,11.1-4.6c3.1-3.1,4.6-6.8,4.6-11.2c0-4.3-1.5-8-4.6-11.1
		c-3.1-3.1-6.8-4.6-11.1-4.6C1136.3,153.2,1132.6,154.8,1129.5,157.9z"/>
	<path class="st1" d="M1205.4,173.1c0,3.2,1.1,6,3.4,8.3c2.3,2.3,5.1,3.4,8.3,3.4c3.2,0,6-1.1,8.3-3.4c2.3-2.3,3.4-5.1,3.4-8.3
		v-23.9c0-1.1,0.4-2.1,1.2-2.8s1.7-1.2,2.8-1.2h0.1c1.1,0,2,0.4,2.8,1.2c0.8,0.8,1.2,1.7,1.2,2.8v23.9c0,5.4-1.9,10.1-5.8,14
		c-3.9,3.9-8.5,5.8-14,5.8c-5.5,0-10.1-1.9-14-5.8c-3.9-3.9-5.8-8.5-5.8-14v-23.9c0-1.1,0.4-2.1,1.2-2.8c0.8-0.8,1.7-1.2,2.8-1.2
		h0.1c1.1,0,2,0.4,2.8,1.2s1.2,1.7,1.2,2.8V173.1z"/>
	<path class="st1" d="M1253.7,188.9c0,1.1-0.4,2-1.2,2.8c-0.8,0.8-1.7,1.2-2.8,1.2h-0.1c-1.1,0-2-0.4-2.8-1.2
		c-0.8-0.8-1.2-1.7-1.2-2.8v-24c0-5.4,1.9-10.1,5.8-13.9c3.8-3.8,8.5-5.8,13.9-5.8c6.5,0,11.7,2.6,15.7,7.8
		c3.9-5.2,9.1-7.8,15.6-7.8c5.4,0,10.1,1.9,13.9,5.8c3.8,3.9,5.8,8.5,5.8,13.9v24c0,1.1-0.4,2-1.1,2.8c-0.8,0.8-1.7,1.2-2.8,1.2
		h-0.1c-1.1,0-2-0.4-2.8-1.2c-0.8-0.8-1.2-1.7-1.2-2.8v-24c0-3.2-1.1-5.9-3.4-8.2c-2.3-2.3-5-3.4-8.3-3.4c-3.2,0-5.9,1.1-8.2,3.4
		c-2.3,2.3-3.4,5-3.4,8.2v24c0,1.1-0.4,2-1.2,2.8c-0.8,0.8-1.7,1.2-2.8,1.2h-0.1c-1.1,0-2.1-0.4-2.8-1.2c-0.8-0.8-1.2-1.7-1.2-2.8
		v-24c0-3.2-1.1-5.9-3.4-8.2c-2.3-2.3-5-3.4-8.2-3.4c-3.2,0-5.9,1.1-8.2,3.4c-2.3,2.3-3.4,5-3.4,8.2V188.9z"/>
	<path class="st0" d="M535.3,318.1c-1.1,0-2-0.4-2.8-1.2s-1.2-1.7-1.2-2.8v-37.9c0-6.6,2.4-12.2,7-16.8c4.6-4.6,10.2-6.9,16.8-6.9
		c6.6,0,12.2,2.3,16.9,7c4.7,4.7,7,10.3,7,16.9c0,6.6-2.3,12.2-7,16.9c-4.7,4.7-10.3,7-16.9,7c-6,0-11.3-2-15.8-6v20
		c0,1.1-0.4,2-1.2,2.8s-1.7,1.2-2.8,1.2H535.3z M566.3,287.4c3.1-3.1,4.6-6.8,4.6-11.1c0-4.4-1.5-8.1-4.6-11.2
		c-3.1-3.1-6.8-4.6-11.1-4.6s-8.1,1.5-11.2,4.6c-3.1,3.1-4.6,6.8-4.6,11.2c0,4.3,1.5,8.1,4.6,11.1c3.1,3.1,6.8,4.6,11.2,4.6
		S563.2,290.5,566.3,287.4z"/>
	<path class="st0" d="M630.6,266.4c0.5,1,0.5,2,0.1,3.1c-0.4,1-1.1,1.8-2.1,2.2c-4.1,1.8-9.4,4.3-16.1,7.3c-8.2,3.7-13.6,6.1-16,7.2
		c3.1,4,7.3,6,12.4,6c3.4,0,6.5-1,9.3-3c2.7-2,4.6-4.5,5.6-7.6c0.6-1.8,1.9-2.7,3.8-2.7c1.4,0,2.5,0.6,3.3,1.7
		c0.8,1.1,0.9,2.3,0.5,3.6c-1.6,4.7-4.5,8.5-8.6,11.4c-4.2,3-8.8,4.5-13.9,4.5c-6.6,0-12.2-2.3-16.9-7c-4.7-4.7-7-10.3-7-16.9
		c0-6.6,2.3-12.2,7-16.9c4.7-4.7,10.3-7,16.9-7c4.7,0,9.1,1.3,13,3.9C625.9,258.9,628.7,262.3,630.6,266.4z M609,260.6
		c-4.4,0-8.1,1.5-11.2,4.6c-3.1,3.1-4.6,6.8-4.6,11.2c0,0.8,0.1,1.6,0.2,2.3l27.6-12.5C617.9,262.5,613.9,260.6,609,260.6z"/>
	<path class="st0" d="M681.9,318.1c-1.1,0-2-0.4-2.8-1.2s-1.2-1.7-1.2-2.8v-20c-4.5,4-9.8,6-15.8,6c-6.6,0-12.2-2.3-16.9-7
		c-4.7-4.7-7-10.3-7-16.9c0-6.6,2.3-12.2,7-16.9c4.7-4.7,10.3-7,16.9-7c6.6,0,12.2,2.3,16.8,6.9c4.7,4.7,7,10.3,7,16.8v37.9
		c0,1.1-0.4,2-1.2,2.8s-1.7,1.2-2.8,1.2H681.9z M662.1,292c4.4,0,8.1-1.5,11.1-4.6c3.1-3.1,4.6-6.8,4.6-11.1c0-4.4-1.5-8.1-4.6-11.2
		c-3.1-3.1-6.8-4.6-11.1-4.6s-8.1,1.5-11.2,4.6c-3.1,3.1-4.6,6.8-4.6,11.2c0,4.3,1.5,8.1,4.6,11.1C654,290.5,657.8,292,662.1,292z"
		/>
	<path class="st0" d="M702.8,280.4c0,3.2,1.1,6,3.4,8.3c2.3,2.3,5.1,3.4,8.3,3.4c3.2,0,6-1.1,8.3-3.4c2.3-2.3,3.4-5.1,3.4-8.3v-23.9
		c0-1.1,0.4-2.1,1.2-2.8c0.8-0.8,1.7-1.2,2.8-1.2h0.1c1.1,0,2,0.4,2.8,1.2c0.8,0.8,1.2,1.7,1.2,2.8v23.9c0,5.4-1.9,10.1-5.8,14
		c-3.9,3.9-8.5,5.8-14,5.8c-5.5,0-10.1-1.9-14-5.8c-3.9-3.9-5.8-8.5-5.8-14v-23.9c0-1.1,0.4-2.1,1.2-2.8s1.7-1.2,2.8-1.2h0.1
		c1.1,0,2,0.4,2.8,1.2s1.2,1.7,1.2,2.8V280.4z"/>
	<path class="st0" d="M787.2,266.4c0.5,1,0.5,2,0.1,3.1c-0.4,1-1.1,1.8-2.1,2.2c-4.1,1.8-9.4,4.3-16.1,7.3c-8.2,3.7-13.6,6.1-16,7.2
		c3.1,4,7.3,6,12.4,6c3.4,0,6.5-1,9.3-3c2.7-2,4.6-4.5,5.6-7.6c0.6-1.8,1.9-2.7,3.8-2.7c1.4,0,2.5,0.6,3.3,1.7
		c0.8,1.1,0.9,2.3,0.5,3.6c-1.6,4.7-4.5,8.5-8.6,11.4c-4.2,3-8.8,4.5-13.9,4.5c-6.6,0-12.2-2.3-16.9-7c-4.7-4.7-7-10.3-7-16.9
		c0-6.6,2.3-12.2,7-16.9c4.7-4.7,10.3-7,16.9-7c4.7,0,9.1,1.3,13,3.9C782.5,258.9,785.3,262.3,787.2,266.4z M765.6,260.6
		c-4.4,0-8.1,1.5-11.2,4.6c-3.1,3.1-4.6,6.8-4.6,11.2c0,0.8,0.1,1.6,0.2,2.3l27.6-12.5C774.5,262.5,770.5,260.6,765.6,260.6z"/>
	<path class="st0" d="M804.3,296.2c0,1.1-0.4,2-1.2,2.8c-0.8,0.8-1.7,1.2-2.8,1.2h-0.1c-1.1,0-2-0.4-2.8-1.2
		c-0.8-0.8-1.2-1.7-1.2-2.8v-23.9c0-5.5,1.9-10.1,5.8-14c3.9-3.9,8.5-5.8,14-5.8c5.4,0,10.1,1.9,14,5.8c3.9,3.9,5.8,8.5,5.8,14v23.9
		c0,1.1-0.4,2-1.2,2.8c-0.8,0.8-1.7,1.2-2.8,1.2h-0.1c-1.1,0-2.1-0.4-2.8-1.2c-0.8-0.8-1.2-1.7-1.2-2.8v-23.9c0-3.2-1.1-6-3.4-8.3
		c-2.3-2.3-5.1-3.5-8.3-3.5c-3.3,0-6,1.2-8.3,3.5c-2.3,2.3-3.4,5.1-3.4,8.3V296.2z"/>
	<path class="st0" d="M867.1,252.5c6.6,0,12.2,2.3,16.9,7c4.7,4.7,7,10.3,7,16.9c0,6.6-2.3,12.2-7,16.9c-4.7,4.7-10.3,7-16.9,7
		c-6.6,0-12.2-2.3-16.9-7c-4.7-4.7-7-10.3-7-16.9c0-6.6,2.3-12.2,7-16.9C854.9,254.8,860.5,252.5,867.1,252.5z M867.1,260.6
		c-4.4,0-8.1,1.5-11.2,4.6c-3.1,3.1-4.6,6.8-4.6,11.2c0,4.3,1.5,8.1,4.6,11.1c3.1,3.1,6.8,4.6,11.2,4.6s8.1-1.5,11.1-4.6
		c3.1-3.1,4.6-6.8,4.6-11.1c0-4.4-1.5-8.1-4.6-11.2C875.2,262.2,871.4,260.6,867.1,260.6z"/>
	<path class="st0" d="M952.1,253.6c1.9,0.6,2.8,1.8,2.8,3.8v0.2c0,1.3-0.5,2.4-1.6,3.2c-1.1,0.8-2.3,1-3.6,0.6
		c-1.5-0.5-3.1-0.8-4.8-0.8c-4.4,0-8.1,1.5-11.2,4.6c-3.1,3.1-4.6,6.8-4.6,11.2c0,4.3,1.5,8.1,4.6,11.1c3.1,3.1,6.8,4.6,11.2,4.6
		c1.7,0,3.3-0.2,4.8-0.7c1.3-0.4,2.5-0.2,3.6,0.6c1.1,0.8,1.6,1.9,1.6,3.2c0,1.9-0.9,3.2-2.8,3.8c-2.3,0.7-4.7,1.1-7.2,1.1
		c-6.6,0-12.2-2.3-16.9-7c-4.7-4.7-7-10.3-7-16.9c0-6.6,2.3-12.2,7-16.9c4.7-4.7,10.3-7,16.9-7C947.4,252.5,949.8,252.9,952.1,253.6
		z"/>
	<path class="st0" d="M1003.1,259.5c4.7,4.7,7,10.3,7,16.9v19.9c0,1.1-0.4,2-1.2,2.8c-0.8,0.8-1.7,1.2-2.8,1.2h-0.1
		c-1.1,0-2-0.4-2.8-1.2c-0.8-0.8-1.2-1.7-1.2-2.8v-2c-4.5,4-9.8,6-15.8,6c-6.6,0-12.2-2.3-16.9-7c-4.7-4.7-7-10.3-7-16.9
		c0-6.6,2.3-12.2,7-16.9c4.7-4.7,10.3-7,16.9-7S998.4,254.8,1003.1,259.5z M975,265.2c-3.1,3.1-4.6,6.8-4.6,11.1
		c0,4.4,1.5,8.1,4.6,11.2c3.1,3.1,6.8,4.6,11.2,4.6c4.4,0,8.1-1.5,11.1-4.6c3.1-3.1,4.6-6.8,4.6-11.2c0-4.3-1.5-8-4.6-11.1
		c-3.1-3.1-6.8-4.6-11.1-4.6C981.8,260.6,978.1,262.1,975,265.2z"/>
	<path class="st0" d="M1061.2,234.6c1.1,0,2,0.4,2.8,1.1c0.8,0.8,1.2,1.7,1.2,2.8v37.9c0,6.6-2.4,12.1-7,16.8s-10.3,6.9-16.8,6.9
		c-6.6,0-12.2-2.3-16.9-7c-4.7-4.7-7-10.3-7-16.9c0-6.6,2.3-12.2,7-16.9c4.7-4.7,10.3-7,16.9-7c6,0,11.3,2,15.8,6v-19.9
		c0-1.1,0.4-2.1,1.2-2.8c0.8-0.8,1.7-1.1,2.8-1.1H1061.2z M1030.1,265.3c-3.1,3.1-4.6,6.8-4.6,11.2c0,4.3,1.5,8.1,4.6,11.1
		c3.1,3.1,6.8,4.6,11.2,4.6s8.1-1.5,11.1-4.6c3.1-3.1,4.6-6.8,4.6-11.1c0-4.4-1.5-8.1-4.6-11.2c-3.1-3.1-6.8-4.6-11.1-4.6
		S1033.2,262.2,1030.1,265.3z"/>
	<path class="st0" d="M1114.6,259.5c4.7,4.7,7,10.3,7,16.9v19.9c0,1.1-0.4,2-1.2,2.8c-0.8,0.8-1.7,1.2-2.8,1.2h-0.1
		c-1.1,0-2-0.4-2.8-1.2c-0.8-0.8-1.2-1.7-1.2-2.8v-2c-4.5,4-9.8,6-15.8,6c-6.6,0-12.2-2.3-16.9-7c-4.7-4.7-7-10.3-7-16.9
		c0-6.6,2.3-12.2,7-16.9c4.7-4.7,10.3-7,16.9-7S1109.9,254.8,1114.6,259.5z M1086.6,265.2c-3.1,3.1-4.6,6.8-4.6,11.1
		c0,4.4,1.5,8.1,4.6,11.2c3.1,3.1,6.8,4.6,11.2,4.6c4.4,0,8.1-1.5,11.1-4.6c3.1-3.1,4.6-6.8,4.6-11.2c0-4.3-1.5-8-4.6-11.1
		c-3.1-3.1-6.8-4.6-11.1-4.6C1093.4,260.6,1089.7,262.1,1086.6,265.2z"/>
	<path class="st0" d="M1142.6,260.6c-1.6,0-3,0.6-4.1,1.7c-1.1,1.2-1.7,2.5-1.7,4.1c0,2.3,1.1,4,3.2,5.1c0.7,0.3,3.2,1.1,7.6,2.3
		c3.3,0.9,5.6,2.1,7.2,3.6c2.2,2,3.2,5,3.2,8.9c0,3.8-1.4,7.1-4.1,9.9c-2.7,2.7-6,4.1-9.9,4.1h-11.4c-1.1,0-2-0.4-2.8-1.2
		c-0.8-0.8-1.2-1.7-1.2-2.8v-0.1c0-1.1,0.4-2.1,1.2-2.8s1.7-1.2,2.8-1.2h11.8c1.6,0,3-0.6,4.1-1.7c1.1-1.1,1.7-2.5,1.7-4.1
		c0-2.2-1.1-3.8-3.2-4.8c-0.5-0.2-3-1-7.6-2.3c-3.2-1-5.6-2.2-7.2-3.7c-2.2-2.1-3.2-5.2-3.2-9.1c0-3.8,1.4-7.1,4.1-9.8
		c2.7-2.7,6-4.1,9.9-4.1h8c1.1,0,2.1,0.4,2.8,1.2s1.2,1.7,1.2,2.8v0.1c0,1.1-0.4,2-1.2,2.8c-0.8,0.8-1.7,1.2-2.8,1.2H1142.6z"/>
	<path class="st0" d="M1169,234.6c1.1,0,2,0.4,2.8,1.1c0.8,0.8,1.2,1.7,1.2,2.8v13.9h7.9c1.1,0,2,0.4,2.8,1.2s1.2,1.7,1.2,2.8v0.1
		c0,1.1-0.4,2-1.2,2.8c-0.8,0.8-1.7,1.2-2.8,1.2h-7.9v27.2c0,1.2,0.4,2.2,1.3,3.1c0.8,0.8,1.9,1.3,3.1,1.3h3.5c1.1,0,2,0.4,2.8,1.2
		s1.2,1.7,1.2,2.8v0.1c0,1.1-0.4,2-1.2,2.8c-0.8,0.8-1.7,1.2-2.8,1.2h-3.5c-3.4,0-6.4-1.2-8.8-3.6c-2.4-2.4-3.6-5.4-3.6-8.8v-49.2
		c0-1.1,0.4-2.1,1.2-2.8c0.8-0.8,1.7-1.1,2.8-1.1H1169z"/>
	<path class="st0" d="M1211.3,252.5c1.1,0,2.1,0.4,2.8,1.2c0.8,0.8,1.1,1.7,1.1,2.8v0.1c0,1.1-0.4,2-1.1,2.8
		c-0.8,0.8-1.7,1.2-2.8,1.2h-2.5c-2.7,0-5.1,1-7,2.9c-1.9,1.9-2.9,4.3-2.9,7v25.8c0,1.1-0.4,2-1.2,2.8c-0.8,0.8-1.7,1.2-2.8,1.2
		h-0.1c-1.1,0-2-0.4-2.8-1.2c-0.8-0.8-1.2-1.7-1.2-2.8v-25.8c0.1-5,1.8-9.2,5.2-12.7c3.5-3.5,7.7-5.2,12.7-5.2H1211.3z"/>
	<path class="st0" d="M1242.7,252.5c6.6,0,12.2,2.3,16.9,7c4.7,4.7,7,10.3,7,16.9c0,6.6-2.3,12.2-7,16.9c-4.7,4.7-10.3,7-16.9,7
		c-6.6,0-12.2-2.3-16.9-7c-4.7-4.7-7-10.3-7-16.9c0-6.6,2.3-12.2,7-16.9C1230.5,254.8,1236.1,252.5,1242.7,252.5z M1242.7,260.6
		c-4.4,0-8.1,1.5-11.2,4.6c-3.1,3.1-4.6,6.8-4.6,11.2c0,4.3,1.5,8.1,4.6,11.1c3.1,3.1,6.8,4.6,11.2,4.6s8.1-1.5,11.1-4.6
		c3.1-3.1,4.6-6.8,4.6-11.1c0-4.4-1.5-8.1-4.6-11.2C1250.7,262.2,1247,260.6,1242.7,260.6z"/>
	<path class="st1" d="M535.3,425.5c-1.1,0-2-0.4-2.8-1.2s-1.2-1.7-1.2-2.8v-37.9c0-6.6,2.4-12.2,7-16.8c4.6-4.6,10.2-6.9,16.8-6.9
		c6.6,0,12.2,2.3,16.9,7c4.7,4.7,7,10.3,7,16.9s-2.3,12.2-7,16.9c-4.7,4.7-10.3,7-16.9,7c-6,0-11.3-2-15.8-6v20c0,1.1-0.4,2-1.2,2.8
		s-1.7,1.2-2.8,1.2H535.3z M566.3,394.7c3.1-3.1,4.6-6.8,4.6-11.1c0-4.4-1.5-8.1-4.6-11.2c-3.1-3.1-6.8-4.6-11.1-4.6
		s-8.1,1.5-11.2,4.6c-3.1,3.1-4.6,6.8-4.6,11.2c0,4.3,1.5,8.1,4.6,11.1c3.1,3.1,6.8,4.6,11.2,4.6S563.2,397.8,566.3,394.7z"/>
	<path class="st1" d="M627.1,366.8c4.7,4.7,7,10.3,7,16.9v19.9c0,1.1-0.4,2-1.2,2.8c-0.8,0.8-1.7,1.2-2.8,1.2H630
		c-1.1,0-2-0.4-2.8-1.2c-0.8-0.8-1.2-1.7-1.2-2.8v-2c-4.5,4-9.8,6-15.8,6c-6.6,0-12.2-2.3-16.9-7c-4.7-4.7-7-10.3-7-16.9
		s2.3-12.2,7-16.9c4.7-4.7,10.3-7,16.9-7C616.9,359.8,622.5,362.1,627.1,366.8z M599.1,372.5c-3.1,3.1-4.6,6.8-4.6,11.1
		c0,4.4,1.5,8.1,4.6,11.2c3.1,3.1,6.8,4.6,11.2,4.6s8.1-1.5,11.1-4.6c3.1-3.1,4.6-6.8,4.6-11.2c0-4.3-1.5-8.1-4.6-11.1
		c-3.1-3.1-6.8-4.6-11.1-4.6S602.2,369.4,599.1,372.5z"/>
	<path class="st1" d="M663.3,359.8c1.1,0,2.1,0.4,2.8,1.2c0.8,0.8,1.1,1.7,1.1,2.8v0.1c0,1.1-0.4,2-1.1,2.8
		c-0.8,0.8-1.7,1.2-2.8,1.2h-2.5c-2.7,0-5.1,1-7,2.9c-1.9,1.9-2.9,4.3-2.9,7v25.8c0,1.1-0.4,2-1.2,2.8c-0.8,0.8-1.7,1.2-2.8,1.2
		h-0.1c-1.1,0-2-0.4-2.8-1.2c-0.8-0.8-1.2-1.7-1.2-2.8v-25.8c0.1-5,1.8-9.2,5.2-12.7c3.5-3.5,7.7-5.2,12.7-5.2H663.3z"/>
	<path class="st1" d="M712.8,366.8c4.7,4.7,7,10.3,7,16.9v19.9c0,1.1-0.4,2-1.2,2.8c-0.8,0.8-1.7,1.2-2.8,1.2h-0.1
		c-1.1,0-2-0.4-2.8-1.2c-0.8-0.8-1.2-1.7-1.2-2.8v-2c-4.5,4-9.8,6-15.8,6c-6.6,0-12.2-2.3-16.9-7c-4.7-4.7-7-10.3-7-16.9
		s2.3-12.2,7-16.9c4.7-4.7,10.3-7,16.9-7S708.1,362.1,712.8,366.8z M684.7,372.5c-3.1,3.1-4.6,6.8-4.6,11.1c0,4.4,1.5,8.1,4.6,11.2
		c3.1,3.1,6.8,4.6,11.2,4.6s8.1-1.5,11.1-4.6c3.1-3.1,4.6-6.8,4.6-11.2c0-4.3-1.5-8.1-4.6-11.1c-3.1-3.1-6.8-4.6-11.1-4.6
		S687.8,369.4,684.7,372.5z"/>
	<path class="st1" d="M756.5,425.5c-1.1,0-2-0.4-2.8-1.2s-1.2-1.7-1.2-2.8v-37.9c0-6.6,2.4-12.2,7-16.8c4.6-4.6,10.2-6.9,16.8-6.9
		s12.2,2.3,16.9,7c4.7,4.7,7,10.3,7,16.9s-2.3,12.2-7,16.9c-4.7,4.7-10.3,7-16.9,7c-6,0-11.3-2-15.8-6v20c0,1.1-0.4,2-1.2,2.8
		s-1.7,1.2-2.8,1.2H756.5z M787.5,394.7c3.1-3.1,4.6-6.8,4.6-11.1c0-4.4-1.5-8.1-4.6-11.2c-3.1-3.1-6.8-4.6-11.1-4.6
		s-8.1,1.5-11.2,4.6c-3.1,3.1-4.6,6.8-4.6,11.2c0,4.3,1.5,8.1,4.6,11.1c3.1,3.1,6.8,4.6,11.2,4.6S784.5,397.8,787.5,394.7z"/>
	<path class="st1" d="M828.1,359.8c1.1,0,2.1,0.4,2.8,1.2c0.8,0.8,1.1,1.7,1.1,2.8v0.1c0,1.1-0.4,2-1.1,2.8
		c-0.8,0.8-1.7,1.2-2.8,1.2h-2.5c-2.7,0-5.1,1-7,2.9c-1.9,1.9-2.9,4.3-2.9,7v25.8c0,1.1-0.4,2-1.2,2.8c-0.8,0.8-1.7,1.2-2.8,1.2
		h-0.1c-1.1,0-2-0.4-2.8-1.2c-0.8-0.8-1.2-1.7-1.2-2.8v-25.8c0.1-5,1.8-9.2,5.2-12.7c3.5-3.5,7.7-5.2,12.7-5.2H828.1z"/>
	<path class="st1" d="M859.4,359.8c6.6,0,12.2,2.3,16.9,7c4.7,4.7,7,10.3,7,16.9s-2.3,12.2-7,16.9s-10.3,7-16.9,7
		c-6.6,0-12.2-2.3-16.9-7c-4.7-4.7-7-10.3-7-16.9s2.3-12.2,7-16.9C847.2,362.1,852.9,359.8,859.4,359.8z M859.4,368
		c-4.4,0-8.1,1.5-11.2,4.6c-3.1,3.1-4.6,6.8-4.6,11.2c0,4.3,1.5,8.1,4.6,11.1c3.1,3.1,6.8,4.6,11.2,4.6s8.1-1.5,11.1-4.6
		c3.1-3.1,4.6-6.8,4.6-11.1c0-4.4-1.5-8.1-4.6-11.2C867.5,369.5,863.8,368,859.4,368z"/>
	<path class="st1" d="M902.9,367.9c-1.6,0-3,0.6-4.1,1.7c-1.1,1.2-1.7,2.5-1.7,4.1c0,2.3,1.1,4,3.2,5.1c0.7,0.3,3.2,1.1,7.6,2.3
		c3.3,0.9,5.6,2.1,7.2,3.6c2.2,2,3.2,5,3.2,8.9c0,3.8-1.4,7.1-4.1,9.9c-2.7,2.7-6,4.1-9.9,4.1h-11.4c-1.1,0-2-0.4-2.8-1.2
		c-0.8-0.8-1.2-1.7-1.2-2.8v-0.1c0-1.1,0.4-2.1,1.2-2.8s1.7-1.2,2.8-1.2h11.8c1.6,0,3-0.6,4.1-1.7c1.1-1.1,1.7-2.5,1.7-4.1
		c0-2.2-1.1-3.8-3.2-4.8c-0.5-0.2-3-1-7.6-2.3c-3.2-1-5.6-2.2-7.2-3.7c-2.2-2.1-3.2-5.2-3.2-9.1c0-3.8,1.4-7.1,4.1-9.8
		c2.7-2.7,6-4.1,9.9-4.1h8c1.1,0,2.1,0.4,2.8,1.2s1.2,1.7,1.2,2.8v0.1c0,1.1-0.4,2-1.2,2.8c-0.8,0.8-1.7,1.2-2.8,1.2H902.9z"/>
	<path class="st1" d="M937.5,367.9c-1.6,0-3,0.6-4.1,1.7c-1.1,1.2-1.7,2.5-1.7,4.1c0,2.3,1.1,4,3.2,5.1c0.7,0.3,3.2,1.1,7.6,2.3
		c3.3,0.9,5.6,2.1,7.2,3.6c2.2,2,3.2,5,3.2,8.9c0,3.8-1.4,7.1-4.1,9.9c-2.7,2.7-6,4.1-9.9,4.1h-11.4c-1.1,0-2-0.4-2.8-1.2
		c-0.8-0.8-1.2-1.7-1.2-2.8v-0.1c0-1.1,0.4-2.1,1.2-2.8s1.7-1.2,2.8-1.2h11.8c1.6,0,3-0.6,4.1-1.7c1.1-1.1,1.7-2.5,1.7-4.1
		c0-2.2-1.1-3.8-3.2-4.8c-0.5-0.2-3-1-7.6-2.3c-3.2-1-5.6-2.2-7.2-3.7c-2.2-2.1-3.2-5.2-3.2-9.1c0-3.8,1.4-7.1,4.1-9.8
		c2.7-2.7,6-4.1,9.9-4.1h8c1.1,0,2.1,0.4,2.8,1.2s1.2,1.7,1.2,2.8v0.1c0,1.1-0.4,2-1.2,2.8c-0.8,0.8-1.7,1.2-2.8,1.2H937.5z"/>
	<path class="st1" d="M1004,373.7c0.5,1,0.5,2,0.1,3.1c-0.4,1-1.1,1.8-2.1,2.2c-4.1,1.8-9.4,4.3-16.1,7.3c-8.2,3.7-13.6,6.1-16,7.2
		c3.1,4,7.3,6,12.4,6c3.4,0,6.5-1,9.3-3c2.7-2,4.6-4.5,5.6-7.6c0.6-1.8,1.9-2.7,3.8-2.7c1.4,0,2.5,0.6,3.3,1.7
		c0.8,1.1,0.9,2.3,0.5,3.6c-1.6,4.7-4.5,8.5-8.6,11.4c-4.2,3-8.8,4.5-13.9,4.5c-6.6,0-12.2-2.3-16.9-7c-4.7-4.7-7-10.3-7-16.9
		s2.3-12.2,7-16.9c4.7-4.7,10.3-7,16.9-7c4.7,0,9.1,1.3,13,3.9C999.2,366.2,1002.1,369.6,1004,373.7z M982.3,368
		c-4.4,0-8.1,1.5-11.2,4.6c-3.1,3.1-4.6,6.8-4.6,11.2c0,0.8,0.1,1.6,0.2,2.3l27.6-12.5C991.2,369.9,987.2,368,982.3,368z"/>
	<path class="st1" d="M1035.5,417.4c4,0,7.6-1.5,10.8-4.6c3.3-3.2,5-6.9,5-11.1v-0.1c-4.5,4-9.8,6-15.8,6c-6.6,0-12.2-2.3-16.9-7
		c-4.7-4.7-7-10.3-7-16.9s2.3-12.2,7-16.9c4.7-4.7,10.3-7,16.9-7c6.6,0,12.2,2.3,16.8,6.9c4.7,4.6,7,10.2,7,16.8v18
		c0,6.4-2.5,12.1-7.5,16.9c-4.8,4.7-10.3,7-16.3,7c-9.3,0-16.3-3.6-21-10.8c-0.7-1.1-0.8-2.2-0.4-3.4c0.4-1.2,1.2-2.1,2.4-2.5l0.1,0
		c2-0.7,3.5-0.1,4.7,1.6C1024.5,415,1029.2,417.4,1035.5,417.4z M1051.2,383.4c-0.1-4.3-1.6-8-4.7-11c-3.1-3-6.7-4.5-11-4.5
		c-4.4,0-8.1,1.5-11.2,4.6c-3.1,3.1-4.6,6.8-4.6,11.1c0,4.4,1.5,8.1,4.6,11.2c3.1,3.1,6.8,4.6,11.2,4.6s8.1-1.5,11.1-4.6
		c3.1-3.1,4.6-6.8,4.6-11.2V383.4z"/>
	<path class="st1" d="M1076.1,387.7c0,3.2,1.1,6,3.4,8.3c2.3,2.3,5.1,3.4,8.3,3.4c3.2,0,6-1.1,8.3-3.4c2.3-2.3,3.4-5.1,3.4-8.3
		v-23.9c0-1.1,0.4-2.1,1.2-2.8s1.7-1.2,2.8-1.2h0.1c1.1,0,2,0.4,2.8,1.2c0.8,0.8,1.2,1.7,1.2,2.8v23.9c0,5.4-1.9,10.1-5.8,14
		c-3.9,3.9-8.5,5.8-14,5.8c-5.5,0-10.1-1.9-14-5.8c-3.9-3.9-5.8-8.5-5.8-14v-23.9c0-1.1,0.4-2.1,1.2-2.8c0.8-0.8,1.7-1.2,2.8-1.2
		h0.1c1.1,0,2,0.4,2.8,1.2s1.2,1.7,1.2,2.8V387.7z"/>
	<path class="st1" d="M1122.1,351.5c-1.3,0-2.5-0.5-3.4-1.4c-0.9-0.9-1.4-2.1-1.4-3.4c0-1.3,0.5-2.4,1.4-3.4
		c0.9-0.9,2.1-1.4,3.4-1.4c1.3,0,2.4,0.5,3.4,1.4c1,0.9,1.4,2.1,1.4,3.4c0,1.3-0.5,2.5-1.4,3.4
		C1124.5,351,1123.4,351.5,1122.1,351.5z M1122.1,359.8c1.1,0,2,0.4,2.8,1.2c0.8,0.8,1.2,1.7,1.2,2.8v39.7c0,1.1-0.4,2-1.2,2.8
		c-0.8,0.8-1.7,1.2-2.8,1.2h-0.1c-1.1,0-2.1-0.4-2.8-1.2c-0.8-0.8-1.2-1.7-1.2-2.8v-39.7c0-1.1,0.4-2.1,1.2-2.8
		S1120.9,359.8,1122.1,359.8L1122.1,359.8z"/>
	<path class="st1" d="M1156.9,359.8c1.1,0,2.1,0.4,2.8,1.2c0.8,0.8,1.1,1.7,1.1,2.8v0.1c0,1.1-0.4,2-1.1,2.8
		c-0.8,0.8-1.7,1.2-2.8,1.2h-2.5c-2.7,0-5.1,1-7,2.9c-1.9,1.9-2.9,4.3-2.9,7v25.8c0,1.1-0.4,2-1.2,2.8c-0.8,0.8-1.7,1.2-2.8,1.2
		h-0.1c-1.1,0-2-0.4-2.8-1.2c-0.8-0.8-1.2-1.7-1.2-2.8v-25.8c0.1-5,1.8-9.2,5.2-12.7c3.5-3.5,7.7-5.2,12.7-5.2H1156.9z"/>
	<path class="st1" d="M1230.5,366.8c4.7,4.7,7,10.3,7,16.9v19.9c0,1.1-0.4,2-1.2,2.8c-0.8,0.8-1.7,1.2-2.8,1.2h-0.1
		c-1.1,0-2-0.4-2.8-1.2c-0.8-0.8-1.2-1.7-1.2-2.8v-2c-4.5,4-9.8,6-15.8,6c-6.6,0-12.2-2.3-16.9-7s-7-10.3-7-16.9s2.3-12.2,7-16.9
		c4.7-4.7,10.3-7,16.9-7S1225.8,362.1,1230.5,366.8z M1202.4,372.5c-3.1,3.1-4.6,6.8-4.6,11.1c0,4.4,1.5,8.1,4.6,11.2
		c3.1,3.1,6.8,4.6,11.2,4.6c4.4,0,8.1-1.5,11.1-4.6c3.1-3.1,4.6-6.8,4.6-11.2c0-4.3-1.5-8.1-4.6-11.1c-3.1-3.1-6.8-4.6-11.1-4.6
		C1209.2,367.9,1205.5,369.4,1202.4,372.5z"/>
	<path class="st1" d="M1268.7,359.8c6.6,0,12.2,2.3,16.9,7c4.7,4.7,7,10.3,7,16.9s-2.3,12.2-7,16.9s-10.3,7-16.9,7
		c-6.6,0-12.2-2.3-16.9-7c-4.7-4.7-7-10.3-7-16.9s2.3-12.2,7-16.9C1256.5,362.1,1262.1,359.8,1268.7,359.8z M1268.7,368
		c-4.4,0-8.1,1.5-11.2,4.6c-3.1,3.1-4.6,6.8-4.6,11.2c0,4.3,1.5,8.1,4.6,11.1c3.1,3.1,6.8,4.6,11.2,4.6s8.1-1.5,11.1-4.6
		c3.1-3.1,4.6-6.8,4.6-11.1c0-4.4-1.5-8.1-4.6-11.2C1276.8,369.5,1273.1,368,1268.7,368z"/>
	<path class="st0" d="M535.3,532.8c-1.1,0-2-0.4-2.8-1.2s-1.2-1.7-1.2-2.8v-37.9c0-6.6,2.4-12.2,7-16.8c4.6-4.6,10.2-6.9,16.8-6.9
		c6.6,0,12.2,2.3,16.9,7c4.7,4.7,7,10.3,7,16.9s-2.3,12.2-7,16.9c-4.7,4.7-10.3,7-16.9,7c-6,0-11.3-2-15.8-6v20c0,1.1-0.4,2-1.2,2.8
		s-1.7,1.2-2.8,1.2H535.3z M566.3,502c3.1-3.1,4.6-6.8,4.6-11.1c0-4.4-1.5-8.1-4.6-11.2c-3.1-3.1-6.8-4.6-11.1-4.6
		s-8.1,1.5-11.2,4.6c-3.1,3.1-4.6,6.8-4.6,11.2c0,4.3,1.5,8.1,4.6,11.1c3.1,3.1,6.8,4.6,11.2,4.6S563.2,505.1,566.3,502z"/>
	<path class="st0" d="M627.1,474.1c4.7,4.7,7,10.3,7,16.9v19.9c0,1.1-0.4,2-1.2,2.8c-0.8,0.8-1.7,1.2-2.8,1.2H630
		c-1.1,0-2-0.4-2.8-1.2c-0.8-0.8-1.2-1.7-1.2-2.8v-2c-4.5,4-9.8,6-15.8,6c-6.6,0-12.2-2.3-16.9-7c-4.7-4.7-7-10.3-7-16.9
		s2.3-12.2,7-16.9c4.7-4.7,10.3-7,16.9-7C616.9,467.1,622.5,469.5,627.1,474.1z M599.1,479.8c-3.1,3.1-4.6,6.8-4.6,11.1
		c0,4.4,1.5,8.1,4.6,11.2c3.1,3.1,6.8,4.6,11.2,4.6s8.1-1.5,11.1-4.6c3.1-3.1,4.6-6.8,4.6-11.2c0-4.3-1.5-8.1-4.6-11.1
		c-3.1-3.1-6.8-4.6-11.1-4.6S602.2,476.8,599.1,479.8z"/>
	<path class="st0" d="M665.4,524.7c4,0,7.6-1.5,10.8-4.6c3.3-3.2,5-6.9,5-11.1v-0.1c-4.5,4-9.8,6-15.8,6c-6.6,0-12.2-2.3-16.9-7
		s-7-10.3-7-16.9s2.3-12.2,7-16.9c4.7-4.7,10.3-7,16.9-7c6.6,0,12.2,2.3,16.8,6.9c4.7,4.6,7,10.2,7,16.8v18c0,6.4-2.5,12.1-7.5,16.9
		c-4.8,4.7-10.3,7-16.3,7c-9.3,0-16.3-3.6-21-10.8c-0.7-1.1-0.8-2.2-0.4-3.4c0.4-1.2,1.2-2.1,2.4-2.5l0.1,0c2-0.7,3.5-0.1,4.7,1.6
		C654.4,522.3,659.1,524.7,665.4,524.7z M681.2,490.7c-0.1-4.3-1.6-8-4.7-11c-3.1-3-6.7-4.5-11-4.5c-4.4,0-8.1,1.5-11.2,4.6
		c-3.1,3.1-4.6,6.8-4.6,11.1c0,4.4,1.5,8.1,4.6,11.2c3.1,3.1,6.8,4.6,11.2,4.6s8.1-1.5,11.1-4.6c3.1-3.1,4.6-6.8,4.6-11.2V490.7z"/>
	<path class="st0" d="M738.7,474.1c4.7,4.7,7,10.3,7,16.9v19.9c0,1.1-0.4,2-1.2,2.8c-0.8,0.8-1.7,1.2-2.8,1.2h-0.1
		c-1.1,0-2-0.4-2.8-1.2c-0.8-0.8-1.2-1.7-1.2-2.8v-2c-4.5,4-9.8,6-15.8,6c-6.6,0-12.2-2.3-16.9-7s-7-10.3-7-16.9s2.3-12.2,7-16.9
		c4.7-4.7,10.3-7,16.9-7S734,469.5,738.7,474.1z M710.6,479.8c-3.1,3.1-4.6,6.8-4.6,11.1c0,4.4,1.5,8.1,4.6,11.2
		c3.1,3.1,6.8,4.6,11.2,4.6s8.1-1.5,11.1-4.6c3.1-3.1,4.6-6.8,4.6-11.2c0-4.3-1.5-8.1-4.6-11.1c-3.1-3.1-6.8-4.6-11.1-4.6
		S713.7,476.8,710.6,479.8z"/>
	<path class="st0" d="M762.5,510.9c0,1.1-0.4,2-1.2,2.8c-0.8,0.8-1.7,1.2-2.8,1.2h-0.1c-1.1,0-2-0.4-2.8-1.2
		c-0.8-0.8-1.2-1.7-1.2-2.8v-24c0-5.4,1.9-10.1,5.8-13.9c3.8-3.8,8.5-5.8,13.9-5.8c6.5,0,11.7,2.6,15.7,7.8
		c3.9-5.2,9.1-7.8,15.6-7.8c5.4,0,10.1,1.9,13.9,5.8c3.8,3.9,5.8,8.5,5.8,13.9v24c0,1.1-0.4,2-1.1,2.8c-0.8,0.8-1.7,1.2-2.8,1.2H821
		c-1.1,0-2-0.4-2.8-1.2c-0.8-0.8-1.2-1.7-1.2-2.8v-24c0-3.2-1.1-5.9-3.4-8.2c-2.3-2.3-5-3.4-8.3-3.4c-3.2,0-5.9,1.1-8.2,3.4
		c-2.3,2.3-3.4,5-3.4,8.2v24c0,1.1-0.4,2-1.2,2.8c-0.8,0.8-1.7,1.2-2.8,1.2h-0.1c-1.1,0-2.1-0.4-2.8-1.2c-0.8-0.8-1.2-1.7-1.2-2.8
		v-24c0-3.2-1.1-5.9-3.4-8.2c-2.3-2.3-5-3.4-8.2-3.4c-3.2,0-5.9,1.1-8.2,3.4c-2.3,2.3-3.4,5-3.4,8.2V510.9z"/>
	<path class="st0" d="M878,481.1c0.5,1,0.5,2,0.1,3.1c-0.4,1-1.1,1.8-2.1,2.2c-4.1,1.8-9.4,4.3-16.1,7.3c-8.2,3.7-13.6,6.1-16,7.2
		c3.1,4,7.3,6,12.4,6c3.4,0,6.5-1,9.3-3c2.7-2,4.6-4.5,5.6-7.6c0.6-1.8,1.9-2.7,3.8-2.7c1.4,0,2.5,0.6,3.3,1.7
		c0.8,1.1,0.9,2.3,0.5,3.6c-1.6,4.7-4.5,8.5-8.6,11.4c-4.2,3-8.8,4.5-13.9,4.5c-6.6,0-12.2-2.3-16.9-7c-4.7-4.7-7-10.3-7-16.9
		s2.3-12.2,7-16.9c4.7-4.7,10.3-7,16.9-7c4.7,0,9.1,1.3,13,3.9C873.3,473.6,876.1,476.9,878,481.1z M856.4,475.3
		c-4.4,0-8.1,1.5-11.2,4.6c-3.1,3.1-4.6,6.8-4.6,11.2c0,0.8,0.1,1.6,0.2,2.3l27.6-12.5C865.3,477.2,861.3,475.3,856.4,475.3z"/>
	<path class="st0" d="M895.1,510.9c0,1.1-0.4,2-1.2,2.8c-0.8,0.8-1.7,1.2-2.8,1.2H891c-1.1,0-2-0.4-2.8-1.2
		c-0.8-0.8-1.2-1.7-1.2-2.8V487c0-5.5,1.9-10.1,5.8-14c3.9-3.9,8.5-5.8,14-5.8c5.4,0,10.1,1.9,14,5.8c3.9,3.9,5.8,8.5,5.8,14v23.9
		c0,1.1-0.4,2-1.2,2.8c-0.8,0.8-1.7,1.2-2.8,1.2h-0.1c-1.1,0-2.1-0.4-2.8-1.2c-0.8-0.8-1.2-1.7-1.2-2.8V487c0-3.2-1.1-6-3.4-8.3
		c-2.3-2.3-5.1-3.5-8.3-3.5c-3.3,0-6,1.2-8.3,3.5c-2.3,2.3-3.4,5.1-3.4,8.3V510.9z"/>
	<path class="st0" d="M939.4,449.2c1.1,0,2,0.4,2.8,1.1c0.8,0.8,1.2,1.7,1.2,2.8v13.9h7.9c1.1,0,2,0.4,2.8,1.2s1.2,1.7,1.2,2.8v0.1
		c0,1.1-0.4,2-1.2,2.8c-0.8,0.8-1.7,1.2-2.8,1.2h-7.9v27.2c0,1.2,0.4,2.2,1.3,3.1s1.9,1.3,3.1,1.3h3.5c1.1,0,2,0.4,2.8,1.2
		s1.2,1.7,1.2,2.8v0.1c0,1.1-0.4,2-1.2,2.8c-0.8,0.8-1.7,1.2-2.8,1.2h-3.5c-3.4,0-6.4-1.2-8.8-3.6c-2.4-2.4-3.6-5.4-3.6-8.8v-49.2
		c0-1.1,0.4-2.1,1.2-2.8c0.8-0.8,1.7-1.1,2.8-1.1H939.4z"/>
	<path class="st0" d="M983.9,467.1c6.6,0,12.2,2.3,16.9,7c4.7,4.7,7,10.3,7,16.9s-2.3,12.2-7,16.9s-10.3,7-16.9,7
		c-6.6,0-12.2-2.3-16.9-7c-4.7-4.7-7-10.3-7-16.9s2.3-12.2,7-16.9C971.7,469.5,977.3,467.1,983.9,467.1z M983.9,475.3
		c-4.4,0-8.1,1.5-11.2,4.6c-3.1,3.1-4.6,6.8-4.6,11.2c0,4.3,1.5,8.1,4.6,11.1c3.1,3.1,6.8,4.6,11.2,4.6s8.1-1.5,11.1-4.6
		c3.1-3.1,4.6-6.8,4.6-11.1c0-4.4-1.5-8.1-4.6-11.2C992,476.9,988.3,475.3,983.9,475.3z"/>
</g>
</svg>
