<?xml version="1.0" encoding="utf-8"?>
<!-- Generator: Adobe Illustrator 24.2.3, SVG Export Plug-In . SVG Version: 6.00 Build 0)  -->
<svg version="1.1" id="Camada_1" xmlns="http://www.w3.org/2000/svg" xmlns:xlink="http://www.w3.org/1999/xlink" x="0px" y="0px"
	 viewBox="0 0 1366 645.7" style="enable-background:new 0 0 1366 645.7;" xml:space="preserve">
<style type="text/css">
	.st0{fill:#0099FF;}
	.st1{enable-background:new    ;}
	.st2{fill:#1B365F;}
</style>
<g>
	<path class="st0" d="M395,32c59.5-7,80.9,45.3,70.4,87.9c-2.3,9-1.3,17.9-1.3,27c-0.3,107-0.3,214,0,321.3
		c0,12.3,0.7,24.8-2.7,36.9c-7,24.8-28.1,42.2-53.9,42.6c-27,0.7-53.6,0.4-80.6,0.4c-4.6,0-8.2,0.9-11.5,3.9
		c-22.8,19.1-45.8,37.6-68.7,56.4c-14.1,11.5-29,6.2-33-11.5c-3-13.5-6.6-27-9-40.2c-1.3-6.6-4-8.6-10.6-8.6
		c-32,0.4-63.8,0.7-95.7-0.3c-37.1-0.9-61.8-27-61.8-64.1c-0.3-104.7,0-209.4,0-314.2c0-15.5-0.7-31.1,0.3-46.5
		c1.3-19.8,13.2-31.1,30-38.2c18.8-7.9,38.6-12.3,58.1-16.9c67.1-15.5,133.7-10.5,200.4,4c19.1,4,37.9,9.3,57.4,9.8
		c2.3,0,4.4,0.3,6.7,0c10.2,0,19.5-1.9,24-12.3c3.9-9-0.9-21.8-10.2-29.4C400.1,37.1,396.8,35.7,395,32z M45.9,394.1
		C45.6,394.1,45.6,394.1,45.9,394.1c-0.3,25.1-0.3,50.2-0.3,75.4c0,8.6-0.7,16.9,1.1,25.4c5.2,27,26.2,43,54.9,43
		c33.4,0.3,66.7,0,99.8-0.3c6,0,9,1.4,10.6,7.9c3.7,16.2,7.9,32.3,11.5,48.5c2.7,11.5,7.9,13.5,16.9,5.7
		c22.9-18.8,46-37.4,68.7-56.4c4.6-3.9,9-5.7,15.3-5.7c25.4,0.4,50.6,0.4,76.2,0c32.3-0.4,53.2-21.8,53.2-53.9
		c0-61.2,0-122.6,0-183.7c0-8.6-3.3-10.2-10.9-6.6c-3.9,1.7-4.9,5.2-6,8.7c-2.2,8.6-4.2,16.8-6.7,25.1c-9.6,32-37.9,57.1-68.6,60.2
		c-38.2,4-70.1-12.3-87.9-44.3c-7.5-13.5-10.9-28.3-15.5-42.7c-2.7-9-10.9-12.5-18.5-8.2c-4.4,2.6-5.3,7-6.6,11.3
		c-4.6,17.2-9.3,34.6-20.2,49.1c-20.9,28.5-49.6,40.6-84.3,34.6c-34.6-6-56.2-27.8-66-61.2c-2.7-9-4.4-17.9-7-27
		c-1.1-3.9-4-6.6-8.2-6c-4.6,0.7-2.6,4.9-2.6,7.5C45.6,331.6,45.9,362.6,45.9,394.1z M419.2,42.9c1.1,2.7,1.7,4,2.2,5.3
		c8.2,23.2-4,41.3-28.8,42.7c-14.5,0.7-28.8-1.3-42.7-4.2c-34.9-7.5-70.1-13.6-105.6-18.1C184.2,61.1,127,72.3,71.3,93
		c-14.6,5.6-25.1,15.3-25.4,32.3c-0.3,34.6,0,68.7-0.3,103.3c0,4.9,1.7,5.7,6,4.9c15.5-2.6,23.4-14.9,17.9-30.4
		C58.2,172,81.9,150.3,105.3,145c29-6.5,58.8-7,88.4-5.7c32.7,1.7,64.5,9,96.7,14.9c35.1,6.6,70.1,14.2,106.3,12.8
		c14.1-0.7,26.7-4.6,37.4-13.6c24-19.8,31.3-59.4,16.5-86.6C444,54.9,434.7,46,419.2,42.9z M454.1,147.9c-6,6-10.2,11.2-15.5,15.1
		c-19.4,14.9-42.2,15.5-64.5,14.1c-30.4-2.2-60.2-7.5-90.1-13.9c-57.1-12.3-114.5-19.5-173-9.3c-24.4,4.2-37.6,23.2-31.6,46.5
		s-4.9,40-28.8,43.5c-1.7,0.3-3.9-0.7-4.9,2.2c-0.9,2.6,0,22.9,1.3,22.9c7.2,0,13.6-3,19.2-7.6c1.4-1.3,2.7-2.7,4-4.2
		c6.6-6.2,13.1-12.5,19.8-18.4c31.6-26.2,77.3-25.8,109,0.7c8.2,6.7,15.3,14.5,21.8,22.5c6.5,7.9,13.5,12.8,24.1,9.3
		c2.2-0.7,4.9,0,7.5,0.7c6.2,1.4,11.3-0.3,15.3-4.9c4.9-5.3,10-10.9,14.9-16.2c25.5-27.8,56.7-37.9,93.4-27.3
		c19.8,5.7,34.3,20.2,48.8,34.1c6.6,6.5,14.1,10,22.8,11.9c5.2,1.1,6.6-0.4,6.6-5.3C454.1,225.9,454.1,187.7,454.1,147.9z
		 M144,377.3c40.9,0,74-33.4,74-74.3c0-39-34.6-73-73.1-72.9c-40.6,0.3-73.4,33.3-73.6,73.9C71,344.1,104,377.3,144,377.3z
		 M422.5,304.1c-0.3-43-34.3-73-72.7-73.9c-40.2-0.7-73,32.1-74,71.3c-1.3,39.7,30.8,75,71.7,75.4
		C389,377.8,422.2,345.2,422.5,304.1z"/>
	<path class="st0" d="M87.3,97.5c53.2-22.8,108.4-23.4,164.2-13.9C195.9,80.5,140.5,78.4,87.3,97.5z"/>
	<path class="st0" d="M335.6,152.7c41.2,6.5,79,4.6,100.5-40.4c1.4,13.5-8.2,28.8-21.8,36c-16.9,9-35.6,12.3-54.8,9.8
		C351.7,156.9,343.2,156.9,335.6,152.7z"/>
	<path class="st0" d="M120.2,300.2c0.4-10.5,1.9-21.4,7.9-30.8c8.6-13.9,21.8-13.9,29.7,0.4c10.9,19.8,11.2,40.6,0.4,60.7
		c-8.2,15.5-22.4,15.3-31.1-0.3C122,321.3,120.3,311.4,120.2,300.2z"/>
	<path class="st0" d="M374.3,300.6c-0.9,10.9-2.3,21.8-8.3,31.6c-8.6,13.5-21.8,13.5-29.4-0.4c-11.3-20.9-11.5-42.2,0.4-62.8
		c7.9-13.5,20.2-13.1,28.8,0.3C372.3,278.5,373.2,289.6,374.3,300.6z"/>
</g>
<g class="st1">
	<path class="st2" d="M573.6,135.1c0,0.9-0.3,1.6-1,2.3c-0.6,0.6-1.4,1-2.3,1h-0.1c-0.9,0-1.6-0.3-2.3-1c-0.6-0.6-1-1.4-1-2.3v-16.8
		h-21.3v16.8c0,0.9-0.3,1.6-1,2.3c-0.6,0.6-1.4,1-2.3,1h-0.1c-0.9,0-1.6-0.3-2.3-1c-0.6-0.6-1-1.4-1-2.3v-32.6c0-4.8,1.7-8.8,5-12.2
		c3.4-3.3,7.4-5,12.1-5c4.8,0,8.8,1.7,12.2,5c3.4,3.4,5,7.4,5,12.2V135.1z M567,111.8v-9.3c0-2.9-1-5.5-3.1-7.6
		c-2.1-2.1-4.6-3.1-7.6-3.1c-2.9,0-5.5,1-7.6,3.1c-2.1,2.1-3.1,4.6-3.1,7.6v9.3H567z"/>
	<path class="st2" d="M599.2,146.3c3.2,0,6.1-1.2,8.7-3.7c2.7-2.6,4-5.6,4-9v-0.1c-3.6,3.2-7.9,4.8-12.7,4.8
		c-5.3,0-9.9-1.9-13.6-5.6c-3.8-3.8-5.6-8.3-5.6-13.6c0-5.3,1.9-9.9,5.6-13.6c3.8-3.8,8.3-5.6,13.6-5.6c5.3,0,9.8,1.9,13.6,5.6
		c3.8,3.7,5.7,8.3,5.7,13.6v14.6c0,5.2-2,9.7-6.1,13.6c-3.9,3.8-8.3,5.6-13.2,5.6c-7.6,0-13.2-2.9-16.9-8.8
		c-0.6-0.9-0.7-1.8-0.4-2.8c0.3-1,1-1.7,2-2l0.1,0c1.6-0.5,2.8-0.1,3.8,1.3C590.3,144.4,594.1,146.3,599.2,146.3z M611.9,118.9
		c0-3.5-1.3-6.4-3.8-8.9c-2.5-2.4-5.4-3.7-8.9-3.7c-3.5,0-6.5,1.2-9,3.7c-2.5,2.5-3.7,5.5-3.7,9c0,3.5,1.2,6.5,3.7,9
		c2.5,2.5,5.5,3.7,9,3.7c3.5,0,6.5-1.2,9-3.7c2.5-2.5,3.7-5.5,3.7-9V118.9z"/>
	<path class="st2" d="M643.7,99.8c5.3,0,9.9,1.9,13.6,5.6c3.8,3.8,5.6,8.3,5.6,13.6c0,5.3-1.9,9.9-5.6,13.6
		c-3.8,3.8-8.3,5.6-13.6,5.6c-5.3,0-9.9-1.9-13.6-5.6c-3.8-3.8-5.6-8.3-5.6-13.6c0-5.3,1.9-9.9,5.6-13.6
		C633.9,101.7,638.4,99.8,643.7,99.8z M643.7,106.4c-3.5,0-6.5,1.2-9,3.7c-2.5,2.5-3.7,5.5-3.7,9c0,3.5,1.2,6.5,3.7,9
		c2.5,2.5,5.5,3.7,9,3.7c3.5,0,6.5-1.2,9-3.7c2.5-2.5,3.7-5.5,3.7-9c0-3.5-1.2-6.5-3.7-9C650.2,107.6,647.2,106.4,643.7,106.4z"/>
	<path class="st2" d="M685.5,99.8c0.9,0,1.7,0.3,2.3,1c0.6,0.6,0.9,1.4,0.9,2.3v0.1c0,0.9-0.3,1.6-0.9,2.3c-0.6,0.6-1.4,1-2.3,1h-2
		c-2.2,0-4.1,0.8-5.6,2.3c-1.5,1.6-2.3,3.4-2.3,5.6v20.8c0,0.9-0.3,1.6-1,2.3c-0.6,0.6-1.4,1-2.3,1h-0.1c-0.9,0-1.6-0.3-2.3-1
		c-0.6-0.6-1-1.4-1-2.3v-20.8c0-4,1.5-7.4,4.2-10.3c2.8-2.8,6.2-4.2,10.3-4.2H685.5z"/>
	<path class="st2" d="M725.5,105.4c3.8,3.8,5.6,8.3,5.6,13.6v16.1c0,0.9-0.3,1.6-1,2.3c-0.6,0.6-1.4,1-2.3,1h-0.1
		c-0.9,0-1.6-0.3-2.3-1c-0.6-0.6-1-1.4-1-2.3v-1.6c-3.6,3.2-7.9,4.8-12.7,4.8c-5.3,0-9.9-1.9-13.6-5.6c-3.8-3.8-5.6-8.3-5.6-13.6
		c0-5.3,1.9-9.9,5.6-13.6c3.8-3.8,8.3-5.6,13.6-5.6S721.7,101.7,725.5,105.4z M702.8,110.1c-2.5,2.5-3.7,5.5-3.7,9
		c0,3.5,1.2,6.5,3.7,9c2.5,2.5,5.5,3.7,9,3.7c3.5,0,6.5-1.2,9-3.7c2.5-2.5,3.7-5.5,3.7-9c0-3.5-1.2-6.5-3.7-9
		c-2.5-2.5-5.5-3.7-9-3.7C708.3,106.3,705.3,107.6,702.8,110.1z"/>
	<path class="st2" d="M743.7,131.9c0.5,0,0.8,0.2,1.1,0.6c0.3,0.4,0.3,0.8,0.1,1.3l-4.6,10.2c-0.2,0.5-0.6,0.8-1.2,0.8h-2.3
		c-0.4,0-0.8-0.2-1.1-0.5c-0.3-0.4-0.3-0.7-0.2-1.2l2.8-10.2c0.2-0.7,0.6-1,1.3-1H743.7z"/>
	<path class="st2" d="M774.3,152.8c-0.9,0-1.6-0.3-2.3-1c-0.6-0.6-1-1.4-1-2.3V119c0-5.3,1.9-9.8,5.7-13.6c3.7-3.7,8.3-5.6,13.6-5.6
		s9.9,1.9,13.6,5.6s5.6,8.3,5.6,13.6c0,5.3-1.9,9.9-5.6,13.6s-8.3,5.6-13.6,5.6c-4.9,0-9.1-1.6-12.7-4.8v16.1c0,0.9-0.3,1.6-1,2.3
		c-0.6,0.6-1.4,1-2.3,1H774.3z M799.3,128c2.5-2.5,3.7-5.5,3.7-9c0-3.5-1.2-6.5-3.7-9c-2.5-2.5-5.5-3.7-9-3.7c-3.5,0-6.5,1.2-9,3.7
		c-2.5,2.5-3.7,5.5-3.7,9c0,3.5,1.2,6.5,3.7,9c2.5,2.5,5.5,3.7,9,3.7C793.8,131.7,796.8,130.5,799.3,128z"/>
	<path class="st2" d="M832.1,99.8c0.9,0,1.7,0.3,2.3,1c0.6,0.6,0.9,1.4,0.9,2.3v0.1c0,0.9-0.3,1.6-0.9,2.3c-0.6,0.6-1.4,1-2.3,1h-2
		c-2.2,0-4.1,0.8-5.6,2.3c-1.5,1.6-2.3,3.4-2.3,5.6v20.8c0,0.9-0.3,1.6-1,2.3c-0.6,0.6-1.4,1-2.3,1h-0.1c-0.9,0-1.6-0.3-2.3-1
		c-0.6-0.6-1-1.4-1-2.3v-20.8c0-4,1.5-7.4,4.2-10.3c2.8-2.8,6.2-4.2,10.3-4.2H832.1z"/>
	<path class="st2" d="M874.9,111.1c0.4,0.8,0.4,1.6,0.1,2.5c-0.3,0.8-0.9,1.4-1.7,1.8c-3.3,1.5-7.6,3.4-13,5.9c-6.7,3-11,5-12.9,5.9
		c2.5,3.2,5.9,4.9,10,4.9c2.8,0,5.2-0.8,7.5-2.4c2.2-1.6,3.7-3.6,4.6-6.1c0.5-1.5,1.6-2.2,3.1-2.2c1.1,0,2,0.5,2.6,1.4
		c0.6,0.9,0.8,1.9,0.4,2.9c-1.3,3.8-3.6,6.9-6.9,9.2c-3.4,2.4-7.1,3.6-11.3,3.6c-5.3,0-9.9-1.9-13.6-5.6s-5.6-8.3-5.6-13.6
		c0-5.3,1.9-9.9,5.6-13.6s8.3-5.6,13.6-5.6c3.8,0,7.3,1,10.5,3.1C871,105,873.4,107.7,874.9,111.1z M857.4,106.4
		c-3.5,0-6.5,1.2-9,3.7c-2.5,2.5-3.7,5.5-3.7,9c0,0.6,0,1.3,0.1,1.9l22.3-10.1C864.6,107.9,861.3,106.4,857.4,106.4z"/>
	<path class="st2" d="M917.8,111.1c0.4,0.8,0.4,1.6,0.1,2.5c-0.3,0.8-0.9,1.4-1.7,1.8c-3.3,1.5-7.6,3.4-13,5.9c-6.7,3-11,5-12.9,5.9
		c2.5,3.2,5.9,4.9,10,4.9c2.8,0,5.2-0.8,7.5-2.4c2.2-1.6,3.7-3.6,4.6-6.1c0.5-1.5,1.6-2.2,3.1-2.2c1.1,0,2,0.5,2.6,1.4
		c0.6,0.9,0.8,1.9,0.4,2.9c-1.3,3.8-3.6,6.9-6.9,9.2c-3.4,2.4-7.1,3.6-11.3,3.6c-5.3,0-9.9-1.9-13.6-5.6c-3.8-3.8-5.6-8.3-5.6-13.6
		c0-5.3,1.9-9.9,5.6-13.6c3.8-3.8,8.3-5.6,13.6-5.6c3.8,0,7.3,1,10.5,3.1C914,105,916.3,107.7,917.8,111.1z M900.3,106.4
		c-3.5,0-6.5,1.2-9,3.7c-2.5,2.5-3.7,5.5-3.7,9c0,0.6,0,1.3,0.1,1.9l22.3-10.1C907.5,107.9,904.3,106.4,900.3,106.4z"/>
	<path class="st2" d="M931.6,135.1c0,0.9-0.3,1.6-1,2.3c-0.6,0.6-1.4,1-2.3,1h-0.1c-0.9,0-1.6-0.3-2.3-1c-0.6-0.6-1-1.4-1-2.3v-19.3
		c0-4.4,1.6-8.2,4.7-11.3c3.1-3.1,6.9-4.7,11.3-4.7c4.4,0,8.2,1.6,11.3,4.7c3.1,3.1,4.7,6.9,4.7,11.3v19.3c0,0.9-0.3,1.6-1,2.3
		c-0.6,0.6-1.4,1-2.3,1h-0.1c-0.9,0-1.7-0.3-2.3-1c-0.6-0.6-1-1.4-1-2.3v-19.3c0-2.6-0.9-4.8-2.8-6.7c-1.9-1.9-4.1-2.8-6.7-2.8
		c-2.6,0-4.9,0.9-6.7,2.8c-1.8,1.9-2.8,4.1-2.8,6.7V135.1z"/>
	<path class="st2" d="M988.2,100.7c1.5,0.5,2.3,1.5,2.3,3.1v0.2c0,1.1-0.4,1.9-1.3,2.6c-0.9,0.7-1.9,0.8-2.9,0.5
		c-1.2-0.4-2.5-0.6-3.9-0.6c-3.5,0-6.5,1.2-9,3.7c-2.5,2.5-3.7,5.5-3.7,9c0,3.5,1.2,6.5,3.7,9c2.5,2.5,5.5,3.7,9,3.7
		c1.3,0,2.6-0.2,3.9-0.6c1-0.3,2-0.2,2.9,0.5c0.9,0.6,1.3,1.5,1.3,2.6c0,1.6-0.8,2.6-2.3,3.1c-1.9,0.6-3.8,0.9-5.8,0.9
		c-5.3,0-9.9-1.9-13.6-5.6c-3.8-3.8-5.6-8.3-5.6-13.6c0-5.3,1.9-9.9,5.6-13.6c3.8-3.8,8.3-5.6,13.6-5.6
		C984.3,99.8,986.3,100.1,988.2,100.7z"/>
	<path class="st2" d="M999.7,85.3c0.9,0,1.6,0.3,2.3,0.9c0.6,0.6,1,1.4,1,2.3v14.4c2.8-2.1,6-3.1,9.5-3.1c4.4,0,8.2,1.6,11.3,4.7
		c3.1,3.1,4.7,6.9,4.7,11.3v19.3c0,0.9-0.3,1.6-1,2.3c-0.6,0.6-1.4,1-2.3,1h-0.1c-0.9,0-1.7-0.3-2.3-1c-0.6-0.6-1-1.4-1-2.3v-19.3
		c0-2.6-0.9-4.8-2.8-6.7c-1.9-1.9-4.1-2.8-6.7-2.8c-2.6,0-4.9,0.9-6.7,2.8c-1.8,1.9-2.8,4.1-2.8,6.7v19.3c0,0.9-0.3,1.6-1,2.3
		c-0.6,0.6-1.4,1-2.3,1h-0.1c-0.9,0-1.6-0.3-2.3-1c-0.6-0.6-1-1.4-1-2.3V88.5c0-0.9,0.3-1.7,1-2.3c0.6-0.6,1.4-0.9,2.3-0.9H999.7z"
		/>
	<path class="st2" d="M1068.4,105.4c3.8,3.8,5.6,8.3,5.6,13.6v16.1c0,0.9-0.3,1.6-1,2.3c-0.6,0.6-1.4,1-2.3,1h-0.1
		c-0.9,0-1.6-0.3-2.3-1c-0.6-0.6-1-1.4-1-2.3v-1.6c-3.6,3.2-7.9,4.8-12.7,4.8c-5.3,0-9.9-1.9-13.6-5.6s-5.6-8.3-5.6-13.6
		c0-5.3,1.9-9.9,5.6-13.6s8.3-5.6,13.6-5.6C1060.1,99.8,1064.6,101.7,1068.4,105.4z M1045.7,110.1c-2.5,2.5-3.7,5.5-3.7,9
		c0,3.5,1.2,6.5,3.7,9c2.5,2.5,5.5,3.7,9,3.7s6.5-1.2,9-3.7c2.5-2.5,3.7-5.5,3.7-9c0-3.5-1.2-6.5-3.7-9c-2.5-2.5-5.5-3.7-9-3.7
		S1048.2,107.6,1045.7,110.1z"/>
	<path class="st2" d="M1107,122.3c0,2.6,0.9,4.8,2.8,6.7c1.9,1.8,4.1,2.8,6.7,2.8c2.6,0,4.8-0.9,6.7-2.8c1.8-1.9,2.8-4.1,2.8-6.7
		V103c0-0.9,0.3-1.7,1-2.3c0.6-0.6,1.4-1,2.3-1h0.1c0.9,0,1.6,0.3,2.3,1c0.6,0.6,1,1.4,1,2.3v19.3c0,4.4-1.6,8.2-4.7,11.3
		c-3.1,3.1-6.9,4.7-11.3,4.7c-4.4,0-8.2-1.6-11.3-4.7c-3.1-3.1-4.7-6.9-4.7-11.3V103c0-0.9,0.3-1.7,1-2.3c0.6-0.6,1.4-1,2.3-1h0.1
		c0.9,0,1.6,0.3,2.3,1c0.6,0.6,1,1.4,1,2.3V122.3z"/>
	<path class="st2" d="M1146.1,135.1c0,0.9-0.3,1.6-1,2.3c-0.6,0.6-1.4,1-2.3,1h-0.1c-0.9,0-1.6-0.3-2.3-1c-0.6-0.6-1-1.4-1-2.3
		v-19.4c0-4.4,1.6-8.1,4.7-11.3c3.1-3.1,6.9-4.7,11.3-4.7c5.2,0,9.5,2.1,12.7,6.3c3.2-4.2,7.4-6.3,12.6-6.3c4.4,0,8.2,1.6,11.3,4.7
		c3.1,3.1,4.7,6.9,4.7,11.3v19.4c0,0.9-0.3,1.6-0.9,2.3c-0.6,0.6-1.4,1-2.3,1h-0.1c-0.9,0-1.6-0.3-2.3-1c-0.6-0.6-1-1.4-1-2.3v-19.4
		c0-2.6-0.9-4.8-2.8-6.6s-4.1-2.8-6.7-2.8c-2.6,0-4.8,0.9-6.6,2.8s-2.8,4-2.8,6.6v19.4c0,0.9-0.3,1.6-1,2.3c-0.6,0.6-1.4,1-2.3,1
		h-0.1c-0.9,0-1.7-0.3-2.3-1c-0.6-0.6-1-1.4-1-2.3v-19.4c0-2.6-0.9-4.8-2.8-6.6c-1.8-1.8-4-2.8-6.6-2.8c-2.6,0-4.8,0.9-6.6,2.8
		s-2.8,4-2.8,6.6V135.1z"/>
</g>
<g class="st1">
	<path class="st0" d="M542,239.5c-0.9,0-1.6-0.3-2.3-1c-0.6-0.6-1-1.4-1-2.3v-30.6c0-5.3,1.9-9.8,5.7-13.6c3.7-3.7,8.3-5.6,13.6-5.6
		c5.3,0,9.9,1.9,13.6,5.6c3.8,3.8,5.6,8.3,5.6,13.6c0,5.3-1.9,9.9-5.6,13.6c-3.8,3.8-8.3,5.6-13.6,5.6c-4.9,0-9.1-1.6-12.7-4.8v16.1
		c0,0.9-0.3,1.6-1,2.3c-0.6,0.6-1.4,1-2.3,1H542z M567.1,214.7c2.5-2.5,3.7-5.5,3.7-9c0-3.5-1.2-6.5-3.7-9c-2.5-2.5-5.5-3.7-9-3.7
		c-3.5,0-6.5,1.2-9,3.7c-2.5,2.5-3.7,5.5-3.7,9c0,3.5,1.2,6.5,3.7,9c2.5,2.5,5.5,3.7,9,3.7C561.6,218.4,564.6,217.2,567.1,214.7z"/>
	<path class="st0" d="M619,197.8c0.4,0.8,0.4,1.6,0.1,2.5c-0.3,0.8-0.9,1.4-1.7,1.8c-3.3,1.5-7.6,3.4-13,5.9c-6.7,3-11,5-12.9,5.9
		c2.5,3.2,5.9,4.9,10,4.9c2.8,0,5.2-0.8,7.5-2.4c2.2-1.6,3.7-3.6,4.6-6.1c0.5-1.5,1.6-2.2,3.1-2.2c1.1,0,2,0.5,2.6,1.4
		c0.6,0.9,0.8,1.9,0.4,2.9c-1.3,3.8-3.6,6.9-6.9,9.2c-3.4,2.4-7.1,3.6-11.3,3.6c-5.3,0-9.9-1.9-13.6-5.6c-3.8-3.8-5.6-8.3-5.6-13.6
		c0-5.3,1.9-9.9,5.6-13.6c3.8-3.8,8.3-5.6,13.6-5.6c3.8,0,7.3,1,10.5,3.1C615.2,191.7,617.5,194.4,619,197.8z M601.5,193.1
		c-3.5,0-6.5,1.2-9,3.7c-2.5,2.5-3.7,5.5-3.7,9c0,0.6,0,1.3,0.1,1.9l22.3-10.1C608.7,194.6,605.5,193.1,601.5,193.1z"/>
	<path class="st0" d="M660.4,239.5c-0.9,0-1.6-0.3-2.3-1c-0.6-0.6-1-1.4-1-2.3v-16.1c-3.6,3.2-7.9,4.8-12.7,4.8
		c-5.3,0-9.9-1.9-13.6-5.6c-3.8-3.8-5.6-8.3-5.6-13.6c0-5.3,1.9-9.9,5.6-13.6c3.8-3.8,8.3-5.6,13.6-5.6c5.3,0,9.8,1.9,13.6,5.6
		c3.8,3.8,5.7,8.3,5.7,13.6v30.6c0,0.9-0.3,1.6-1,2.3c-0.6,0.6-1.4,1-2.3,1H660.4z M644.5,218.4c3.5,0,6.5-1.2,9-3.7
		c2.5-2.5,3.7-5.5,3.7-9c0-3.5-1.2-6.5-3.7-9c-2.5-2.5-5.5-3.7-9-3.7c-3.5,0-6.5,1.2-9,3.7c-2.5,2.5-3.7,5.5-3.7,9
		c0,3.5,1.2,6.5,3.7,9C637.9,217.2,641,218.4,644.5,218.4z"/>
	<path class="st0" d="M677.3,209c0,2.6,0.9,4.8,2.8,6.7c1.9,1.8,4.1,2.8,6.7,2.8c2.6,0,4.8-0.9,6.7-2.8c1.8-1.9,2.8-4.1,2.8-6.7
		v-19.3c0-0.9,0.3-1.7,1-2.3c0.6-0.6,1.4-1,2.3-1h0.1c0.9,0,1.6,0.3,2.3,1c0.6,0.6,1,1.4,1,2.3V209c0,4.4-1.6,8.2-4.7,11.3
		c-3.1,3.1-6.9,4.7-11.3,4.7c-4.4,0-8.2-1.6-11.3-4.7c-3.1-3.1-4.7-6.9-4.7-11.3v-19.3c0-0.9,0.3-1.7,1-2.3c0.6-0.6,1.4-1,2.3-1h0.1
		c0.9,0,1.6,0.3,2.3,1c0.6,0.6,1,1.4,1,2.3V209z"/>
	<path class="st0" d="M745.6,197.8c0.4,0.8,0.4,1.6,0.1,2.5c-0.3,0.8-0.9,1.4-1.7,1.8c-3.3,1.5-7.6,3.4-13,5.9c-6.7,3-11,5-12.9,5.9
		c2.5,3.2,5.9,4.9,10,4.9c2.8,0,5.2-0.8,7.5-2.4c2.2-1.6,3.7-3.6,4.6-6.1c0.5-1.5,1.6-2.2,3.1-2.2c1.1,0,2,0.5,2.6,1.4
		c0.6,0.9,0.8,1.9,0.4,2.9c-1.3,3.8-3.6,6.9-6.9,9.2c-3.4,2.4-7.1,3.6-11.3,3.6c-5.3,0-9.9-1.9-13.6-5.6s-5.6-8.3-5.6-13.6
		c0-5.3,1.9-9.9,5.6-13.6s8.3-5.6,13.6-5.6c3.8,0,7.3,1,10.5,3.1C741.7,191.7,744,194.4,745.6,197.8z M728.1,193.1
		c-3.5,0-6.5,1.2-9,3.7c-2.5,2.5-3.7,5.5-3.7,9c0,0.6,0,1.3,0.1,1.9l22.3-10.1C735.3,194.6,732,193.1,728.1,193.1z"/>
	<path class="st0" d="M759.3,221.8c0,0.9-0.3,1.6-1,2.3c-0.6,0.6-1.4,1-2.3,1H756c-0.9,0-1.6-0.3-2.3-1c-0.6-0.6-1-1.4-1-2.3v-19.3
		c0-4.4,1.6-8.2,4.7-11.3c3.1-3.1,6.9-4.7,11.3-4.7c4.4,0,8.2,1.6,11.3,4.7c3.1,3.1,4.7,6.9,4.7,11.3v19.3c0,0.9-0.3,1.6-1,2.3
		c-0.6,0.6-1.4,1-2.3,1h-0.1c-0.9,0-1.7-0.3-2.3-1c-0.6-0.6-1-1.4-1-2.3v-19.3c0-2.6-0.9-4.8-2.8-6.7c-1.9-1.9-4.1-2.8-6.7-2.8
		c-2.6,0-4.9,0.9-6.7,2.8c-1.8,1.9-2.8,4.1-2.8,6.7V221.8z"/>
	<path class="st0" d="M810.1,186.5c5.3,0,9.9,1.9,13.6,5.6s5.6,8.3,5.6,13.6c0,5.3-1.9,9.9-5.6,13.6s-8.3,5.6-13.6,5.6
		s-9.9-1.9-13.6-5.6c-3.8-3.8-5.6-8.3-5.6-13.6c0-5.3,1.9-9.9,5.6-13.6C800.2,188.4,804.8,186.5,810.1,186.5z M810.1,193.1
		c-3.5,0-6.5,1.2-9,3.7c-2.5,2.5-3.7,5.5-3.7,9c0,3.5,1.2,6.5,3.7,9c2.5,2.5,5.5,3.7,9,3.7c3.5,0,6.5-1.2,9-3.7
		c2.5-2.5,3.7-5.5,3.7-9c0-3.5-1.2-6.5-3.7-9C816.6,194.3,813.6,193.1,810.1,193.1z"/>
	<path class="st0" d="M878.8,187.4c1.5,0.5,2.3,1.5,2.3,3.1v0.2c0,1.1-0.4,1.9-1.3,2.6c-0.9,0.7-1.9,0.8-2.9,0.5
		c-1.2-0.4-2.5-0.6-3.9-0.6c-3.5,0-6.5,1.2-9,3.7c-2.5,2.5-3.7,5.5-3.7,9c0,3.5,1.2,6.5,3.7,9c2.5,2.5,5.5,3.7,9,3.7
		c1.3,0,2.6-0.2,3.9-0.6c1-0.3,2-0.2,2.9,0.5c0.9,0.6,1.3,1.5,1.3,2.6c0,1.6-0.8,2.6-2.3,3.1c-1.9,0.6-3.8,0.9-5.8,0.9
		c-5.3,0-9.9-1.9-13.6-5.6c-3.8-3.8-5.6-8.3-5.6-13.6c0-5.3,1.9-9.9,5.6-13.6c3.8-3.8,8.3-5.6,13.6-5.6
		C875,186.5,876.9,186.8,878.8,187.4z"/>
	<path class="st0" d="M920,192.1c3.8,3.8,5.6,8.3,5.6,13.6v16.1c0,0.9-0.3,1.6-1,2.3c-0.6,0.6-1.4,1-2.3,1h-0.1
		c-0.9,0-1.6-0.3-2.3-1c-0.6-0.6-1-1.4-1-2.3v-1.6c-3.6,3.2-7.9,4.8-12.7,4.8c-5.3,0-9.9-1.9-13.6-5.6s-5.6-8.3-5.6-13.6
		c0-5.3,1.9-9.9,5.6-13.6s8.3-5.6,13.6-5.6C911.7,186.5,916.2,188.4,920,192.1z M897.3,196.8c-2.5,2.5-3.7,5.5-3.7,9
		c0,3.5,1.2,6.5,3.7,9c2.5,2.5,5.5,3.7,9,3.7s6.5-1.2,9-3.7c2.5-2.5,3.7-5.5,3.7-9c0-3.5-1.2-6.5-3.7-9c-2.5-2.5-5.5-3.7-9-3.7
		S899.8,194.3,897.3,196.8z"/>
	<path class="st0" d="M966.9,172c0.9,0,1.6,0.3,2.3,0.9c0.6,0.6,1,1.4,1,2.3v30.6c0,5.3-1.9,9.8-5.7,13.5c-3.8,3.7-8.3,5.6-13.6,5.6
		c-5.3,0-9.9-1.9-13.6-5.6s-5.6-8.3-5.6-13.6c0-5.3,1.9-9.9,5.6-13.6s8.3-5.6,13.6-5.6c4.8,0,9.1,1.6,12.7,4.8v-16.1
		c0-0.9,0.3-1.7,1-2.3c0.6-0.6,1.4-0.9,2.3-0.9H966.9z M941.8,196.8c-2.5,2.5-3.7,5.5-3.7,9c0,3.5,1.2,6.5,3.7,9
		c2.5,2.5,5.5,3.7,9,3.7s6.5-1.2,9-3.7c2.5-2.5,3.7-5.5,3.7-9c0-3.5-1.2-6.5-3.7-9c-2.5-2.5-5.5-3.7-9-3.7S944.3,194.3,941.8,196.8z
		"/>
	<path class="st0" d="M1010.1,192.1c3.8,3.8,5.6,8.3,5.6,13.6v16.1c0,0.9-0.3,1.6-1,2.3c-0.6,0.6-1.4,1-2.3,1h-0.1
		c-0.9,0-1.6-0.3-2.3-1c-0.6-0.6-1-1.4-1-2.3v-1.6c-3.6,3.2-7.9,4.8-12.7,4.8c-5.3,0-9.9-1.9-13.6-5.6c-3.8-3.8-5.6-8.3-5.6-13.6
		c0-5.3,1.9-9.9,5.6-13.6c3.8-3.8,8.3-5.6,13.6-5.6S1006.3,188.4,1010.1,192.1z M987.4,196.8c-2.5,2.5-3.7,5.5-3.7,9
		c0,3.5,1.2,6.5,3.7,9c2.5,2.5,5.5,3.7,9,3.7c3.5,0,6.5-1.2,9-3.7c2.5-2.5,3.7-5.5,3.7-9c0-3.5-1.2-6.5-3.7-9
		c-2.5-2.5-5.5-3.7-9-3.7C992.9,193,989.9,194.3,987.4,196.8z"/>
	<path class="st0" d="M1032.7,193c-1.3,0-2.4,0.5-3.4,1.4c-0.9,0.9-1.4,2.1-1.4,3.4c0,1.8,0.9,3.2,2.6,4.1c0.5,0.3,2.6,0.9,6.1,1.8
		c2.6,0.8,4.6,1.7,5.8,2.9c1.7,1.6,2.6,4,2.6,7.2c0,3.1-1.1,5.8-3.3,8c-2.2,2.2-4.9,3.3-8,3.3h-9.2c-0.9,0-1.6-0.3-2.3-1
		c-0.6-0.6-1-1.4-1-2.3v-0.1c0-0.9,0.3-1.7,1-2.3c0.6-0.6,1.4-1,2.3-1h9.6c1.3,0,2.4-0.5,3.4-1.4c0.9-0.9,1.4-2,1.4-3.4
		c0-1.7-0.9-3-2.6-3.9c-0.4-0.2-2.4-0.8-6.1-1.8c-2.6-0.8-4.5-1.8-5.8-3c-1.7-1.7-2.6-4.2-2.6-7.3c0-3.1,1.1-5.8,3.3-7.9
		c2.2-2.2,4.9-3.3,8-3.3h6.5c0.9,0,1.7,0.3,2.3,1c0.6,0.6,1,1.4,1,2.3v0.1c0,0.9-0.3,1.6-1,2.3c-0.6,0.6-1.4,1-2.3,1H1032.7z"/>
	<path class="st0" d="M1054,172c0.9,0,1.6,0.3,2.3,0.9c0.6,0.6,1,1.4,1,2.3v11.3h6.4c0.9,0,1.6,0.3,2.3,1c0.6,0.6,1,1.4,1,2.3v0.1
		c0,0.9-0.3,1.6-1,2.3c-0.6,0.6-1.4,1-2.3,1h-6.4v22c0,1,0.3,1.8,1,2.5c0.7,0.7,1.5,1,2.5,1h2.8c0.9,0,1.6,0.3,2.3,1
		c0.6,0.6,1,1.4,1,2.3v0.1c0,0.9-0.3,1.6-1,2.3c-0.6,0.6-1.4,1-2.3,1h-2.8c-2.8,0-5.2-1-7.1-2.9c-2-2-2.9-4.3-2.9-7.1v-39.8
		c0-0.9,0.3-1.7,1-2.3c0.6-0.6,1.4-0.9,2.3-0.9H1054z"/>
	<path class="st0" d="M1088.2,186.5c0.9,0,1.7,0.3,2.3,1c0.6,0.6,0.9,1.4,0.9,2.3v0.1c0,0.9-0.3,1.6-0.9,2.3c-0.6,0.6-1.4,1-2.3,1
		h-2c-2.2,0-4.1,0.8-5.6,2.3c-1.5,1.6-2.3,3.4-2.3,5.6v20.8c0,0.9-0.3,1.6-1,2.3c-0.6,0.6-1.4,1-2.3,1h-0.1c-0.9,0-1.6-0.3-2.3-1
		c-0.6-0.6-1-1.4-1-2.3V201c0-4,1.5-7.4,4.2-10.3c2.8-2.8,6.2-4.2,10.3-4.2H1088.2z"/>
	<path class="st0" d="M1113.5,186.5c5.3,0,9.9,1.9,13.6,5.6s5.6,8.3,5.6,13.6c0,5.3-1.9,9.9-5.6,13.6s-8.3,5.6-13.6,5.6
		s-9.9-1.9-13.6-5.6s-5.6-8.3-5.6-13.6c0-5.3,1.9-9.9,5.6-13.6S1108.2,186.5,1113.5,186.5z M1113.5,193.1c-3.5,0-6.5,1.2-9,3.7
		c-2.5,2.5-3.7,5.5-3.7,9c0,3.5,1.2,6.5,3.7,9c2.5,2.5,5.5,3.7,9,3.7s6.5-1.2,9-3.7c2.5-2.5,3.7-5.5,3.7-9c0-3.5-1.2-6.5-3.7-9
		C1120.1,194.3,1117.1,193.1,1113.5,193.1z"/>
</g>
<g class="st1">
	<path class="st2" d="M1161.5,239.5c-0.9,0-1.6-0.3-2.3-1c-0.6-0.6-1-1.4-1-2.3v-30.6c0-5.3,1.9-9.8,5.7-13.6
		c3.7-3.7,8.3-5.6,13.6-5.6s9.9,1.9,13.6,5.6s5.6,8.3,5.6,13.6c0,5.3-1.9,9.9-5.6,13.6s-8.3,5.6-13.6,5.6c-4.9,0-9.1-1.6-12.7-4.8
		v16.1c0,0.9-0.3,1.6-1,2.3c-0.6,0.6-1.4,1-2.3,1H1161.5z M1186.5,214.7c2.5-2.5,3.7-5.5,3.7-9c0-3.5-1.2-6.5-3.7-9
		c-2.5-2.5-5.5-3.7-9-3.7c-3.5,0-6.5,1.2-9,3.7c-2.5,2.5-3.7,5.5-3.7,9c0,3.5,1.2,6.5,3.7,9c2.5,2.5,5.5,3.7,9,3.7
		C1181,218.4,1184,217.2,1186.5,214.7z"/>
	<path class="st2" d="M1235.7,192.1c3.8,3.8,5.6,8.3,5.6,13.6v16.1c0,0.9-0.3,1.6-1,2.3c-0.6,0.6-1.4,1-2.3,1h-0.1
		c-0.9,0-1.6-0.3-2.3-1c-0.6-0.6-1-1.4-1-2.3v-1.6c-3.6,3.2-7.9,4.8-12.7,4.8c-5.3,0-9.9-1.9-13.6-5.6s-5.6-8.3-5.6-13.6
		c0-5.3,1.9-9.9,5.6-13.6s8.3-5.6,13.6-5.6C1227.4,186.5,1231.9,188.4,1235.7,192.1z M1213,196.8c-2.5,2.5-3.7,5.5-3.7,9
		c0,3.5,1.2,6.5,3.7,9c2.5,2.5,5.5,3.7,9,3.7s6.5-1.2,9-3.7c2.5-2.5,3.7-5.5,3.7-9c0-3.5-1.2-6.5-3.7-9c-2.5-2.5-5.5-3.7-9-3.7
		S1215.5,194.3,1213,196.8z"/>
	<path class="st2" d="M1264.9,186.5c0.9,0,1.7,0.3,2.3,1c0.6,0.6,0.9,1.4,0.9,2.3v0.1c0,0.9-0.3,1.6-0.9,2.3c-0.6,0.6-1.4,1-2.3,1
		h-2c-2.2,0-4.1,0.8-5.6,2.3c-1.5,1.6-2.3,3.4-2.3,5.6v20.8c0,0.9-0.3,1.6-1,2.3c-0.6,0.6-1.4,1-2.3,1h-0.1c-0.9,0-1.6-0.3-2.3-1
		c-0.6-0.6-1-1.4-1-2.3V201c0-4,1.5-7.4,4.2-10.3c2.8-2.8,6.2-4.2,10.3-4.2H1264.9z"/>
	<path class="st2" d="M1304.9,192.1c3.8,3.8,5.6,8.3,5.6,13.6v16.1c0,0.9-0.3,1.6-1,2.3c-0.6,0.6-1.4,1-2.3,1h-0.1
		c-0.9,0-1.6-0.3-2.3-1c-0.6-0.6-1-1.4-1-2.3v-1.6c-3.6,3.2-7.9,4.8-12.7,4.8c-5.3,0-9.9-1.9-13.6-5.6c-3.8-3.8-5.6-8.3-5.6-13.6
		c0-5.3,1.9-9.9,5.6-13.6c3.8-3.8,8.3-5.6,13.6-5.6S1301.1,188.4,1304.9,192.1z M1282.2,196.8c-2.5,2.5-3.7,5.5-3.7,9
		c0,3.5,1.2,6.5,3.7,9c2.5,2.5,5.5,3.7,9,3.7c3.5,0,6.5-1.2,9-3.7c2.5-2.5,3.7-5.5,3.7-9c0-3.5-1.2-6.5-3.7-9
		c-2.5-2.5-5.5-3.7-9-3.7C1287.7,193,1284.7,194.3,1282.2,196.8z"/>
</g>
<g class="st1">
	<path class="st2" d="M542,326.2c-0.9,0-1.6-0.3-2.3-1c-0.6-0.6-1-1.4-1-2.3v-30.6c0-5.3,1.9-9.8,5.7-13.6c3.7-3.7,8.3-5.6,13.6-5.6
		c5.3,0,9.9,1.9,13.6,5.6c3.8,3.8,5.6,8.3,5.6,13.6c0,5.3-1.9,9.9-5.6,13.6c-3.8,3.8-8.3,5.6-13.6,5.6c-4.9,0-9.1-1.6-12.7-4.8V323
		c0,0.9-0.3,1.6-1,2.3c-0.6,0.6-1.4,1-2.3,1H542z M567.1,301.4c2.5-2.5,3.7-5.5,3.7-9c0-3.5-1.2-6.5-3.7-9c-2.5-2.5-5.5-3.7-9-3.7
		c-3.5,0-6.5,1.2-9,3.7c-2.5,2.5-3.7,5.5-3.7,9c0,3.5,1.2,6.5,3.7,9c2.5,2.5,5.5,3.7,9,3.7C561.6,305.1,564.6,303.9,567.1,301.4z"/>
	<path class="st2" d="M601.5,273.2c5.3,0,9.9,1.9,13.6,5.6c3.8,3.8,5.6,8.3,5.6,13.6c0,5.3-1.9,9.9-5.6,13.6
		c-3.8,3.8-8.3,5.6-13.6,5.6c-5.3,0-9.9-1.9-13.6-5.6c-3.8-3.8-5.6-8.3-5.6-13.6c0-5.3,1.9-9.9,5.6-13.6
		C591.7,275.1,596.2,273.2,601.5,273.2z M601.5,279.8c-3.5,0-6.5,1.2-9,3.7c-2.5,2.5-3.7,5.5-3.7,9c0,3.5,1.2,6.5,3.7,9
		c2.5,2.5,5.5,3.7,9,3.7c3.5,0,6.5-1.2,9-3.7c2.5-2.5,3.7-5.5,3.7-9c0-3.5-1.2-6.5-3.7-9C608.1,281,605.1,279.8,601.5,279.8z"/>
	<path class="st2" d="M661.1,258.7c0.9,0,1.6,0.3,2.3,0.9c0.6,0.6,1,1.4,1,2.3v30.6c0,5.3-1.9,9.8-5.7,13.5
		c-3.8,3.7-8.3,5.6-13.6,5.6c-5.3,0-9.9-1.9-13.6-5.6c-3.8-3.8-5.6-8.3-5.6-13.6c0-5.3,1.9-9.9,5.6-13.6c3.8-3.8,8.3-5.6,13.6-5.6
		c4.8,0,9.1,1.6,12.7,4.8v-16.1c0-0.9,0.3-1.7,1-2.3c0.6-0.6,1.4-0.9,2.3-0.9H661.1z M636,283.5c-2.5,2.5-3.7,5.5-3.7,9
		c0,3.5,1.2,6.5,3.7,9c2.5,2.5,5.5,3.7,9,3.7c3.5,0,6.5-1.2,9-3.7c2.5-2.5,3.7-5.5,3.7-9c0-3.5-1.2-6.5-3.7-9
		c-2.5-2.5-5.5-3.7-9-3.7C641.5,279.8,638.5,281,636,283.5z"/>
	<path class="st2" d="M707,284.5c0.4,0.8,0.4,1.6,0.1,2.5c-0.3,0.8-0.9,1.4-1.7,1.8c-3.3,1.5-7.6,3.4-13,5.9c-6.7,3-11,5-12.9,5.9
		c2.5,3.2,5.9,4.9,10,4.9c2.8,0,5.2-0.8,7.5-2.4c2.2-1.6,3.7-3.6,4.6-6.1c0.5-1.5,1.6-2.2,3.1-2.2c1.1,0,2,0.5,2.6,1.4
		c0.6,0.9,0.8,1.9,0.4,2.9c-1.3,3.8-3.6,6.9-6.9,9.2c-3.4,2.4-7.1,3.6-11.3,3.6c-5.3,0-9.9-1.9-13.6-5.6c-3.8-3.8-5.6-8.3-5.6-13.6
		c0-5.3,1.9-9.9,5.6-13.6c3.8-3.8,8.3-5.6,13.6-5.6c3.8,0,7.3,1,10.5,3.1C703.2,278.4,705.5,281.1,707,284.5z M689.5,279.8
		c-3.5,0-6.5,1.2-9,3.7c-2.5,2.5-3.7,5.5-3.7,9c0,0.6,0,1.3,0.1,1.9l22.3-10.1C696.7,281.3,693.5,279.8,689.5,279.8z"/>
	<path class="st2" d="M730.8,273.2c0.9,0,1.7,0.3,2.3,1c0.6,0.6,0.9,1.4,0.9,2.3v0.1c0,0.9-0.3,1.6-0.9,2.3c-0.6,0.6-1.4,1-2.3,1h-2
		c-2.2,0-4.1,0.8-5.6,2.3c-1.5,1.6-2.3,3.4-2.3,5.6v20.8c0,0.9-0.3,1.6-1,2.3c-0.6,0.6-1.4,1-2.3,1h-0.1c-0.9,0-1.6-0.3-2.3-1
		c-0.6-0.6-1-1.4-1-2.3v-20.8c0-4,1.5-7.4,4.2-10.3c2.8-2.8,6.2-4.2,10.3-4.2H730.8z"/>
	<path class="st2" d="M772.6,302.7c0,0,0,0.1,0.1,0.3c0.1,0.4,0.3,0.4,0.5,0l0.1-0.2l11.8-27.6c0.6-1.3,1.6-2,3-2h0.1
		c1.2,0,2,0.5,2.7,1.4c0.6,1,0.7,2,0.3,3L778,308.3c-0.9,2.3-2.6,3.4-5,3.4c-2.5,0-4.2-1.1-5-3.4l-13.1-30.6c-0.4-1.1-0.4-2.1,0.3-3
		c0.6-1,1.5-1.4,2.7-1.4h0.1c1.4,0,2.4,0.7,2.9,2C766.5,288.3,770.4,297.5,772.6,302.7z"/>
	<path class="st2" d="M831.4,284.5c0.4,0.8,0.4,1.6,0.1,2.5c-0.3,0.8-0.9,1.4-1.7,1.8c-3.3,1.5-7.6,3.4-13,5.9c-6.7,3-11,5-12.9,5.9
		c2.5,3.2,5.9,4.9,10,4.9c2.8,0,5.2-0.8,7.5-2.4c2.2-1.6,3.7-3.6,4.6-6.1c0.5-1.5,1.6-2.2,3.1-2.2c1.1,0,2,0.5,2.6,1.4
		c0.6,0.9,0.8,1.9,0.4,2.9c-1.3,3.8-3.6,6.9-6.9,9.2c-3.4,2.4-7.1,3.6-11.3,3.6c-5.3,0-9.9-1.9-13.6-5.6c-3.8-3.8-5.6-8.3-5.6-13.6
		c0-5.3,1.9-9.9,5.6-13.6c3.8-3.8,8.3-5.6,13.6-5.6c3.8,0,7.3,1,10.5,3.1C827.5,278.4,829.9,281.1,831.4,284.5z M813.9,279.8
		c-3.5,0-6.5,1.2-9,3.7c-2.5,2.5-3.7,5.5-3.7,9c0,0.6,0,1.3,0.1,1.9l22.3-10.1C821.1,281.3,817.8,279.8,813.9,279.8z"/>
	<path class="st2" d="M855.1,273.2c0.9,0,1.7,0.3,2.3,1c0.6,0.6,0.9,1.4,0.9,2.3v0.1c0,0.9-0.3,1.6-0.9,2.3c-0.6,0.6-1.4,1-2.3,1h-2
		c-2.2,0-4.1,0.8-5.6,2.3c-1.5,1.6-2.3,3.4-2.3,5.6v20.8c0,0.9-0.3,1.6-1,2.3c-0.6,0.6-1.4,1-2.3,1h-0.1c-0.9,0-1.6-0.3-2.3-1
		c-0.6-0.6-1-1.4-1-2.3v-20.8c0-4,1.5-7.4,4.2-10.3c2.8-2.8,6.2-4.2,10.3-4.2H855.1z"/>
	<path class="st2" d="M888.2,308.5c0,0.9-0.3,1.6-1,2.3c-0.6,0.6-1.4,1-2.3,1h-0.1c-0.9,0-1.6-0.3-2.3-1c-0.6-0.6-1-1.4-1-2.3v-19.3
		c0-4.4,1.6-8.2,4.7-11.3c3.1-3.1,6.9-4.7,11.3-4.7c4.4,0,8.2,1.6,11.3,4.7c3.1,3.1,4.7,6.9,4.7,11.3v19.3c0,0.9-0.3,1.6-1,2.3
		c-0.6,0.6-1.4,1-2.3,1h-0.1c-0.9,0-1.7-0.3-2.3-1c-0.6-0.6-1-1.4-1-2.3v-19.3c0-2.6-0.9-4.8-2.8-6.7c-1.9-1.9-4.1-2.8-6.7-2.8
		c-2.6,0-4.9,0.9-6.7,2.8c-1.8,1.9-2.8,4.1-2.8,6.7V308.5z"/>
	<path class="st2" d="M938.9,273.2c5.3,0,9.9,1.9,13.6,5.6s5.6,8.3,5.6,13.6c0,5.3-1.9,9.9-5.6,13.6s-8.3,5.6-13.6,5.6
		s-9.9-1.9-13.6-5.6c-3.8-3.8-5.6-8.3-5.6-13.6c0-5.3,1.9-9.9,5.6-13.6C929.1,275.1,933.6,273.2,938.9,273.2z M938.9,279.8
		c-3.5,0-6.5,1.2-9,3.7c-2.5,2.5-3.7,5.5-3.7,9c0,3.5,1.2,6.5,3.7,9c2.5,2.5,5.5,3.7,9,3.7c3.5,0,6.5-1.2,9-3.7
		c2.5-2.5,3.7-5.5,3.7-9c0-3.5-1.2-6.5-3.7-9C945.5,281,942.5,279.8,938.9,279.8z"/>
	<path class="st2" d="M974.1,279.7c-1.3,0-2.4,0.5-3.4,1.4c-0.9,0.9-1.4,2.1-1.4,3.4c0,1.8,0.9,3.2,2.6,4.1c0.5,0.3,2.6,0.9,6.1,1.8
		c2.6,0.8,4.6,1.7,5.8,2.9c1.7,1.6,2.6,4,2.6,7.2c0,3.1-1.1,5.8-3.3,8c-2.2,2.2-4.9,3.3-8,3.3H966c-0.9,0-1.6-0.3-2.3-1
		c-0.6-0.6-1-1.4-1-2.3v-0.1c0-0.9,0.3-1.7,1-2.3c0.6-0.6,1.4-1,2.3-1h9.6c1.3,0,2.4-0.5,3.4-1.4c0.9-0.9,1.4-2,1.4-3.4
		c0-1.7-0.9-3-2.6-3.9c-0.4-0.2-2.4-0.8-6.1-1.8c-2.6-0.8-4.5-1.8-5.8-3c-1.7-1.7-2.6-4.2-2.6-7.3c0-3.1,1.1-5.8,3.3-7.9
		c2.2-2.2,4.9-3.3,8-3.3h6.5c0.9,0,1.7,0.3,2.3,1c0.6,0.6,1,1.4,1,2.3v0.1c0,0.9-0.3,1.6-1,2.3c-0.6,0.6-1.4,1-2.3,1H974.1z"/>
	<path class="st2" d="M1002,279.7c-1.3,0-2.4,0.5-3.4,1.4c-0.9,0.9-1.4,2.1-1.4,3.4c0,1.8,0.9,3.2,2.6,4.1c0.5,0.3,2.6,0.9,6.1,1.8
		c2.6,0.8,4.6,1.7,5.8,2.9c1.7,1.6,2.6,4,2.6,7.2c0,3.1-1.1,5.8-3.3,8c-2.2,2.2-4.9,3.3-8,3.3h-9.2c-0.9,0-1.6-0.3-2.3-1
		c-0.6-0.6-1-1.4-1-2.3v-0.1c0-0.9,0.3-1.7,1-2.3c0.6-0.6,1.4-1,2.3-1h9.6c1.3,0,2.4-0.5,3.4-1.4c0.9-0.9,1.4-2,1.4-3.4
		c0-1.7-0.9-3-2.6-3.9c-0.4-0.2-2.4-0.8-6.1-1.8c-2.6-0.8-4.5-1.8-5.8-3c-1.7-1.7-2.6-4.2-2.6-7.3c0-3.1,1.1-5.8,3.3-7.9
		c2.2-2.2,4.9-3.3,8-3.3h6.5c0.9,0,1.7,0.3,2.3,1c0.6,0.6,1,1.4,1,2.3v0.1c0,0.9-0.3,1.6-1,2.3c-0.6,0.6-1.4,1-2.3,1H1002z"/>
	<path class="st2" d="M1038.2,273.2c5.3,0,9.9,1.9,13.6,5.6s5.6,8.3,5.6,13.6c0,5.3-1.9,9.9-5.6,13.6s-8.3,5.6-13.6,5.6
		s-9.9-1.9-13.6-5.6c-3.8-3.8-5.6-8.3-5.6-13.6c0-5.3,1.9-9.9,5.6-13.6C1028.4,275.1,1032.9,273.2,1038.2,273.2z M1038.2,279.8
		c-3.5,0-6.5,1.2-9,3.7c-2.5,2.5-3.7,5.5-3.7,9c0,3.5,1.2,6.5,3.7,9c2.5,2.5,5.5,3.7,9,3.7c3.5,0,6.5-1.2,9-3.7
		c2.5-2.5,3.7-5.5,3.7-9c0-3.5-1.2-6.5-3.7-9C1044.8,281,1041.8,279.8,1038.2,279.8z"/>
	<path class="st2" d="M1073.4,279.7c-1.3,0-2.4,0.5-3.4,1.4c-0.9,0.9-1.4,2.1-1.4,3.4c0,1.8,0.9,3.2,2.6,4.1
		c0.5,0.3,2.6,0.9,6.1,1.8c2.6,0.8,4.6,1.7,5.8,2.9c1.7,1.6,2.6,4,2.6,7.2c0,3.1-1.1,5.8-3.3,8c-2.2,2.2-4.9,3.3-8,3.3h-9.2
		c-0.9,0-1.6-0.3-2.3-1c-0.6-0.6-1-1.4-1-2.3v-0.1c0-0.9,0.3-1.7,1-2.3c0.6-0.6,1.4-1,2.3-1h9.6c1.3,0,2.4-0.5,3.4-1.4
		c0.9-0.9,1.4-2,1.4-3.4c0-1.7-0.9-3-2.6-3.9c-0.4-0.2-2.4-0.8-6.1-1.8c-2.6-0.8-4.5-1.8-5.8-3c-1.7-1.7-2.6-4.2-2.6-7.3
		c0-3.1,1.1-5.8,3.3-7.9c2.2-2.2,4.9-3.3,8-3.3h6.5c0.9,0,1.7,0.3,2.3,1c0.6,0.6,1,1.4,1,2.3v0.1c0,0.9-0.3,1.6-1,2.3
		c-0.6,0.6-1.4,1-2.3,1H1073.4z"/>
</g>
<g class="st1">
	<path class="st2" d="M542,412.9c-0.9,0-1.6-0.3-2.3-1c-0.6-0.6-1-1.4-1-2.3v-30.6c0-5.3,1.9-9.8,5.7-13.6c3.7-3.7,8.3-5.6,13.6-5.6
		c5.3,0,9.9,1.9,13.6,5.6c3.8,3.8,5.6,8.3,5.6,13.6c0,5.3-1.9,9.9-5.6,13.6c-3.8,3.8-8.3,5.6-13.6,5.6c-4.9,0-9.1-1.6-12.7-4.8v16.1
		c0,0.9-0.3,1.6-1,2.3c-0.6,0.6-1.4,1-2.3,1H542z M567.1,388.1c2.5-2.5,3.7-5.5,3.7-9c0-3.5-1.2-6.5-3.7-9c-2.5-2.5-5.5-3.7-9-3.7
		c-3.5,0-6.5,1.2-9,3.7c-2.5,2.5-3.7,5.5-3.7,9c0,3.5,1.2,6.5,3.7,9c2.5,2.5,5.5,3.7,9,3.7C561.6,391.8,564.6,390.6,567.1,388.1z"/>
	<path class="st2" d="M588.1,345.4c0.9,0,1.6,0.3,2.3,0.9c0.6,0.6,1,1.4,1,2.3v46.6c0,0.9-0.3,1.6-1,2.3c-0.6,0.6-1.4,1-2.3,1H588
		c-0.9,0-1.6-0.3-2.3-1c-0.6-0.6-1-1.4-1-2.3v-46.6c0-0.9,0.3-1.7,1-2.3c0.6-0.6,1.4-0.9,2.3-0.9H588.1z"/>
	<path class="st2" d="M632.6,365.5c3.8,3.8,5.6,8.3,5.6,13.6v16.1c0,0.9-0.3,1.6-1,2.3c-0.6,0.6-1.4,1-2.3,1H635
		c-0.9,0-1.6-0.3-2.3-1c-0.6-0.6-1-1.4-1-2.3v-1.6c-3.6,3.2-7.9,4.8-12.7,4.8c-5.3,0-9.9-1.9-13.6-5.6c-3.8-3.8-5.6-8.3-5.6-13.6
		c0-5.3,1.9-9.9,5.6-13.6c3.8-3.8,8.3-5.6,13.6-5.6C624.3,359.9,628.9,361.8,632.6,365.5z M610,370.2c-2.5,2.5-3.7,5.5-3.7,9
		c0,3.5,1.2,6.5,3.7,9c2.5,2.5,5.5,3.7,9,3.7c3.5,0,6.5-1.2,9-3.7c2.5-2.5,3.7-5.5,3.7-9c0-3.5-1.2-6.5-3.7-9
		c-2.5-2.5-5.5-3.7-9-3.7C615.5,366.4,612.5,367.7,610,370.2z"/>
	<path class="st2" d="M651.9,395.2c0,0.9-0.3,1.6-1,2.3c-0.6,0.6-1.4,1-2.3,1h-0.1c-0.9,0-1.6-0.3-2.3-1c-0.6-0.6-1-1.4-1-2.3v-19.3
		c0-4.4,1.6-8.2,4.7-11.3c3.1-3.1,6.9-4.7,11.3-4.7c4.4,0,8.2,1.6,11.3,4.7c3.1,3.1,4.7,6.9,4.7,11.3v19.3c0,0.9-0.3,1.6-1,2.3
		c-0.6,0.6-1.4,1-2.3,1h-0.1c-0.9,0-1.7-0.3-2.3-1c-0.6-0.6-1-1.4-1-2.3v-19.3c0-2.6-0.9-4.8-2.8-6.7c-1.9-1.9-4.1-2.8-6.7-2.8
		c-2.6,0-4.9,0.9-6.7,2.8c-1.8,1.9-2.8,4.1-2.8,6.7V395.2z"/>
	<path class="st2" d="M702.6,359.9c5.3,0,9.9,1.9,13.6,5.6c3.8,3.8,5.6,8.3,5.6,13.6c0,5.3-1.9,9.9-5.6,13.6
		c-3.8,3.8-8.3,5.6-13.6,5.6c-5.3,0-9.9-1.9-13.6-5.6s-5.6-8.3-5.6-13.6c0-5.3,1.9-9.9,5.6-13.6S697.3,359.9,702.6,359.9z
		 M702.6,366.5c-3.5,0-6.5,1.2-9,3.7c-2.5,2.5-3.7,5.5-3.7,9c0,3.5,1.2,6.5,3.7,9c2.5,2.5,5.5,3.7,9,3.7s6.5-1.2,9-3.7
		c2.5-2.5,3.7-5.5,3.7-9c0-3.5-1.2-6.5-3.7-9C709.1,367.7,706.1,366.5,702.6,366.5z"/>
	<path class="st2" d="M737.7,366.4c-1.3,0-2.4,0.5-3.4,1.4c-0.9,0.9-1.4,2.1-1.4,3.4c0,1.8,0.9,3.2,2.6,4.1c0.5,0.3,2.6,0.9,6.1,1.8
		c2.6,0.8,4.6,1.7,5.8,2.9c1.7,1.6,2.6,4,2.6,7.2c0,3.1-1.1,5.8-3.3,8c-2.2,2.2-4.9,3.3-8,3.3h-9.2c-0.9,0-1.6-0.3-2.3-1
		c-0.6-0.6-1-1.4-1-2.3v-0.1c0-0.9,0.3-1.7,1-2.3c0.6-0.6,1.4-1,2.3-1h9.6c1.3,0,2.4-0.5,3.4-1.4c0.9-0.9,1.4-2,1.4-3.4
		c0-1.7-0.9-3-2.6-3.9c-0.4-0.2-2.4-0.8-6.1-1.8c-2.6-0.8-4.5-1.8-5.8-3c-1.7-1.7-2.6-4.2-2.6-7.3c0-3.1,1.1-5.8,3.3-7.9
		c2.2-2.2,4.9-3.3,8-3.3h6.5c0.9,0,1.7,0.3,2.3,1c0.6,0.6,1,1.4,1,2.3v0.1c0,0.9-0.3,1.6-1,2.3c-0.6,0.6-1.4,1-2.3,1H737.7z"/>
	<path class="st2" d="M810.9,371.2c0.4,0.8,0.4,1.6,0.1,2.5c-0.3,0.8-0.9,1.4-1.7,1.8c-3.3,1.5-7.6,3.4-13,5.9c-6.7,3-11,5-12.9,5.9
		c2.5,3.2,5.9,4.9,10,4.9c2.8,0,5.2-0.8,7.5-2.4c2.2-1.6,3.7-3.6,4.6-6.1c0.5-1.5,1.6-2.2,3.1-2.2c1.1,0,2,0.5,2.6,1.4
		c0.6,0.9,0.8,1.9,0.4,2.9c-1.3,3.8-3.6,6.9-6.9,9.2c-3.4,2.4-7.1,3.6-11.3,3.6c-5.3,0-9.9-1.9-13.6-5.6s-5.6-8.3-5.6-13.6
		c0-5.3,1.9-9.9,5.6-13.6s8.3-5.6,13.6-5.6c3.8,0,7.3,1,10.5,3.1C807.1,365.1,809.4,367.8,810.9,371.2z M793.4,366.5
		c-3.5,0-6.5,1.2-9,3.7c-2.5,2.5-3.7,5.5-3.7,9c0,0.6,0,1.3,0.1,1.9l22.3-10.1C800.6,368,797.4,366.5,793.4,366.5z"/>
	<path class="st2" d="M844.1,395.2c0,0.9-0.3,1.6-1,2.3c-0.6,0.6-1.4,1-2.3,1h-0.1c-0.9,0-1.6-0.3-2.3-1c-0.6-0.6-1-1.4-1-2.3v-19.4
		c0-4.4,1.6-8.1,4.7-11.3c3.1-3.1,6.9-4.7,11.3-4.7c5.2,0,9.5,2.1,12.7,6.3c3.2-4.2,7.4-6.3,12.6-6.3c4.4,0,8.2,1.6,11.3,4.7
		c3.1,3.1,4.7,6.9,4.7,11.3v19.4c0,0.9-0.3,1.6-0.9,2.3c-0.6,0.6-1.4,1-2.3,1h-0.1c-0.9,0-1.6-0.3-2.3-1c-0.6-0.6-1-1.4-1-2.3v-19.4
		c0-2.6-0.9-4.8-2.8-6.6s-4.1-2.8-6.7-2.8c-2.6,0-4.8,0.9-6.6,2.8s-2.8,4-2.8,6.6v19.4c0,0.9-0.3,1.6-1,2.3c-0.6,0.6-1.4,1-2.3,1
		h-0.1c-0.9,0-1.7-0.3-2.3-1c-0.6-0.6-1-1.4-1-2.3v-19.4c0-2.6-0.9-4.8-2.8-6.6s-4-2.8-6.6-2.8s-4.8,0.9-6.6,2.8
		c-1.8,1.8-2.8,4-2.8,6.6V395.2z"/>
	<path class="st2" d="M920,359.9c5.3,0,9.9,1.9,13.6,5.6c3.8,3.8,5.6,8.3,5.6,13.6c0,5.3-1.9,9.9-5.6,13.6
		c-3.8,3.8-8.3,5.6-13.6,5.6c-5.3,0-9.9-1.9-13.6-5.6s-5.6-8.3-5.6-13.6c0-5.3,1.9-9.9,5.6-13.6S914.7,359.9,920,359.9z M920,366.5
		c-3.5,0-6.5,1.2-9,3.7c-2.5,2.5-3.7,5.5-3.7,9c0,3.5,1.2,6.5,3.7,9c2.5,2.5,5.5,3.7,9,3.7s6.5-1.2,9-3.7c2.5-2.5,3.7-5.5,3.7-9
		c0-3.5-1.2-6.5-3.7-9C926.5,367.7,923.5,366.5,920,366.5z M929.3,348.6c0.4-0.4,0.4-0.8,0.1-1.4c-0.2-0.5-0.6-0.8-1.2-0.8h-5.4
		c-0.5,0-0.8,0.2-1.1,0.5l-6.2,8.9c-0.3,0.5-0.4,0.9-0.1,1.4c0.2,0.5,0.6,0.7,1.2,0.7h2.7c0.4,0,0.7-0.2,1.1-0.5L929.3,348.6z"/>
	<path class="st2" d="M979.5,345.4c0.9,0,1.6,0.3,2.3,0.9c0.6,0.6,1,1.4,1,2.3v30.6c0,5.3-1.9,9.8-5.7,13.5
		c-3.8,3.7-8.3,5.6-13.6,5.6c-5.3,0-9.9-1.9-13.6-5.6s-5.6-8.3-5.6-13.6c0-5.3,1.9-9.9,5.6-13.6s8.3-5.6,13.6-5.6
		c4.8,0,9.1,1.6,12.7,4.8v-16.1c0-0.9,0.3-1.7,1-2.3c0.6-0.6,1.4-0.9,2.3-0.9H979.5z M954.4,370.2c-2.5,2.5-3.7,5.5-3.7,9
		c0,3.5,1.2,6.5,3.7,9c2.5,2.5,5.5,3.7,9,3.7s6.5-1.2,9-3.7c2.5-2.5,3.7-5.5,3.7-9c0-3.5-1.2-6.5-3.7-9c-2.5-2.5-5.5-3.7-9-3.7
		S956.9,367.7,954.4,370.2z"/>
	<path class="st2" d="M996.3,382.4c0,2.6,0.9,4.8,2.8,6.7c1.9,1.8,4.1,2.8,6.7,2.8c2.6,0,4.8-0.9,6.7-2.8c1.8-1.9,2.8-4.1,2.8-6.7
		v-19.3c0-0.9,0.3-1.7,1-2.3c0.6-0.6,1.4-1,2.3-1h0.1c0.9,0,1.6,0.3,2.3,1c0.6,0.6,1,1.4,1,2.3v19.3c0,4.4-1.6,8.2-4.7,11.3
		c-3.1,3.1-6.9,4.7-11.3,4.7c-4.4,0-8.2-1.6-11.3-4.7c-3.1-3.1-4.7-6.9-4.7-11.3v-19.3c0-0.9,0.3-1.7,1-2.3c0.6-0.6,1.4-1,2.3-1h0.1
		c0.9,0,1.6,0.3,2.3,1c0.6,0.6,1,1.4,1,2.3V382.4z"/>
	<path class="st2" d="M1033.6,345.4c0.9,0,1.6,0.3,2.3,0.9c0.6,0.6,1,1.4,1,2.3v46.6c0,0.9-0.3,1.6-1,2.3c-0.6,0.6-1.4,1-2.3,1h-0.1
		c-0.9,0-1.6-0.3-2.3-1c-0.6-0.6-1-1.4-1-2.3v-46.6c0-0.9,0.3-1.7,1-2.3c0.6-0.6,1.4-0.9,2.3-0.9H1033.6z"/>
	<path class="st2" d="M1063.5,359.9c5.3,0,9.9,1.9,13.6,5.6c3.8,3.8,5.6,8.3,5.6,13.6c0,5.3-1.9,9.9-5.6,13.6
		c-3.8,3.8-8.3,5.6-13.6,5.6s-9.9-1.9-13.6-5.6c-3.8-3.8-5.6-8.3-5.6-13.6c0-5.3,1.9-9.9,5.6-13.6
		C1053.6,361.8,1058.1,359.9,1063.5,359.9z M1063.5,366.5c-3.5,0-6.5,1.2-9,3.7c-2.5,2.5-3.7,5.5-3.7,9c0,3.5,1.2,6.5,3.7,9
		c2.5,2.5,5.5,3.7,9,3.7c3.5,0,6.5-1.2,9-3.7c2.5-2.5,3.7-5.5,3.7-9c0-3.5-1.2-6.5-3.7-9C1070,367.7,1067,366.5,1063.5,366.5z"/>
	<path class="st2" d="M1098.6,366.4c-1.3,0-2.4,0.5-3.4,1.4c-0.9,0.9-1.4,2.1-1.4,3.4c0,1.8,0.9,3.2,2.6,4.1
		c0.5,0.3,2.6,0.9,6.1,1.8c2.6,0.8,4.6,1.7,5.8,2.9c1.7,1.6,2.6,4,2.6,7.2c0,3.1-1.1,5.8-3.3,8c-2.2,2.2-4.9,3.3-8,3.3h-9.2
		c-0.9,0-1.6-0.3-2.3-1c-0.6-0.6-1-1.4-1-2.3v-0.1c0-0.9,0.3-1.7,1-2.3c0.6-0.6,1.4-1,2.3-1h9.6c1.3,0,2.4-0.5,3.4-1.4
		c0.9-0.9,1.4-2,1.4-3.4c0-1.7-0.9-3-2.6-3.9c-0.4-0.2-2.4-0.8-6.1-1.8c-2.6-0.8-4.5-1.8-5.8-3c-1.7-1.7-2.6-4.2-2.6-7.3
		c0-3.1,1.1-5.8,3.3-7.9c2.2-2.2,4.9-3.3,8-3.3h6.5c0.9,0,1.7,0.3,2.3,1c0.6,0.6,1,1.4,1,2.3v0.1c0,0.9-0.3,1.6-1,2.3
		c-0.6,0.6-1.4,1-2.3,1H1098.6z"/>
</g>
<g class="st1">
	<path class="st0" d="M573.1,432.2c0.9,0,1.6,0.3,2.3,0.9c0.6,0.6,1,1.4,1,2.3v30.6c0,5.3-1.9,9.8-5.7,13.5
		c-3.8,3.7-8.3,5.6-13.6,5.6c-5.3,0-9.9-1.9-13.6-5.6c-3.8-3.8-5.6-8.3-5.6-13.6c0-5.3,1.9-9.9,5.6-13.6c3.8-3.8,8.3-5.6,13.6-5.6
		c4.8,0,9.1,1.6,12.7,4.8v-16.1c0-0.9,0.3-1.7,1-2.3c0.6-0.6,1.4-0.9,2.3-0.9H573.1z M548,457c-2.5,2.5-3.7,5.5-3.7,9
		c0,3.5,1.2,6.5,3.7,9c2.5,2.5,5.5,3.7,9,3.7c3.5,0,6.5-1.2,9-3.7c2.5-2.5,3.7-5.5,3.7-9c0-3.5-1.2-6.5-3.7-9
		c-2.5-2.5-5.5-3.7-9-3.7C553.5,453.3,550.5,454.5,548,457z"/>
	<path class="st0" d="M587.9,440c-1.1,0-2-0.4-2.8-1.1c-0.8-0.8-1.1-1.7-1.1-2.8c0-1.1,0.4-2,1.1-2.7c0.8-0.8,1.7-1.1,2.8-1.1
		c1.1,0,2,0.4,2.7,1.1c0.8,0.8,1.2,1.7,1.2,2.7c0,1.1-0.4,2-1.2,2.8C589.9,439.6,589,440,587.9,440z M588,446.7c0.9,0,1.6,0.3,2.3,1
		c0.6,0.6,1,1.4,1,2.3V482c0,0.9-0.3,1.6-1,2.3c-0.6,0.6-1.4,1-2.3,1h-0.1c-0.9,0-1.7-0.3-2.3-1c-0.6-0.6-1-1.4-1-2.3v-32.1
		c0-0.9,0.3-1.7,1-2.3C586.2,447,587,446.7,588,446.7L588,446.7z"/>
	<path class="st0" d="M609.4,453.2c-1.3,0-2.4,0.5-3.4,1.4c-0.9,0.9-1.4,2.1-1.4,3.4c0,1.8,0.9,3.2,2.6,4.1c0.5,0.3,2.6,0.9,6.1,1.8
		c2.6,0.8,4.6,1.7,5.8,2.9c1.7,1.6,2.6,4,2.6,7.2c0,3.1-1.1,5.8-3.3,8c-2.2,2.2-4.9,3.3-8,3.3h-9.2c-0.9,0-1.6-0.3-2.3-1
		c-0.6-0.6-1-1.4-1-2.3V482c0-0.9,0.3-1.7,1-2.3c0.6-0.6,1.4-1,2.3-1h9.6c1.3,0,2.4-0.5,3.4-1.4c0.9-0.9,1.4-2,1.4-3.4
		c0-1.7-0.9-3-2.6-3.9c-0.4-0.2-2.4-0.8-6.1-1.8c-2.6-0.8-4.5-1.8-5.8-3c-1.7-1.7-2.6-4.2-2.6-7.3c0-3.1,1.1-5.8,3.3-7.9
		c2.2-2.2,4.9-3.3,8-3.3h6.5c0.9,0,1.7,0.3,2.3,1c0.6,0.6,1,1.4,1,2.3v0.1c0,0.9-0.3,1.6-1,2.3c-0.6,0.6-1.4,1-2.3,1H609.4z"/>
	<path class="st0" d="M630.7,499.7c-0.9,0-1.6-0.3-2.3-1c-0.6-0.6-1-1.4-1-2.3v-30.6c0-5.3,1.9-9.8,5.7-13.6
		c3.7-3.7,8.3-5.6,13.6-5.6c5.3,0,9.9,1.9,13.6,5.6c3.8,3.8,5.6,8.3,5.6,13.6c0,5.3-1.9,9.9-5.6,13.6c-3.8,3.8-8.3,5.6-13.6,5.6
		c-4.9,0-9.1-1.6-12.7-4.8v16.1c0,0.9-0.3,1.6-1,2.3c-0.6,0.6-1.4,1-2.3,1H630.7z M655.7,474.9c2.5-2.5,3.7-5.5,3.7-9
		c0-3.5-1.2-6.5-3.7-9c-2.5-2.5-5.5-3.7-9-3.7c-3.5,0-6.5,1.2-9,3.7c-2.5,2.5-3.7,5.5-3.7,9c0,3.5,1.2,6.5,3.7,9
		c2.5,2.5,5.5,3.7,9,3.7C650.3,478.6,653.3,477.4,655.7,474.9z"/>
	<path class="st0" d="M690.2,446.7c5.3,0,9.9,1.9,13.6,5.6s5.6,8.3,5.6,13.6c0,5.3-1.9,9.9-5.6,13.6s-8.3,5.6-13.6,5.6
		s-9.9-1.9-13.6-5.6c-3.8-3.8-5.6-8.3-5.6-13.6c0-5.3,1.9-9.9,5.6-13.6C680.4,448.6,684.9,446.7,690.2,446.7z M690.2,453.3
		c-3.5,0-6.5,1.2-9,3.7c-2.5,2.5-3.7,5.5-3.7,9c0,3.5,1.2,6.5,3.7,9c2.5,2.5,5.5,3.7,9,3.7c3.5,0,6.5-1.2,9-3.7
		c2.5-2.5,3.7-5.5,3.7-9c0-3.5-1.2-6.5-3.7-9C696.7,454.5,693.7,453.3,690.2,453.3z"/>
	<path class="st0" d="M722,482c0,0.9-0.3,1.6-1,2.3c-0.6,0.6-1.4,1-2.3,1h-0.1c-0.9,0-1.6-0.3-2.3-1c-0.6-0.6-1-1.4-1-2.3v-19.3
		c0-4.4,1.6-8.2,4.7-11.3c3.1-3.1,6.9-4.7,11.3-4.7c4.4,0,8.2,1.6,11.3,4.7c3.1,3.1,4.7,6.9,4.7,11.3V482c0,0.9-0.3,1.6-1,2.3
		c-0.6,0.6-1.4,1-2.3,1h-0.1c-0.9,0-1.7-0.3-2.3-1c-0.6-0.6-1-1.4-1-2.3v-19.3c0-2.6-0.9-4.8-2.8-6.7c-1.9-1.9-4.1-2.8-6.7-2.8
		c-2.6,0-4.9,0.9-6.7,2.8c-1.8,1.9-2.8,4.1-2.8,6.7V482z"/>
	<path class="st0" d="M759.5,444.3c-0.4,0.4-0.7,0.5-1.1,0.5h-2.7c-0.6,0-1-0.2-1.2-0.7c-0.2-0.5-0.2-0.9,0.1-1.4l6.2-8.9
		c0.2-0.4,0.6-0.5,1.1-0.5h5.4c0.6,0,1,0.3,1.2,0.8c0.3,0.6,0.3,1-0.1,1.4L759.5,444.3z M759.2,446.7c0.9,0,1.6,0.3,2.3,1
		c0.6,0.6,1,1.4,1,2.3V482c0,0.9-0.3,1.6-1,2.3c-0.6,0.6-1.4,1-2.3,1h-0.1c-0.9,0-1.7-0.3-2.3-1c-0.6-0.6-1-1.4-1-2.3v-32.1
		c0-0.9,0.3-1.7,1-2.3C757.4,447,758.2,446.7,759.2,446.7L759.2,446.7z"/>
	<path class="st0" d="M786,476.2c0,0,0,0.1,0.1,0.3c0.1,0.4,0.3,0.4,0.5,0l0.1-0.2l11.8-27.6c0.6-1.3,1.6-2,3-2h0.1
		c1.2,0,2,0.5,2.7,1.4c0.6,1,0.7,2,0.3,3l-13.1,30.6c-0.9,2.3-2.6,3.4-5,3.4c-2.5,0-4.2-1.1-5-3.4l-13.1-30.6
		c-0.4-1.1-0.4-2.1,0.3-3c0.6-1,1.5-1.4,2.7-1.4h0.1c1.4,0,2.4,0.7,2.9,2C779.9,461.8,783.8,471,786,476.2z"/>
	<path class="st0" d="M844.8,458c0.4,0.8,0.4,1.6,0.1,2.5c-0.3,0.8-0.9,1.4-1.7,1.8c-3.3,1.5-7.6,3.4-13,5.9c-6.7,3-11,5-12.9,5.9
		c2.5,3.2,5.9,4.9,10,4.9c2.8,0,5.2-0.8,7.5-2.4c2.2-1.6,3.7-3.6,4.6-6.1c0.5-1.5,1.6-2.2,3.1-2.2c1.1,0,2,0.5,2.6,1.4
		c0.6,0.9,0.8,1.9,0.4,2.9c-1.3,3.8-3.6,6.9-6.9,9.2c-3.4,2.4-7.1,3.6-11.3,3.6c-5.3,0-9.9-1.9-13.6-5.6c-3.8-3.8-5.6-8.3-5.6-13.6
		c0-5.3,1.9-9.9,5.6-13.6c3.8-3.8,8.3-5.6,13.6-5.6c3.8,0,7.3,1,10.5,3.1C841,451.9,843.3,454.6,844.8,458z M827.3,453.3
		c-3.5,0-6.5,1.2-9,3.7c-2.5,2.5-3.7,5.5-3.7,9c0,0.6,0,1.3,0.1,1.9l22.3-10.1C834.5,454.8,831.3,453.3,827.3,453.3z"/>
	<path class="st0" d="M856.7,440c-1.1,0-2-0.4-2.8-1.1c-0.8-0.8-1.1-1.7-1.1-2.8c0-1.1,0.4-2,1.1-2.7c0.8-0.8,1.7-1.1,2.8-1.1
		c1.1,0,2,0.4,2.7,1.1c0.8,0.8,1.2,1.7,1.2,2.7c0,1.1-0.4,2-1.2,2.8C858.6,439.6,857.7,440,856.7,440z M856.7,446.7
		c0.9,0,1.6,0.3,2.3,1c0.6,0.6,1,1.4,1,2.3V482c0,0.9-0.3,1.6-1,2.3c-0.6,0.6-1.4,1-2.3,1h-0.1c-0.9,0-1.7-0.3-2.3-1
		c-0.6-0.6-1-1.4-1-2.3v-32.1c0-0.9,0.3-1.7,1-2.3C855,447,855.7,446.7,856.7,446.7L856.7,446.7z"/>
	<path class="st0" d="M878.2,453.2c-1.3,0-2.4,0.5-3.4,1.4c-0.9,0.9-1.4,2.1-1.4,3.4c0,1.8,0.9,3.2,2.6,4.1c0.5,0.3,2.6,0.9,6.1,1.8
		c2.6,0.8,4.6,1.7,5.8,2.9c1.7,1.6,2.6,4,2.6,7.2c0,3.1-1.1,5.8-3.3,8c-2.2,2.2-4.9,3.3-8,3.3h-9.2c-0.9,0-1.6-0.3-2.3-1
		c-0.6-0.6-1-1.4-1-2.3V482c0-0.9,0.3-1.7,1-2.3c0.6-0.6,1.4-1,2.3-1h9.6c1.3,0,2.4-0.5,3.4-1.4c0.9-0.9,1.4-2,1.4-3.4
		c0-1.7-0.9-3-2.6-3.9c-0.4-0.2-2.4-0.8-6.1-1.8c-2.6-0.8-4.5-1.8-5.8-3c-1.7-1.7-2.6-4.2-2.6-7.3c0-3.1,1.1-5.8,3.3-7.9
		c2.2-2.2,4.9-3.3,8-3.3h6.5c0.9,0,1.7,0.3,2.3,1c0.6,0.6,1,1.4,1,2.3v0.1c0,0.9-0.3,1.6-1,2.3c-0.6,0.6-1.4,1-2.3,1H878.2z"/>
</g>
</svg>
