<?xml version="1.0" encoding="utf-8"?>
<!-- Generator: Adobe Illustrator 24.2.3, SVG Export Plug-In . SVG Version: 6.00 Build 0)  -->
<svg version="1.1" id="Camada_1" xmlns="http://www.w3.org/2000/svg" xmlns:xlink="http://www.w3.org/1999/xlink" x="0px" y="0px"
	 viewBox="0 0 1366 768" style="enable-background:new 0 0 1366 768;" xml:space="preserve">
<style type="text/css">
	.st0{fill:#233863;}
	.st1{fill:#2F4770;}
	.st2{fill:#FFFFFF;}
	.st3{fill:#FFB44F;}
	.st4{fill:#5A6F8E;}
	.st5{fill:#3AAED5;}
	.st6{fill:#3D85FD;}
	.st7{opacity:0.11;}
	.st8{fill:none;}
	.st9{fill:#233863;stroke:#FFFFFF;stroke-width:2;stroke-miterlimit:10;}
	.st10{fill:none;stroke:#233863;stroke-width:3;stroke-linecap:round;stroke-miterlimit:10;}
	.st11{opacity:0.36;fill:#233863;enable-background:new    ;}
	.st12{fill:#0099FF;}
	.st13{fill:#2F6180;}
</style>
<g>
	<g>
		<path class="st0" d="M341.3,646.1l2.1,0.6c2.9,0.9,6-0.7,6.8-3.6l47.8-153c0.9-2.9-0.7-6-3.6-6.8l-2.1-0.6c-2.9-0.9-6,0.7-6.8,3.6
			l-47.8,153C336.9,642.2,338.5,645.2,341.3,646.1z"/>
		<path class="st0" d="M345.1,648c-0.6,0-1.3-0.1-1.9-0.3l-2.1-0.6l0,0c-1.6-0.5-2.9-1.6-3.8-3.2c-0.8-1.5-0.9-3.3-0.5-4.9l47.8-153
			c0.5-1.6,1.6-2.9,3.2-3.8c1.5-0.8,3.3-0.9,4.9-0.5l2.1,0.6c3.4,1.1,5.3,4.6,4.3,8l-47.8,153c-0.5,1.6-1.6,2.9-3.2,3.8
			C347.2,647.8,346.1,648,345.1,648z"/>
	</g>
	<g>
		<path class="st1" d="M423.6,681.9l-70.7-22.1c-7.7-2.4-11.9-10.5-9.5-18.1l47.4-151.9c2.4-7.7,10.5-11.9,18.1-9.5l70.7,22.1
			c7.7,2.4,11.9,10.5,9.5,18.1l-47.4,151.9C439.3,680,431.2,684.3,423.6,681.9z"/>
		<path class="st0" d="M427.9,683.5c-1.5,0-3.1-0.2-4.6-0.7l0,0l-70.7-22.1c-3.9-1.2-7.1-3.9-9.1-7.6c-1.9-3.6-2.3-7.8-1.1-11.8
			l47.4-151.9c2.6-8.1,11.2-12.7,19.3-10.1l70.7,22.1c8.1,2.6,12.7,11.2,10.1,19.3l-47.4,151.9C440.6,679.3,434.5,683.5,427.9,683.5
			z M423.9,681c3.4,1.1,7.1,0.8,10.3-0.9c3.2-1.7,5.6-4.5,6.7-8l47.4-151.9c2.2-7.1-1.8-14.7-8.9-17l-70.7-22.1
			c-7.1-2.2-14.7,1.8-17,8.9L344.3,642c-1.1,3.5-0.8,7.1,0.9,10.3c1.7,3.2,4.5,5.6,8,6.7L423.9,681z"/>
	</g>
	<g>
		
			<rect x="398.1" y="494.5" transform="matrix(0.298 -0.9546 0.9546 0.298 -211.5916 787.7532)" class="st2" width="63.4" height="86.5"/>
		<path class="st0" d="M461.6,581.8c-0.1,0-0.2,0-0.3-0.1L378.7,556c-0.2-0.1-0.5-0.2-0.5-0.5c-0.2-0.2-0.2-0.5-0.1-0.8l18.9-60.5
			c0.1-0.2,0.2-0.5,0.5-0.5c0.2-0.2,0.5-0.2,0.8-0.1l82.6,25.8c0.2,0.1,0.5,0.2,0.5,0.5c0.2,0.2,0.2,0.5,0.1,0.8l-18.9,60.5
			C462.4,581.6,462.1,581.8,461.6,581.8z M380.3,554.4l80.7,25.2l18.3-58.7l-80.7-25.2L380.3,554.4z"/>
	</g>
	<path class="st2" d="M470.6,509.1c-0.1,0-0.2,0-0.2,0l-57.7-18c-0.3-0.1-0.5-0.5-0.4-0.8c0.1-0.3,0.5-0.5,0.8-0.4l57.7,18
		c0.3,0.1,0.5,0.5,0.4,0.8C471.1,508.8,470.8,509.1,470.6,509.1z"/>
	<g>
		<path class="st3" d="M412.7,510.8l-12.8-4c-0.4-0.2-0.6-0.5-0.5-0.9l0.8-2.4c0.2-0.4,0.5-0.6,0.9-0.5l12.8,4
			c0.4,0.2,0.6,0.5,0.5,0.9l-0.8,2.4C413.5,510.6,413.1,510.8,412.7,510.8z"/>
		<path class="st0" d="M412.9,511.4c-0.2,0-0.3,0-0.4-0.1l0,0l-12.8-4c-0.8-0.2-1.2-1-0.9-1.8l0.8-2.4c0.1-0.4,0.4-0.6,0.7-0.9
			c0.3-0.2,0.7-0.2,1.1-0.1l12.8,4c0.4,0.1,0.6,0.4,0.9,0.7c0.2,0.3,0.2,0.7,0.1,1.1l-0.8,2.4c-0.1,0.4-0.4,0.6-0.7,0.9
			C413.3,511.4,413.2,511.4,412.9,511.4z M412.9,510.2c0.1,0,0.2,0,0.2-0.1l0.8-2.4c0-0.1,0-0.2-0.1-0.2l-12.8-4
			c-0.1,0-0.2,0-0.2,0.1l-0.8,2.4c0,0.1,0,0.2,0.1,0.2L412.9,510.2z"/>
	</g>
	<g>
		<path class="st3" d="M431.8,516.7l-12.8-4c-0.4-0.2-0.6-0.5-0.5-0.9l0.8-2.4c0.2-0.4,0.5-0.6,0.9-0.5l12.8,4
			c0.4,0.2,0.6,0.5,0.5,0.9l-0.8,2.4C432.6,516.6,432.2,516.8,431.8,516.7z"/>
		<path class="st0" d="M432,517.3c-0.2,0-0.3,0-0.4-0.1l0,0l-12.8-4c-0.8-0.2-1.2-1-0.9-1.8l0.8-2.4c0.2-0.8,1-1.2,1.8-0.9l12.8,4
			c0.4,0.1,0.6,0.4,0.9,0.7c0.2,0.3,0.2,0.7,0.1,1.1l-0.8,2.4c-0.1,0.4-0.4,0.6-0.7,0.9C432.4,517.3,432.2,517.3,432,517.3z
			 M432,516.1c0.1,0,0.2,0,0.2-0.1l0.8-2.4c0-0.1,0-0.2-0.1-0.2l-12.8-4c-0.1,0-0.2,0-0.2,0.1l-0.8,2.4c0,0.1,0,0.2,0.1,0.2
			L432,516.1z"/>
	</g>
	<g>
		<path class="st3" d="M452.3,523.1l-12.8-4c-0.4-0.2-0.6-0.5-0.5-0.9l0.8-2.4c0.2-0.4,0.5-0.6,0.9-0.5l12.8,4
			c0.4,0.2,0.6,0.5,0.5,0.9l-0.8,2.4C453.2,523,452.7,523.2,452.3,523.1z"/>
		<path class="st0" d="M452.6,523.8c-0.2,0-0.3,0-0.4-0.1l0,0l-12.8-4c-0.8-0.2-1.2-1-0.9-1.8l0.8-2.4c0.1-0.4,0.4-0.6,0.7-0.9
			c0.3-0.2,0.7-0.2,1.1-0.1l12.8,4c0.8,0.2,1.2,1,0.9,1.8l-0.8,2.4C453.7,523.4,453.2,523.8,452.6,523.8z M452.5,522.5
			c0.1,0,0.2,0,0.2-0.1l0.8-2.4c0-0.1,0-0.2-0.1-0.2l-12.8-4c-0.1,0-0.2,0-0.2,0.1l-0.8,2.4c0,0.1,0,0.2,0.1,0.2L452.5,522.5z"/>
	</g>
	<g>
		<path class="st3" d="M471.7,529.1l-12.8-4c-0.4-0.2-0.6-0.5-0.5-0.9l0.8-2.4c0.2-0.4,0.5-0.6,0.9-0.5l12.8,4
			c0.4,0.2,0.6,0.5,0.5,0.9l-0.8,2.4C472.5,529,472.1,529.3,471.7,529.1z"/>
		<path class="st0" d="M471.9,529.8c-0.2,0-0.3,0-0.4-0.1l0,0l-12.8-4c-0.4-0.1-0.6-0.4-0.9-0.7c-0.2-0.3-0.2-0.7-0.1-1.1l0.8-2.4
			c0.2-0.8,1-1.2,1.8-0.9l12.8,4c0.8,0.2,1.2,1,0.9,1.8l-0.8,2.4c-0.1,0.4-0.4,0.6-0.7,0.9C472.4,529.8,472.2,529.8,471.9,529.8z
			 M471.8,528.6c0.1,0,0.2,0,0.2-0.1l0.8-2.4c0-0.1,0-0.2-0.1-0.2l-12.8-4c-0.1,0-0.2,0-0.2,0.1l-0.8,2.4c0,0.1,0,0.2,0.1,0.2
			L471.8,528.6z"/>
	</g>
	<g>
		
			<rect x="409.1" y="537.1" transform="matrix(0.298 -0.9546 0.9546 0.298 -260.2443 804.4969)" class="st0" width="15.6" height="84.1"/>
		<path class="st0" d="M454.7,600.2c-0.1,0-0.2,0-0.3-0.1l-80.3-25c-0.5-0.2-0.8-0.7-0.6-1.2L378,559c0.1-0.2,0.2-0.5,0.5-0.5
			c0.2-0.2,0.5-0.2,0.8-0.1l80.3,25.1c0.5,0.2,0.8,0.7,0.6,1.2l-4.6,14.9c-0.1,0.2-0.2,0.5-0.5,0.5
			C455,600.2,454.8,600.2,454.7,600.2z M375.6,573.5l78.5,24.5l4.1-13l-78.5-24.5L375.6,573.5z"/>
	</g>
	<path class="st2" d="M401.3,578c-0.2,0-0.3,0-0.5-0.1l-14.2-4.4c-0.9-0.2-1.3-1.2-1.1-2l1.2-3.9c0.2-0.4,0.4-0.8,0.8-0.9
		c0.4-0.2,0.9-0.2,1.2-0.1L403,571c0.4,0.2,0.8,0.4,0.9,0.8c0.2,0.4,0.2,0.9,0.1,1.2l-1.2,3.9C402.6,577.6,402,578,401.3,578z
		 M401.1,577.3c0.5,0.2,1.1-0.2,1.2-0.6l1.2-3.9c0.1-0.2,0.1-0.5-0.1-0.8s-0.3-0.4-0.5-0.5l-14.2-4.4c-0.2-0.1-0.5-0.1-0.8,0.1
		c-0.2,0.2-0.4,0.3-0.5,0.5l-1.2,3.9c-0.2,0.5,0.2,1.1,0.6,1.2L401.1,577.3z"/>
	<path class="st2" d="M423.4,584.9c-0.2,0-0.3,0-0.5-0.1l-14.2-4.4c-0.4-0.2-0.8-0.4-0.9-0.8c-0.2-0.4-0.2-0.9-0.1-1.2l1.2-3.9
		c0.2-0.4,0.4-0.8,0.8-0.9c0.4-0.2,0.9-0.2,1.2-0.1l14.2,4.4c0.4,0.2,0.8,0.4,0.9,0.8c0.2,0.4,0.2,0.9,0.1,1.2l-1.2,3.9
		c-0.2,0.4-0.4,0.8-0.8,0.9C423.9,584.8,423.6,584.9,423.4,584.9z M423.1,584.2c0.2,0.1,0.5,0.1,0.8-0.1c0.2-0.2,0.4-0.3,0.5-0.5
		l1.2-3.9c0.1-0.2,0.1-0.5-0.1-0.8c-0.2-0.2-0.3-0.4-0.5-0.5l-14.2-4.4c-0.2-0.1-0.5-0.1-0.8,0.1c-0.2,0.2-0.4,0.3-0.5,0.5l-1.2,3.9
		c-0.1,0.2-0.1,0.5,0.1,0.8c0.2,0.2,0.3,0.4,0.5,0.5L423.1,584.2z"/>
	<path class="st2" d="M445.7,591.9c-0.2,0-0.3,0-0.5-0.1l-14.2-4.4c-0.9-0.2-1.3-1.2-1.1-2l1.2-3.9c0.2-0.4,0.4-0.8,0.8-0.9
		c0.4-0.2,0.9-0.2,1.2-0.1l14.2,4.4c0.4,0.2,0.8,0.4,0.9,0.8c0.2,0.4,0.2,0.9,0.1,1.2l-1.2,3.9c-0.2,0.4-0.4,0.8-0.8,0.9
		C446.1,591.8,445.9,591.9,445.7,591.9z M445.4,591.2c0.2,0.1,0.5,0.1,0.8-0.1s0.4-0.3,0.5-0.5l1.2-3.9c0.1-0.2,0.1-0.5-0.1-0.8
		c-0.2-0.2-0.3-0.4-0.5-0.5L433,581c-0.2-0.1-0.5-0.1-0.8,0.1c-0.2,0.2-0.4,0.3-0.5,0.5l-1.2,3.9c-0.2,0.5,0.2,1.1,0.6,1.2
		L445.4,591.2z"/>
	<g>
		<path class="st4" d="M383.7,605l-10.2-3.2c-2.9-0.9-4.5-3.9-3.6-6.8l1.9-6c0.9-2.9,3.9-4.5,6.8-3.6l10.2,3.2
			c2.9,0.9,4.5,3.9,3.6,6.8l-1.9,6C389.6,604.3,386.5,606,383.7,605z"/>
		<path class="st0" d="M385.3,606.3c-0.6,0-1.3-0.1-1.9-0.3l-10.2-3.2c-3.4-1.1-5.3-4.6-4.3-8l1.9-6c1.1-3.4,4.6-5.3,8-4.3l10.2,3.2
			c3.4,1.1,5.3,4.6,4.3,8l-1.9,6c-0.5,1.6-1.6,2.9-3.2,3.8C387.4,606,386.4,606.3,385.3,606.3z M377,586.2c-1.9,0-3.7,1.2-4.3,3.2
			l-1.9,6c-0.8,2.4,0.6,4.9,2.9,5.7l10.2,3.2l0,0c1.2,0.4,2.3,0.2,3.4-0.3c1.1-0.5,1.9-1.5,2.2-2.6l1.9-6c0.8-2.4-0.6-4.9-2.9-5.7
			l-10.2-3.2C377.9,586.3,377.4,586.2,377,586.2z"/>
	</g>
	<g>
		<path class="st4" d="M411.6,613.8l-10.2-3.2c-2.9-0.9-4.5-3.9-3.6-6.8l1.9-6c0.9-2.9,3.9-4.5,6.8-3.6l10.2,3.2
			c2.9,0.9,4.5,3.9,3.6,6.8l-1.9,6C417.6,613.1,414.5,614.6,411.6,613.8z"/>
		<path class="st0" d="M413.3,615c-0.6,0-1.3-0.1-1.9-0.3l0,0l-10.2-3.2c-3.4-1.1-5.3-4.6-4.3-8l1.9-6c0.5-1.6,1.6-2.9,3.2-3.8
			c1.5-0.8,3.3-0.9,4.9-0.5l10.2,3.2c3.4,1.1,5.3,4.6,4.3,8l-1.9,6c-0.5,1.6-1.6,2.9-3.2,3.8C415.3,614.7,414.3,615,413.3,615z
			 M411.9,612.9c1.2,0.4,2.3,0.2,3.4-0.3c1.1-0.5,1.9-1.5,2.2-2.6l1.9-6c0.4-1.2,0.2-2.3-0.3-3.4c-0.5-1.1-1.5-1.9-2.6-2.2
			l-10.2-3.2c-1.2-0.4-2.3-0.2-3.4,0.3s-1.9,1.5-2.2,2.6l-1.9,6c-0.4,1.2-0.2,2.3,0.3,3.4c0.5,1.1,1.5,1.9,2.6,2.2L411.9,612.9z"/>
	</g>
	<g>
		<path class="st4" d="M439.2,622.4l-10.2-3.2c-2.9-0.9-4.5-3.9-3.6-6.8l1.9-6c0.9-2.9,3.9-4.5,6.8-3.6l10.2,3.2
			c2.9,0.9,4.5,3.9,3.6,6.8l-1.9,6C445.1,621.7,442,623.2,439.2,622.4z"/>
		<path class="st0" d="M440.8,623.6c-0.6,0-1.2-0.1-1.9-0.3l-10.2-3.2c-3.4-1.1-5.3-4.6-4.3-8l1.9-6c0.5-1.6,1.6-2.9,3.2-3.8
			c1.5-0.8,3.3-0.9,4.9-0.5l10.2,3.2c3.4,1.1,5.3,4.6,4.3,8l-1.9,6C446.1,621.8,443.5,623.6,440.8,623.6z M432.4,603.6
			c-0.7,0-1.5,0.2-2.1,0.5c-1.1,0.5-1.9,1.5-2.2,2.6l-1.9,6c-0.8,2.4,0.6,4.9,2.9,5.7l10.2,3.2l0,0c2.4,0.8,4.9-0.6,5.7-2.9l1.9-6
			c0.8-2.4-0.6-4.9-2.9-5.7l-10.2-3.2C433.3,603.6,432.9,603.6,432.4,603.6z"/>
	</g>
	<g>
		<path class="st4" d="M376.9,626.9l-10.2-3.2c-2.9-0.9-4.5-3.9-3.6-6.8l1.9-6c0.9-2.9,3.9-4.5,6.8-3.6l10.2,3.2
			c2.9,0.9,4.5,3.9,3.6,6.8l-1.9,6C382.8,626.2,379.7,627.8,376.9,626.9z"/>
		<path class="st0" d="M378.5,628.2c-0.6,0-1.2-0.1-1.9-0.3l0,0l-10.2-3.2c-1.6-0.5-2.9-1.6-3.8-3.2c-0.8-1.5-0.9-3.3-0.5-4.9l1.9-6
			c1.1-3.4,4.6-5.3,8-4.3l10.2,3.2c1.6,0.5,2.9,1.6,3.8,3.2c0.8,1.5,0.9,3.3,0.5,4.9l-1.9,6C383.8,626.4,381.3,628.2,378.5,628.2z
			 M377.2,626c2.4,0.8,4.9-0.6,5.7-2.9l1.9-6c0.4-1.2,0.2-2.3-0.3-3.4c-0.5-1.1-1.5-1.9-2.6-2.2l-10.2-3.2c-1.2-0.4-2.3-0.2-3.4,0.3
			s-1.9,1.5-2.2,2.6l-1.9,6c-0.4,1.2-0.2,2.3,0.3,3.4c0.5,1.1,1.5,1.9,2.6,2.2L377.2,626z"/>
	</g>
	<g>
		<path class="st4" d="M404.8,635.7l-10.2-3.2c-2.9-0.9-4.5-3.9-3.6-6.8l1.9-6c0.9-2.9,3.9-4.5,6.8-3.6l10.2,3.2
			c2.9,0.9,4.5,3.9,3.6,6.8l-1.9,6C410.8,634.9,407.7,636.5,404.8,635.7z"/>
		<path class="st0" d="M406.4,636.9c-0.6,0-1.2-0.1-1.9-0.3l0,0l-10.2-3.2c-1.6-0.5-2.9-1.6-3.8-3.2c-0.8-1.5-0.9-3.3-0.5-4.9l1.9-6
			c1.1-3.4,4.6-5.3,8-4.3l10.2,3.2c1.6,0.5,2.9,1.6,3.8,3.2c0.8,1.5,0.9,3.3,0.5,4.9l-1.9,6C411.7,635.1,409.2,636.9,406.4,636.9z
			 M405.1,634.8c2.4,0.8,4.9-0.6,5.7-2.9l1.9-6c0.4-1.2,0.2-2.3-0.3-3.4s-1.5-1.9-2.6-2.2l-10.2-3.2c-2.4-0.8-4.9,0.6-5.7,2.9
			l-1.9,6c-0.4,1.2-0.2,2.3,0.3,3.4c0.5,1.1,1.5,1.9,2.6,2.2L405.1,634.8z"/>
	</g>
	<g>
		<path class="st4" d="M432.4,644.3l-10.2-3.2c-2.9-0.9-4.5-3.9-3.6-6.8l1.9-6c0.9-2.9,3.9-4.5,6.8-3.6l10.2,3.2
			c2.9,0.9,4.5,3.9,3.6,6.8l-1.9,6C438.3,643.5,435.2,645.1,432.4,644.3z"/>
		<path class="st0" d="M434,645.4c-0.6,0-1.2-0.1-1.9-0.3l0,0l-10.2-3.2c-3.4-1.1-5.3-4.6-4.3-8l1.9-6c1.1-3.4,4.6-5.3,8-4.3
			l10.2,3.2c1.6,0.5,2.9,1.6,3.8,3.2c0.8,1.5,0.9,3.3,0.5,4.9l-1.9,6C439.3,643.7,436.7,645.4,434,645.4z M432.6,643.4
			c2.4,0.8,4.9-0.6,5.7-2.9l1.9-6c0.4-1.2,0.2-2.3-0.3-3.4c-0.5-1.1-1.5-1.9-2.6-2.2l-10.2-3.2c-1.2-0.4-2.3-0.2-3.4,0.3
			c-1.1,0.5-1.9,1.5-2.2,2.6l-1.9,6c-0.8,2.4,0.6,4.9,2.9,5.7L432.6,643.4z"/>
	</g>
	<g>
		<path class="st5" d="M370.1,648.8l-10.2-3.2c-2.9-0.9-4.5-3.9-3.6-6.8l1.9-6c0.9-2.9,3.9-4.5,6.8-3.6l10.2,3.2
			c2.9,0.9,4.5,3.9,3.6,6.8l-1.9,6C376,648.1,372.9,649.7,370.1,648.8z"/>
		<path class="st0" d="M371.7,650c-0.6,0-1.3-0.1-1.9-0.3l0,0l-10.2-3.2c-1.6-0.5-2.9-1.6-3.8-3.2c-0.8-1.5-0.9-3.3-0.5-4.9l1.9-6
			c0.5-1.6,1.6-2.9,3.2-3.8c1.5-0.8,3.3-0.9,4.9-0.5l10.2,3.2c3.4,1.1,5.3,4.6,4.3,8l-1.9,6c-0.5,1.6-1.6,2.9-3.2,3.8
			C373.7,649.8,372.7,650,371.7,650z M370.4,647.9c1.2,0.4,2.3,0.2,3.4-0.3c1.1-0.5,1.9-1.5,2.2-2.6l1.9-6c0.4-1.2,0.2-2.3-0.3-3.4
			c-0.5-1.1-1.5-1.9-2.6-2.2l-10.2-3.2c-1.2-0.4-2.3-0.2-3.4,0.3c-1.1,0.5-1.9,1.5-2.2,2.6l-1.9,6c-0.4,1.2-0.2,2.3,0.3,3.4
			c0.5,1.1,1.5,1.9,2.6,2.2L370.4,647.9z"/>
	</g>
	<g>
		<path class="st3" d="M398,657.5l-10.2-3.2c-2.9-0.9-4.5-3.9-3.6-6.8l1.9-6c0.9-2.9,3.9-4.5,6.8-3.6l10.2,3.2
			c2.9,0.9,4.5,3.9,3.6,6.8l-1.9,6C404,656.8,400.9,658.4,398,657.5z"/>
		<path class="st0" d="M399.6,658.8c-0.6,0-1.3-0.1-1.9-0.3l-10.2-3.2c-1.6-0.5-2.9-1.6-3.8-3.2c-0.8-1.5-0.9-3.3-0.5-4.9l1.9-6
			c0.5-1.6,1.6-2.9,3.2-3.8c1.5-0.8,3.3-0.9,4.9-0.5l10.2,3.2c3.4,1.1,5.3,4.6,4.3,8l-1.9,6c-0.5,1.6-1.6,2.9-3.2,3.8
			C401.6,658.5,400.6,658.8,399.6,658.8z M391.3,638.7c-0.7,0-1.5,0.2-2.1,0.5c-1.1,0.5-1.9,1.5-2.2,2.6l-1.9,6
			c-0.4,1.2-0.2,2.3,0.3,3.4c0.5,1.1,1.5,1.9,2.6,2.2l10.2,3.2l0,0c1.2,0.4,2.3,0.2,3.4-0.3s1.9-1.5,2.2-2.6l1.9-6
			c0.8-2.4-0.6-4.9-2.9-5.7l-10.2-3.2C392.1,638.8,391.7,638.7,391.3,638.7z"/>
	</g>
	<g>
		<path class="st6" d="M425.5,666.1l-10.2-3.2c-2.9-0.9-4.5-3.9-3.6-6.8l1.9-6c0.9-2.9,3.9-4.5,6.8-3.6l10.2,3.2
			c2.9,0.9,4.5,3.9,3.6,6.8l-1.9,6C431.4,665.4,428.3,667,425.5,666.1z"/>
		<path class="st0" d="M427.1,667.3c-0.6,0-1.3-0.1-1.9-0.3l0,0l-10.2-3.2c-1.6-0.5-2.9-1.6-3.8-3.2c-0.8-1.5-0.9-3.3-0.5-4.9l1.9-6
			c0.5-1.6,1.6-2.9,3.2-3.8c1.5-0.8,3.3-0.9,4.9-0.5l10.2,3.2c1.6,0.5,2.9,1.6,3.8,3.2c0.8,1.5,0.9,3.3,0.5,4.9l-1.9,6
			c-0.5,1.6-1.6,2.9-3.2,3.8C429.2,667.1,428.2,667.3,427.1,667.3z M425.8,665.2c1.2,0.4,2.3,0.2,3.4-0.3s1.9-1.5,2.2-2.6l1.9-6
			c0.4-1.2,0.2-2.3-0.3-3.4c-0.5-1.1-1.5-1.9-2.6-2.2l-10.2-3.2c-1.2-0.4-2.3-0.2-3.4,0.3c-1.1,0.5-1.9,1.5-2.2,2.6l-1.9,6
			c-0.4,1.2-0.2,2.3,0.3,3.4s1.5,1.9,2.6,2.2L425.8,665.2z"/>
	</g>
	<g>
		<path class="st0" d="M422.5,685.2l-70.6-22.1c-2.2-0.7-3.6-3.2-2.9-5.4l0,0c0.7-2.2,3.2-3.6,5.4-2.9l70.6,22.1
			c2.2,0.7,3.6,3.2,2.9,5.4l0,0C427.2,684.7,424.8,686,422.5,685.2z"/>
		<path class="st0" d="M423.8,686.4c-0.5,0-1.1-0.1-1.5-0.2l0,0l-70.7-22.1c-2.8-0.9-4.3-3.9-3.5-6.7c0.9-2.8,3.9-4.3,6.7-3.5
			l70.6,22.1c1.3,0.4,2.5,1.3,3.1,2.6c0.7,1.2,0.8,2.7,0.4,4C428.1,685,426,686.4,423.8,686.4z M422.8,684.3
			c1.8,0.5,3.6-0.5,4.3-2.2c0.2-0.9,0.2-1.8-0.2-2.6s-1.1-1.4-2-1.6l-70.6-22.1c-1.8-0.5-3.6,0.5-4.3,2.2c-0.5,1.8,0.5,3.6,2.2,4.3
			L422.8,684.3z"/>
	</g>
	<path class="st2" d="M421.4,651.3c0,0.9-0.7,1.5-1.5,1.5c-0.9,0-1.5-0.7-1.5-1.5c0-0.9,0.7-1.5,1.5-1.5
		C420.7,649.9,421.4,650.5,421.4,651.3z"/>
	<path class="st2" d="M393.8,643c0,0.9-0.7,1.5-1.5,1.5c-0.9,0-1.5-0.7-1.5-1.5c0-0.9,0.7-1.5,1.5-1.5
		C393.1,641.4,393.8,642.1,393.8,643z"/>
	<path class="st2" d="M365,633.8c0,0.9-0.7,1.5-1.5,1.5c-0.9,0-1.5-0.7-1.5-1.5s0.7-1.5,1.5-1.5C364.3,632.2,365,632.9,365,633.8z"
		/>
	<path class="st2" d="M428.7,662.5c0,0.5-0.4,0.8-0.8,0.8c-0.5,0-0.8-0.4-0.8-0.8c0-0.5,0.4-0.8,0.8-0.8
		C428.4,661.8,428.7,662.1,428.7,662.5z"/>
	<path class="st0" d="M433.5,606.4c0,0.5-0.5,1-1,1s-1-0.5-1-1s0.5-1,1-1S433.5,605.7,433.5,606.4z"/>
	<path class="st0" d="M426.2,629.3c0,0.5-0.5,1-1,1c-0.5,0-1-0.5-1-1s0.5-1,1-1C425.7,628.3,426.2,628.7,426.2,629.3z"/>
	<g>
		<path class="st1" d="M458.8,569.6c0,1.5-1.2,2.7-2.7,2.7s-2.7-1.2-2.7-2.7c0-1.5,1.2-2.7,2.7-2.7
			C457.6,566.9,458.8,568.1,458.8,569.6z"/>
		<path class="st0" d="M456.1,573.2c-2,0-3.6-1.6-3.6-3.6s1.6-3.6,3.6-3.6c2,0,3.6,1.6,3.6,3.6C459.8,571.6,458.1,573.2,456.1,573.2
			z M456.1,567.9c-0.9,0-1.7,0.8-1.7,1.7c0,0.9,0.8,1.7,1.7,1.7c0.9,0,1.7-0.8,1.7-1.7C457.8,568.7,457.1,567.9,456.1,567.9z"/>
	</g>
</g>
<g>
	<g>
		<g>
			<circle class="st0" cx="304.3" cy="655.5" r="32.4"/>
		</g>
		<g>
			<g>
				<ellipse class="st0" cx="301.1" cy="653.8" rx="32.4" ry="32.4"/>
				<g>
					<ellipse class="st3" cx="301.1" cy="653.8" rx="32.4" ry="32.4"/>
					<path class="st0" d="M301.1,687.1c-18.3,0-33.3-14.9-33.3-33.3s14.9-33.3,33.3-33.3s33.3,14.9,33.3,33.3
						S319.5,687.1,301.1,687.1z M301.1,622.4c-17.3,0-31.4,14.1-31.4,31.4c0,17.3,14.1,31.4,31.4,31.4c17.3,0,31.4-14.1,31.4-31.4
						S318.4,622.4,301.1,622.4z"/>
				</g>
				<path class="st2" d="M301.1,680.4c-14.7,0-26.7-12-26.7-26.7c0-14.7,12-26.7,26.7-26.7s26.7,12,26.7,26.7
					C327.8,668.4,315.9,680.4,301.1,680.4z M301.1,628.3c-14,0-25.4,11.4-25.4,25.4c0,14,11.4,25.4,25.4,25.4s25.4-11.4,25.4-25.4
					C326.6,639.7,315.1,628.3,301.1,628.3z"/>
				<path class="st2" d="M300.9,677.6c-13.2,0-23.8-10.7-23.8-23.8c0-13.2,10.7-23.8,23.8-23.8c13.2,0,23.8,10.7,23.8,23.8
					C324.7,666.9,313.9,677.6,300.9,677.6z M300.9,631.2c-12.4,0-22.5,10.1-22.5,22.5c0,12.4,10.1,22.5,22.5,22.5
					s22.5-10.1,22.5-22.5C323.4,641.3,313.3,631.2,300.9,631.2z"/>
				<g>
					<path class="st0" d="M309.8,657.4c0,2.1-0.9,4.1-2.3,5.7c-1,1-2.2,1.7-3.5,2.1v1.5c0,0.7-0.3,1.4-0.8,1.9
						c-0.5,0.5-1.2,0.8-1.9,0.8s-1.5-0.3-2-0.8c-0.5-0.5-0.9-1.2-0.9-1.9v-1.2h-2.6c-1.2,0-2.1-0.4-2.8-1c-0.6-0.6-1-1.5-1-2.5
						c0-2,1.3-3,3.7-3h6c0.2,0,0.5-0.1,0.8-0.3c0.3-0.2,0.5-0.5,0.5-0.9c0-0.5-0.2-0.9-0.6-1.1c-0.2-0.1-0.3-0.2-0.4-0.2
						c-0.2,0-0.2,0-0.2,0h-2.9c-2-0.1-3.9-0.9-5.2-2.2s-2.1-3.1-2.1-5.1c0-2.1,0.9-4.1,2.3-5.5c1.2-1.2,2.7-1.9,4.3-2.2v-1
						c0-0.8,0.3-1.4,0.9-1.9c0.5-0.5,1.2-0.8,1.9-0.8c0.7,0,1.4,0.3,1.9,0.8c0.5,0.5,0.8,1.2,0.8,1.9v0.9h1c2.4,0,3.8,1.2,3.8,3.2
						c0,2.2-1.4,3.4-3.8,3.4h-5.7c-0.6,0-1.1,0.4-1.1,1c0,0.6,0.3,1.1,0.9,1.1h2.8c2.2,0,4.1,0.8,5.6,2.1
						C308.9,653.5,309.8,655.4,309.8,657.4z"/>
				</g>
			</g>
			<path class="st0" d="M319.4,654.7c0,1.3-1.1,2.3-2.3,2.3c-1.3,0-2.3-1.1-2.3-2.3c0-1.3,1.1-2.3,2.3-2.3
				C318.3,652.4,319.4,653.4,319.4,654.7z"/>
			<path class="st0" d="M286.5,654.7c0,1.3-1.1,2.3-2.3,2.3c-1.2,0-2.3-1.1-2.3-2.3c0-1.3,1.1-2.3,2.3-2.3
				C285.5,652.4,286.5,653.4,286.5,654.7z"/>
		</g>
	</g>
	<g>
		<g>
			<path class="st0" d="M279.2,615.8c-1.4,6.3-7.7,10.3-13.9,8.8c-6.3-1.4-10.3-7.7-8.8-13.9c1.4-6.3,7.7-10.3,13.9-8.8
				C276.6,603.3,280.6,609.5,279.2,615.8z"/>
		</g>
		<g>
			<g>
				
					<ellipse transform="matrix(0.5551 -0.8318 0.8318 0.5551 -390.6453 494.3537)" class="st0" cx="266.8" cy="612.3" rx="11.7" ry="11.7"/>
				<g>
					
						<ellipse transform="matrix(0.5551 -0.8318 0.8318 0.5551 -390.6453 494.3537)" class="st3" cx="266.8" cy="612.3" rx="11.7" ry="11.7"/>
					<path class="st0" d="M266.8,624.8c-0.9,0-1.8-0.1-2.7-0.3c-3.3-0.7-6-2.6-7.7-5.4c-1.8-2.8-2.3-6.1-1.6-9.3
						c0.7-3.3,2.6-6,5.4-7.7c2.8-1.8,6.1-2.3,9.3-1.6c3.3,0.7,6,2.6,7.7,5.4c1.8,2.8,2.3,6.1,1.6,9.3l0,0
						C277.6,620.8,272.5,624.8,266.8,624.8z M266.7,601.4c-2.1,0-4.1,0.6-5.9,1.7c-2.5,1.5-4.2,4-4.9,6.9c-0.6,2.9-0.2,5.8,1.5,8.4
						c1.5,2.5,4,4.2,6.9,4.9c6,1.3,11.8-2.4,13.2-8.4c0.6-2.9,0.2-5.8-1.5-8.4c-1.5-2.5-4-4.2-6.9-4.9
						C268.4,601.5,267.6,601.4,266.7,601.4z M278.2,614.9L278.2,614.9L278.2,614.9z"/>
				</g>
				<path class="st2" d="M266.8,622.1c-0.7,0-1.4-0.1-2.1-0.2l0,0c-5.2-1.2-8.4-6.3-7.3-11.5c0.5-2.5,2.1-4.6,4.3-6s4.8-1.9,7.3-1.2
					c5.2,1.2,8.4,6.3,7.3,11.5c-0.5,2.5-2.1,4.6-4.3,6C270.4,621.6,268.6,622.1,266.8,622.1z M264.8,621.4c2.4,0.5,4.9,0.1,6.9-1.2
					c2.1-1.3,3.5-3.3,4-5.7c1.1-5-2-9.8-7-10.9c-2.4-0.5-4.9-0.1-6.9,1.2c-2.1,1.3-3.5,3.3-4,5.7
					C256.8,615.3,259.8,620.3,264.8,621.4L264.8,621.4z"/>
				<path class="st2" d="M266.7,621c-0.6,0-1.2-0.1-1.9-0.2c-4.6-1-7.6-5.7-6.5-10.3c0.5-2.2,1.9-4.2,3.8-5.4
					c1.9-1.2,4.3-1.6,6.5-1.2c4.6,1,7.6,5.7,6.5,10.3C274.2,618.3,270.6,621,266.7,621z M266.7,604.3c-1.5,0-3,0.5-4.3,1.2
					c-1.9,1.2-3.1,2.9-3.6,5.1c-1,4.3,1.8,8.7,6.2,9.7c2.1,0.5,4.3,0.1,6.1-1.1c1.9-1.2,3.1-2.9,3.6-5.1c0.5-2.1,0.1-4.3-1.1-6.1
					s-2.9-3.1-5.1-3.6l0,0C267.9,604.3,267.3,604.3,266.7,604.3z"/>
				<g>
					<path class="st0" d="M269.5,614.4c-0.2,0.8-0.6,1.4-1.2,1.8c-0.4,0.3-0.9,0.5-1.4,0.5l-0.2,0.5c-0.1,0.2-0.2,0.5-0.4,0.6
						c-0.2,0.2-0.5,0.2-0.7,0.2c-0.3-0.1-0.5-0.2-0.6-0.5c-0.2-0.2-0.2-0.5-0.2-0.8l0.1-0.5L264,616c-0.4-0.1-0.7-0.3-0.9-0.5
						c-0.2-0.2-0.2-0.6-0.2-0.9c0.2-0.7,0.7-0.9,1.5-0.8l2.1,0.5c0.1,0,0.2,0,0.3-0.1c0.2-0.1,0.2-0.2,0.2-0.3
						c0.1-0.2,0-0.3-0.2-0.5c-0.1-0.1-0.1-0.1-0.2-0.1s-0.1,0-0.1,0l-1-0.2c-0.7-0.2-1.3-0.6-1.6-1.2c-0.4-0.5-0.5-1.2-0.4-1.9
						c0.2-0.7,0.6-1.4,1.2-1.8c0.5-0.3,1.1-0.5,1.7-0.5l0.1-0.4c0.1-0.2,0.2-0.5,0.5-0.6c0.2-0.2,0.5-0.2,0.8-0.2
						c0.2,0.1,0.5,0.2,0.6,0.5c0.2,0.2,0.2,0.5,0.2,0.8l-0.1,0.3l0.3,0.1c0.9,0.2,1.2,0.7,1.1,1.4c-0.2,0.8-0.8,1.1-1.6,0.9l-2-0.5
						c-0.2-0.1-0.4,0.1-0.5,0.3c-0.1,0.2,0,0.4,0.2,0.5l1,0.2c0.8,0.2,1.4,0.6,1.8,1.2C269.6,612.9,269.7,613.7,269.5,614.4z"/>
				</g>
			</g>
			<path class="st0" d="M273.2,614.3c-0.1,0.5-0.5,0.8-1,0.6c-0.5-0.1-0.8-0.5-0.6-1c0.1-0.5,0.5-0.8,1-0.6
				C272.9,613.3,273.2,613.8,273.2,614.3z"/>
			<path class="st0" d="M261.5,611.6c-0.1,0.5-0.5,0.8-1,0.6c-0.5-0.1-0.8-0.5-0.6-1c0.1-0.5,0.5-0.8,1-0.6
				C261.4,610.7,261.7,611.2,261.5,611.6z"/>
		</g>
	</g>
	<g>
		<g>
			
				<ellipse transform="matrix(0.7797 -0.6262 0.6262 0.7797 -348.1874 296.8248)" class="st0" cx="247.7" cy="643.2" rx="15.7" ry="15.7"/>
		</g>
	</g>
	<g>
		
			<ellipse transform="matrix(2.338931e-02 -0.9997 0.9997 2.338931e-02 -402.3788 873.6343)" class="st0" cx="246" cy="642.8" rx="15.7" ry="15.7"/>
		<g>
			
				<ellipse transform="matrix(2.338931e-02 -0.9997 0.9997 2.338931e-02 -402.3788 873.6343)" class="st3" cx="246" cy="642.8" rx="15.7" ry="15.7"/>
			<path class="st0" d="M246,659.5c-7.3,0-14-4.8-16.1-12.2c-2.5-8.8,2.6-18.1,11.5-20.6c8.9-2.5,18.1,2.6,20.6,11.5
				c2.5,8.8-2.6,18.1-11.5,20.6C249,659.3,247.5,659.5,246,659.5z M246,628c-1.3,0-2.7,0.2-4,0.5c-7.8,2.2-12.4,10.4-10.2,18.3
				c2.2,7.8,10.4,12.4,18.3,10.2c3.8-1.1,7-3.6,8.9-7c1.9-3.4,2.4-7.4,1.3-11.2c-1.1-3.8-3.6-7-7-8.9C250.9,628.6,248.5,628,246,628
				z"/>
		</g>
		<path class="st2" d="M246,655.7c-5.7,0-10.8-3.7-12.5-9.4c-1.9-6.9,2.1-14,8.9-15.9c3.3-0.9,6.8-0.5,9.8,1.2s5.2,4.4,6.1,7.7
			c0.9,3.3,0.5,6.8-1.2,9.8c-1.7,3-4.4,5.2-7.7,6.1C248.3,655.6,247.2,655.7,246,655.7z M246,630.4c-1.2,0-2.2,0.2-3.4,0.5
			c-6.6,1.9-10.4,8.7-8.6,15.3c1.9,6.6,8.7,10.4,15.3,8.6l0,0c3.2-0.9,5.8-3,7.4-5.9c1.6-2.9,2-6.3,1.1-9.4c-0.9-3.2-3-5.8-5.9-7.4
			C250.2,630.9,248.1,630.4,246,630.4z"/>
		<path class="st2" d="M245.8,654.3c-1.9,0-3.9-0.5-5.6-1.5c-2.7-1.5-4.6-3.9-5.5-6.9c-0.9-2.9-0.5-6,1-8.7c1.5-2.7,3.9-4.6,6.9-5.5
			l0,0c2.9-0.9,6-0.5,8.7,1c2.7,1.5,4.6,3.9,5.5,6.9c0.9,2.9,0.5,6-1,8.7c-1.5,2.7-3.9,4.6-6.9,5.5
			C247.9,654.2,246.9,654.3,245.8,654.3z M245.8,631.8c-1,0-2,0.2-3,0.4l0,0c-2.9,0.8-5.2,2.6-6.7,5.3c-1.5,2.6-1.8,5.6-1,8.4
			c0.8,2.9,2.6,5.2,5.3,6.7c2.6,1.5,5.6,1.8,8.4,1c2.9-0.8,5.2-2.6,6.7-5.3c1.5-2.6,1.8-5.6,1-8.4c-0.8-2.9-2.6-5.2-5.3-6.7
			C249.6,632.3,247.7,631.8,245.8,631.8z"/>
		<g>
			<path class="st0" d="M250.6,643.4c0.3,1,0.2,2-0.3,2.9c-0.3,0.6-0.8,1.1-1.3,1.5l0.2,0.7c0.1,0.3,0.1,0.7-0.1,1
				c-0.2,0.3-0.5,0.5-0.8,0.6c-0.4,0.1-0.7,0.1-1-0.1s-0.5-0.5-0.6-0.8l-0.2-0.6l-1.2,0.3c-0.5,0.2-1,0.1-1.4-0.1
				c-0.4-0.2-0.6-0.5-0.8-1c-0.2-0.9,0.2-1.5,1.4-1.9l2.8-0.8c0.1,0,0.2-0.2,0.3-0.2c0.1-0.2,0.2-0.3,0.1-0.5
				c-0.1-0.2-0.2-0.4-0.4-0.4c-0.1,0-0.2,0-0.2,0s-0.1,0-0.1,0l-1.3,0.4c-0.9,0.2-1.9,0.1-2.7-0.3c-0.8-0.5-1.4-1.2-1.7-2.1
				c-0.3-1-0.2-2,0.4-2.9c0.4-0.7,1-1.2,1.7-1.6l-0.2-0.5c-0.1-0.4-0.1-0.7,0.2-1c0.2-0.3,0.5-0.5,0.8-0.6s0.7-0.1,1,0.2
				c0.3,0.2,0.5,0.5,0.6,0.8l0.2,0.5l0.5-0.2c1.2-0.3,1.9,0,2.2,1c0.3,1-0.2,1.8-1.3,2.1l-2.6,0.8c-0.3,0.1-0.5,0.3-0.4,0.6
				c0.1,0.3,0.3,0.5,0.5,0.4l1.3-0.4c1-0.3,2-0.2,2.9,0.2C249.6,641.7,250.2,642.4,250.6,643.4z"/>
		</g>
	</g>
	<path class="st0" d="M254.7,640.9c0.2,0.6-0.2,1.2-0.8,1.4c-0.6,0.2-1.2-0.2-1.4-0.8c-0.2-0.6,0.2-1.2,0.8-1.4
		C253.9,639.9,254.5,640.3,254.7,640.9z"/>
	<ellipse class="st0" cx="238.2" cy="645.6" rx="1.2" ry="1.2"/>
</g>
<g>
	<g>
		<path class="st0" d="M361.5,581.2l-64.6-3.3c-3.8-0.2-6.7-3.4-6.5-7.2l4.8-96.2c0.5-11.5,10.3-20.3,21.7-19.7l37.5,1.9
			c11.5,0.5,20.3,10.3,19.7,21.7l-4.8,95.5C369.1,578.2,365.6,581.4,361.5,581.2z"/>
		<g>
			<path class="st2" d="M358.5,581.3l-67-3.3c-3.2-0.2-5.6-2.9-5.4-6l5-100.8c0.5-9.5,8.6-16.9,18.1-16.3l44.5,2.2
				c9.5,0.5,16.9,8.6,16.3,18.1l-5,100.3C364.8,578.8,361.9,581.4,358.5,581.3z"/>
			<path class="st0" d="M358.8,582.2c-0.2,0-0.2,0-0.4,0l0,0l-67-3.3c-3.6-0.2-6.5-3.3-6.3-7l5-100.8c0.2-4.9,2.4-9.4,6-12.6
				c3.6-3.3,8.3-5,13.2-4.7l44.5,2.2c10.1,0.5,17.8,9.1,17.3,19.1l-5,100.3C365.7,579.3,362.6,582.2,358.8,582.2z M358.5,580.3
				c2.9,0.2,5.4-2.1,5.5-5l5-100.3c0.5-9-6.5-16.6-15.5-17.1l-44.5-2.2c-4.3-0.2-8.5,1.2-11.8,4.2c-3.3,2.9-5.1,6.9-5.3,11.2l-5,101
				c-0.2,2.6,1.9,4.8,4.5,5L358.5,580.3z"/>
		</g>
		<g>
			<g>
				<path class="st2" d="M352.8,457L352.8,457l-63.4-3.2c-7.3-0.4-13.5,5.5-13.9,13.2l-0.2,5.3l64.1,3.2l0.2-5.3
					C340,462.7,345.8,457,352.8,457z"/>
				<path class="st0" d="M339.3,476.3L339.3,476.3l-64.2-3.2c-0.5,0-0.9-0.5-0.9-1l0.2-5.3c0.2-3.9,1.9-7.6,4.6-10.2
					c2.8-2.6,6.4-4,10.2-3.9l63.4,3.2c0.2,0,0.5,0.2,0.7,0.3c0.2,0.2,0.2,0.5,0.2,0.7c0,0.5-0.5,0.9-0.9,0.9
					c-6.5,0.1-11.9,5.4-12.2,12.2l-0.2,5.3c0,0.2-0.2,0.5-0.3,0.7C339.8,476.3,339.6,476.3,339.3,476.3z M276.3,471.2l62.2,3.1
					l0.2-4.3c0.3-5.5,3.4-10.1,7.8-12.5l-57.1-2.9c-3.3-0.2-6.4,1-8.8,3.3c-2.5,2.3-3.9,5.5-4,8.9L276.3,471.2z"/>
			</g>
		</g>
		<g class="st7">
			<path class="st0" d="M352.8,457L352.8,457l-63.4-3.2c-7.3-0.4-13.5,5.5-13.9,13.2l-0.2,5.3l64.1,3.2l0.2-5.3
				C340,462.7,345.8,457,352.8,457z"/>
		</g>
		<g>
			<line class="st8" x1="305.6" y1="483" x2="321.8" y2="483.8"/>
			<path class="st0" d="M321.8,484.8C321.7,484.8,321.7,484.8,321.8,484.8l-16.2-0.8c-0.5,0-0.9-0.5-0.9-1c0-0.5,0.5-0.9,1-0.9
				l16.2,0.8c0.5,0,0.9,0.5,0.9,1C322.7,484.4,322.2,484.8,321.8,484.8z"/>
		</g>
		<g>
			<line class="st8" x1="342.2" y1="485.3" x2="358.4" y2="486.1"/>
			<path class="st0" d="M358.4,487.1L358.4,487.1l-16.2-0.8c-0.5,0-0.9-0.5-0.9-1c0-0.5,0.5-0.9,1-0.9l16.2,0.8c0.5,0,0.9,0.5,0.9,1
				C359.3,486.7,358.9,487.1,358.4,487.1z"/>
		</g>
		<g>
			<line class="st8" x1="304.7" y1="502.1" x2="336.7" y2="503.5"/>
			<path class="st0" d="M336.7,504.4L336.7,504.4l-32.1-1.4c-0.5,0-0.9-0.5-0.9-1c0-0.5,0.5-0.9,1-0.9l32.1,1.4c0.5,0,0.9,0.5,0.9,1
				C337.7,504,337.2,504.4,336.7,504.4z"/>
		</g>
		<g>
			<line class="st8" x1="303.7" y1="512.6" x2="317.1" y2="513.3"/>
			<path class="st0" d="M317.1,514.3L317.1,514.3l-13.5-0.8c-0.5,0-0.9-0.5-0.9-1c0-0.5,0.5-0.9,1-0.9l13.4,0.8c0.5,0,0.9,0.5,0.9,1
				C318.1,513.9,317.7,514.3,317.1,514.3z"/>
		</g>
		<g>
			<line class="st8" x1="305.1" y1="492.6" x2="328.1" y2="493.7"/>
			<path class="st0" d="M328.2,494.7C328.1,494.7,328.1,494.7,328.2,494.7l-23.1-1.2c-0.5,0-0.9-0.5-0.9-1c0-0.5,0.5-0.9,1-0.9
				l23.1,1.2c0.5,0,0.9,0.5,0.9,1C329.1,494.3,328.7,494.7,328.2,494.7z"/>
		</g>
		<g>
			<line class="st8" x1="333.8" y1="494" x2="336.7" y2="494.1"/>
			<path class="st0" d="M336.7,495.1L336.7,495.1l-3-0.2c-0.5,0-0.9-0.5-0.9-1c0-0.5,0.5-0.9,1-0.9l3,0.2c0.5,0,0.9,0.5,0.9,1
				C337.6,494.7,337.2,495.1,336.7,495.1z"/>
		</g>
		<g>
			<path class="st9" d="M358.8,510.5c-0.1,1.8-0.9,3.4-2.1,4.6c-0.9,0.9-1.9,1.4-2.9,1.6l-0.1,1.3c0,0.6-0.3,1.2-0.7,1.6
				c-0.5,0.4-1,0.6-1.6,0.6s-1.2-0.3-1.6-0.8c-0.4-0.5-0.6-1-0.6-1.6l0.1-1l-2.1-0.1c-0.9-0.1-1.8-0.4-2.2-0.9
				c-0.5-0.5-0.8-1.2-0.8-2.1c0.1-1.6,1.2-2.5,3.3-2.4l5,0.2c0.2,0,0.5-0.1,0.7-0.2c0.2-0.2,0.4-0.5,0.4-0.8c0-0.5-0.2-0.8-0.5-0.9
				c-0.2-0.1-0.3-0.2-0.3-0.2c-0.1,0-0.2,0-0.2,0l-2.4-0.1c-1.6-0.2-3.2-0.9-4.3-1.9c-1.1-1.2-1.6-2.6-1.6-4.3
				c0.1-1.7,0.9-3.3,2.2-4.5c1-0.9,2.3-1.5,3.7-1.7v-0.9c0-0.6,0.3-1.2,0.8-1.6c0.5-0.4,1-0.6,1.6-0.6c0.6,0,1.2,0.3,1.5,0.8
				s0.6,1,0.6,1.6v0.8h0.8c2,0.1,3.1,1.1,3.1,2.8c-0.1,1.9-1.3,2.8-3.3,2.7l-4.7-0.2c-0.5,0-0.9,0.3-0.9,0.8c0,0.5,0.2,0.9,0.7,0.9
				l2.3,0.1c1.8,0.1,3.4,0.8,4.6,1.9C358.2,507.1,358.8,508.8,358.8,510.5z"/>
		</g>
		<line class="st10" x1="276.5" y1="467" x2="290.2" y2="467.5"/>
	</g>
	<g>
		<g>
			<g>
				<polyline class="st5" points="231.7,520.5 284,590.8 328.8,557.4 275.6,485.8 275.1,493.8 267.7,492 267.3,499.6 260.3,497.9 
					259.8,505.2 253,503.6 252.6,510.8 245.8,509.1 245.4,515.6 237.9,513.9 237.5,521.7 231.7,520.5 				"/>
				<path class="st0" d="M284,591.8c-0.1,0-0.1,0-0.2,0c-0.2,0-0.5-0.2-0.6-0.4l-52.3-70.3c-0.2-0.3-0.2-0.8-0.1-1.1
					c0.2-0.3,0.6-0.5,1-0.5l4.7,0.9l0.4-6.7c0-0.3,0.2-0.5,0.4-0.7c0.2-0.2,0.5-0.2,0.8-0.2l6.3,1.5l0.3-5.3c0-0.3,0.2-0.5,0.4-0.7
					c0.2-0.2,0.5-0.2,0.8-0.2l5.7,1.4l0.3-6c0-0.3,0.2-0.5,0.4-0.7c0.2-0.2,0.5-0.2,0.8-0.2l5.7,1.4l0.4-6.1c0-0.3,0.2-0.5,0.4-0.7
					c0.2-0.2,0.5-0.2,0.8-0.2l5.9,1.4l0.4-6.4c0-0.3,0.2-0.5,0.4-0.7c0.2-0.2,0.5-0.2,0.8-0.2l6.3,1.5l0.4-6.8
					c0-0.4,0.3-0.8,0.7-0.9c0.4-0.2,0.8,0,1.1,0.4l53.3,71.6c0.3,0.5,0.2,1-0.2,1.3l-44.9,33.4C284.4,591.7,284.2,591.8,284,591.8z
					 M233.9,522l50.2,67.5l43.3-32.3l-51.2-68.7l-0.3,5.3c0,0.3-0.2,0.5-0.4,0.7c-0.2,0.2-0.5,0.2-0.8,0.2l-6.3-1.5l-0.4,6.4
					c0,0.3-0.2,0.5-0.4,0.7c-0.2,0.2-0.5,0.2-0.8,0.2l-5.9-1.4l-0.4,6.1c0,0.3-0.2,0.5-0.4,0.7c-0.2,0.2-0.5,0.2-0.8,0.2l-5.7-1.4
					l-0.3,6c0,0.3-0.2,0.5-0.4,0.7c-0.2,0.2-0.5,0.2-0.8,0.2l-5.7-1.4l-0.3,5.3c0,0.3-0.2,0.5-0.4,0.7c-0.2,0.2-0.5,0.2-0.8,0.2
					l-6.3-1.5l-0.4,6.7c0,0.3-0.2,0.5-0.4,0.7c-0.2,0.2-0.5,0.2-0.8,0.2L233.9,522z"/>
			</g>
			<g>
				<line class="st8" x1="247.7" y1="529.6" x2="261.5" y2="519.3"/>
				<path class="st2" d="M247.7,530.5c-0.3,0-0.6-0.2-0.8-0.4c-0.3-0.5-0.2-1,0.2-1.3l13.8-10.3c0.5-0.3,1-0.2,1.3,0.2
					c0.3,0.5,0.2,1-0.2,1.3l-13.8,10.3C248.1,530.4,247.8,530.5,247.7,530.5z"/>
			</g>
			<g>
				<line class="st8" x1="251.8" y1="535.1" x2="277.1" y2="516.2"/>
				<path class="st0" d="M251.8,536c-0.3,0-0.6-0.2-0.8-0.4c-0.3-0.5-0.2-1,0.2-1.3l25.4-18.9c0.5-0.3,1-0.2,1.3,0.2
					c0.3,0.5,0.2,1-0.2,1.3l-25.4,18.9C252.2,535.9,252,536,251.8,536z"/>
			</g>
			<g>
				<line class="st8" x1="279.9" y1="514.1" x2="283.2" y2="511.6"/>
				<path class="st2" d="M279.9,515.1c-0.3,0-0.6-0.2-0.8-0.4c-0.3-0.5-0.2-1,0.2-1.3l3.4-2.6c0.5-0.3,1-0.2,1.3,0.2
					c0.3,0.5,0.2,1-0.2,1.3l-3.4,2.6C280.3,515,280,515.1,279.9,515.1z"/>
			</g>
			<g>
				<line class="st8" x1="257.6" y1="542.9" x2="267" y2="536"/>
				<path class="st0" d="M257.6,543.9c-0.3,0-0.6-0.2-0.8-0.4c-0.3-0.5-0.2-1,0.2-1.3l9.3-7c0.5-0.3,1-0.2,1.3,0.2
					c0.3,0.5,0.2,1-0.2,1.3l-9.3,7C258.1,543.8,257.8,543.9,257.6,543.9z"/>
			</g>
			<g>
				<line class="st8" x1="271" y1="533" x2="289.1" y2="519.5"/>
				<path class="st0" d="M271,534c-0.3,0-0.6-0.2-0.8-0.4c-0.3-0.5-0.2-1,0.2-1.3l18.2-13.5c0.5-0.3,1-0.2,1.3,0.2
					c0.3,0.5,0.2,1-0.2,1.3l-18.2,13.5C271.4,533.9,271.1,534,271,534z"/>
			</g>
			<g>
				<line class="st8" x1="266.3" y1="554.5" x2="286.7" y2="539.3"/>
				<path class="st2" d="M266.3,555.5c-0.3,0-0.6-0.2-0.8-0.4c-0.3-0.5-0.2-1,0.2-1.3l20.4-15.2c0.5-0.3,1-0.2,1.3,0.2
					c0.3,0.5,0.2,1-0.2,1.3l-20.4,15.2C266.7,555.4,266.5,555.5,266.3,555.5z"/>
			</g>
			<g>
				<line class="st8" x1="296.6" y1="549.2" x2="306" y2="542.2"/>
				<path class="st0" d="M296.6,550.2c-0.3,0-0.6-0.2-0.8-0.4c-0.3-0.5-0.2-1,0.2-1.3l9.4-7c0.5-0.3,1-0.2,1.3,0.2
					c0.3,0.5,0.2,1-0.2,1.3l-9.4,7C297,550.1,296.8,550.2,296.6,550.2z"/>
			</g>
		</g>
	</g>
	<g>
		<g>
			<g>
				<polyline class="st3" points="302.3,507.4 295.8,559.7 335.6,564.6 342.2,511.4 338.1,514.6 335.1,510.7 331.2,513.7 
					328.3,510.1 324.6,512.9 321.8,509.4 318.1,512.2 315.3,508.6 311.9,511.2 308.8,507.2 304.8,510.4 302.3,507.2 				"/>
				<path class="st0" d="M335.6,565.6c-0.1,0-0.1,0-0.2,0l-39.8-5c-0.5-0.1-0.9-0.5-0.9-1.1l6.5-52.2c0-0.1,0-0.2,0.1-0.2
					c0-0.2,0.2-0.5,0.4-0.6c0.4-0.3,1-0.2,1.4,0.2l1.9,2.4l3.3-2.6c0.2-0.2,0.5-0.2,0.7-0.2c0.2,0,0.5,0.2,0.6,0.4l2.5,3.2l2.6-2
					c0.4-0.3,1-0.2,1.4,0.2l2.2,2.9l2.9-2.2c0.4-0.3,1-0.2,1.4,0.2l2.2,2.9l3-2.3c0.4-0.3,1-0.2,1.4,0.2l2.2,2.9l3.1-2.4
					c0.4-0.3,1-0.2,1.4,0.2l2.4,3.1l3.3-2.6c0.3-0.2,0.7-0.3,1.1-0.1c0.3,0.2,0.5,0.5,0.5,0.9l-6.7,53.3c0,0.2-0.2,0.5-0.4,0.6
					C336,565.6,335.8,565.6,335.6,565.6z M296.8,558.8l37.8,4.7l6.3-50l-2.2,1.8c-0.4,0.3-1,0.2-1.4-0.2l-2.4-3.1l-3.1,2.4
					c-0.4,0.3-1,0.2-1.4-0.2l-2.2-2.9l-3,2.3c-0.2,0.2-0.5,0.2-0.7,0.2s-0.5-0.2-0.6-0.4l-2.2-2.9l-2.9,2.2c-0.4,0.3-1,0.2-1.4-0.2
					l-2.2-2.9l-2.6,2c-0.2,0.2-0.5,0.2-0.7,0.2c-0.2,0-0.5-0.2-0.6-0.4l-2.5-3.2l-3.3,2.6c-0.4,0.3-1,0.2-1.4-0.2l-1.1-1.4
					L296.8,558.8z"/>
			</g>
			<path class="st2" d="M318.6,520.3L318.6,520.3l-12.3-1.5c-0.4-0.1-0.6-0.4-0.5-0.7c0.1-0.4,0.4-0.6,0.7-0.5l12.2,1.5
				c0.4,0.1,0.6,0.4,0.5,0.7C319.2,520,318.9,520.3,318.6,520.3z"/>
			<g>
				<line class="st8" x1="305.9" y1="522.1" x2="328.3" y2="524.9"/>
				<path class="st0" d="M328.3,525.6L328.3,525.6l-22.6-2.8c-0.4-0.1-0.6-0.4-0.5-0.7c0.1-0.4,0.4-0.6,0.7-0.5l22.5,2.8
					c0.4,0.1,0.6,0.4,0.5,0.7C329,525.4,328.7,525.6,328.3,525.6z"/>
			</g>
			<path class="st2" d="M333.8,526.3L333.8,526.3l-3.1-0.4c-0.4-0.1-0.6-0.4-0.5-0.7c0.1-0.4,0.4-0.6,0.7-0.5l3,0.4
				c0.4,0.1,0.6,0.4,0.5,0.7C334.4,526,334.1,526.3,333.8,526.3z"/>
			<g>
				<line class="st8" x1="305.1" y1="528" x2="313.4" y2="529"/>
				<path class="st0" d="M313.4,529.7L313.4,529.7l-8.4-1.1c-0.4-0.1-0.6-0.4-0.5-0.7c0.1-0.4,0.4-0.6,0.7-0.5l8.3,1
					c0.4,0.1,0.6,0.4,0.5,0.7C314,529.5,313.7,529.7,313.4,529.7z"/>
			</g>
			<g>
				<line class="st8" x1="317" y1="529.5" x2="333.1" y2="531.5"/>
				<path class="st0" d="M333.1,532.1L333.1,532.1l-16.2-2c-0.4-0.1-0.6-0.4-0.5-0.7c0.1-0.4,0.4-0.6,0.7-0.5l16.1,2
					c0.4,0.1,0.6,0.4,0.5,0.7C333.7,531.9,333.4,532.1,333.1,532.1z"/>
			</g>
			<g>
				<line class="st8" x1="304" y1="536.6" x2="322.2" y2="538.9"/>
				<path class="st0" d="M322.2,539.6L322.2,539.6l-18.2-2.2c-0.4-0.1-0.6-0.4-0.5-0.7c0.1-0.4,0.4-0.6,0.7-0.5l18.1,2.2
					c0.4,0.1,0.6,0.4,0.5,0.7C322.8,539.3,322.5,539.6,322.2,539.6z"/>
			</g>
			<g>
				<line class="st8" x1="322.6" y1="547.3" x2="331" y2="548.4"/>
				<path class="st0" d="M331,549.3c-0.1,0-0.1,0-0.2,0l-8.4-1c-0.5-0.1-0.9-0.5-0.9-1.1c0.1-0.5,0.5-0.9,1.1-0.9l8.4,1
					c0.5,0.1,0.9,0.5,0.9,1.1C331.9,549,331.4,549.3,331,549.3z"/>
			</g>
		</g>
	</g>
</g>
<g>
	<g>
		<g>
			<path class="st6" d="M409.8,604.1L306,629.2c-3.3,0.8-6.6-1.2-7.4-4.5l-16.6-68.5c-0.8-3.3,1.2-6.6,4.5-7.4l103.9-25.1
				c3.3-0.8,6.6,1.2,7.4,4.5l16.6,68.5C415.1,600,413.1,603.3,409.8,604.1z"/>
			<path class="st0" d="M304.5,630.3c-1.3,0-2.6-0.4-3.6-1c-1.6-1-2.7-2.6-3.2-4.3l-16.6-68.5c-0.9-3.8,1.4-7.6,5.2-8.5l103.9-25.1
				c3.8-0.9,7.6,1.4,8.5,5.2l16.6,68.5c0.9,3.8-1.4,7.6-5.2,8.5l0,0l-103.9,25.1C305.6,630.3,305,630.3,304.5,630.3z M391.9,524.5
				c-0.4,0-0.8,0.1-1.2,0.2l-103.9,25.1c-2.8,0.7-4.4,3.4-3.8,6.2l16.6,68.5c0.3,1.3,1.2,2.5,2.3,3.2c1.2,0.7,2.6,0.9,3.9,0.6
				l103.9-25.1l0,0c2.8-0.7,4.4-3.4,3.8-6.2l-16.6-68.5C396.3,526.2,394.2,524.5,391.9,524.5z M409.8,604.1L409.8,604.1L409.8,604.1
				z"/>
		</g>
		<path class="st11" d="M378,525.6l-30.5,7.4l7.1,29.1c0.9,3.8-2.3,7.8-7.2,9l0,0c-9.3,2.2-15.4,9.9-13.7,17.1l0,0
			c0.8,3-1.9,6.3-5.8,7.2l0,0c-11,2.7-18.3,11.7-16.2,20.2l2.8,11.5l93.3-22.8c4.6-1.2,7.4-5.8,6.3-10.4l-15.5-63.4
			c-1.2-5.2-6.5-8.4-11.8-7.1L378,525.6z"/>
		<g>
			<path class="st0" d="M322,590.7l-14.1,3.4c-0.4,0.1-0.7-0.2-0.8-0.5l-0.7-2.9c-0.1-0.4,0.2-0.7,0.5-0.8l14.1-3.4
				c0.4-0.1,0.7,0.2,0.8,0.5l0.7,2.9C322.5,590.3,322.3,590.6,322,590.7z"/>
			<path class="st0" d="M340,586.3l-14.1,3.4c-0.4,0.1-0.7-0.2-0.8-0.5l-0.7-2.9c-0.1-0.4,0.2-0.7,0.5-0.8l14.1-3.4
				c0.4-0.1,0.7,0.2,0.8,0.5l0.7,2.9C340.7,585.8,340.4,586.2,340,586.3z"/>
			<path class="st0" d="M357.8,582l-14.1,3.4c-0.4,0.1-0.7-0.2-0.8-0.5l-0.7-2.9c-0.1-0.4,0.2-0.7,0.5-0.8l14.1-3.4
				c0.4-0.1,0.7,0.2,0.8,0.5l0.7,2.9C358.3,581.6,358.1,581.9,357.8,582z"/>
			<path class="st0" d="M375.5,577.7l-14.1,3.4c-0.4,0.1-0.7-0.2-0.8-0.5l-0.7-2.9c-0.1-0.4,0.2-0.7,0.5-0.8l14.1-3.4
				c0.4-0.1,0.7,0.2,0.8,0.5l0.7,2.9C376,577.3,375.8,577.6,375.5,577.7z"/>
			<path class="st2" d="M321.5,601.2l-11.6,2.9c-0.4,0.1-0.7-0.2-0.8-0.5l-0.4-1.5c-0.1-0.4,0.2-0.7,0.5-0.8l11.6-2.9
				c0.4-0.1,0.7,0.2,0.8,0.5l0.4,1.5C322.1,600.8,321.8,601.1,321.5,601.2z"/>
			<path class="st2" d="M388.7,536.5l-11.8,1.9c-0.4,0.1-0.7-0.2-0.8-0.5l-0.2-1.5c-0.1-0.4,0.2-0.7,0.5-0.8l11.8-1.9
				c0.4-0.1,0.7,0.2,0.8,0.5l0.2,1.5C389.3,536.2,389.1,536.5,388.7,536.5z"/>
			<path class="st2" d="M345.5,548l-46.7,11.4c-0.5,0.1-0.9-0.2-1.1-0.6l-0.5-1.9c-0.1-0.5,0.2-0.9,0.6-1.1l46.7-11.4
				c0.5-0.1,0.9,0.2,1.1,0.6l0.5,1.9C346.3,547.4,346,547.9,345.5,548z"/>
			<path class="st2" d="M337.9,597.1l-11.6,2.9c-0.4,0.1-0.7-0.2-0.8-0.5l-0.4-1.5c-0.1-0.4,0.2-0.7,0.5-0.8l11.6-2.9
				c0.4-0.1,0.7,0.2,0.8,0.5l0.4,1.5C338.6,596.7,338.3,597,337.9,597.1z"/>
			<path class="st2" d="M354,593.4l-11.6,2.9c-0.4,0.1-0.7-0.2-0.8-0.5l-0.4-1.5c-0.1-0.4,0.2-0.7,0.5-0.8l11.6-2.9
				c0.4-0.1,0.7,0.2,0.8,0.5l0.4,1.5C354.6,592.9,354.4,593.2,354,593.4z"/>
			<path class="st3" d="M323.2,609.7l-11.6,2.9c-0.4,0.1-0.7-0.2-0.8-0.5l-0.4-1.5c-0.1-0.4,0.2-0.7,0.5-0.8l11.6-2.9
				c0.4-0.1,0.7,0.2,0.8,0.5l0.4,1.5C323.8,609.2,323.5,609.6,323.2,609.7z"/>
		</g>
		<g>
			<g>
				<path class="st3" d="M323.1,578l-17,4.1c-0.9,0.2-1.9-0.4-2.1-1.3l-1.2-5.1l-1.2-4.7c-0.2-0.9,0.4-1.9,1.3-2.1l17-4.1
					c0.9-0.2,1.9,0.4,2.1,1.3l2.4,9.8C324.6,576.8,324,577.8,323.1,578z"/>
				<g>
					<g>
						<line class="st8" x1="301.7" y1="576" x2="323.1" y2="570.6"/>
						<path class="st6" d="M301.7,577c-0.5,0-0.9-0.3-0.9-0.7c-0.2-0.5,0.2-1,0.7-1.2l21.4-5.4c0.5-0.2,1,0.2,1.2,0.7
							c0.2,0.5-0.2,1-0.7,1.2L302,577C301.9,577,301.8,577,301.7,577z"/>
					</g>
				</g>
			</g>
			<g>
				<path class="st3" d="M316,572.9c0.2,1.8-1.2,3.4-2.9,3.6c-1.8,0.2-3.4-1.2-3.6-2.9c-0.2-1.8,1.2-3.4,2.9-3.6
					C314.3,569.8,315.9,571.1,316,572.9z"/>
				<path class="st6" d="M312.8,577.5c-2.2,0-4-1.6-4.2-3.8c-0.1-1.2,0.2-2.2,0.9-3.1s1.7-1.4,2.9-1.5c2.3-0.2,4.4,1.5,4.6,3.8
					s-1.5,4.4-3.8,4.6C313,577.5,312.9,577.5,312.8,577.5z M312.8,571c-0.1,0-0.2,0-0.2,0c-0.6,0.1-1.2,0.4-1.5,0.9
					s-0.5,1.1-0.5,1.7c0.2,1.2,1.2,2.2,2.5,2.1c0.6-0.1,1.2-0.4,1.5-0.9c0.4-0.5,0.5-1.1,0.5-1.7c-0.1-0.6-0.4-1.2-0.9-1.5
					C313.8,571.1,313.3,571,312.8,571z"/>
			</g>
		</g>
		<g>
			<path class="st2" d="M388.1,592.9c-0.5-1.8-0.2-3.6,0.7-5c-1.4-0.7-2.9-0.9-4.6-0.5c-3.3,0.9-5.3,4.5-4.3,7.8
				c0.9,3.3,4.5,5.3,7.8,4.3c1.5-0.5,2.9-1.5,3.6-2.8C389.8,596.1,388.6,594.7,388.1,592.9z"/>
			<path class="st3" d="M394.6,584.5c-1.5,0.5-2.9,1.5-3.6,2.8c-0.9,1.5-1.2,3.3-0.7,5c0.5,1.8,1.7,3.2,3.3,3.9
				c1.4,0.7,2.9,0.9,4.6,0.5c3.3-0.9,5.3-4.5,4.3-7.8C401.5,585.5,398,583.5,394.6,584.5z"/>
		</g>
	</g>
</g>
<g>
	<g>
		<g>
			<path class="st0" d="M398.9,472.6c0.1-0.2,0.2-0.3,0.4-0.4l10.4-6.2c0.5-0.2,1-0.1,1.2,0.3c0.2,0.5,0.1,1-0.3,1.2l-10.4,6.2
				c-0.5,0.2-1,0.1-1.2-0.3C398.8,473.2,398.8,472.8,398.9,472.6z"/>
			<path class="st0" d="M391.7,470.9c0-0.2,0-0.2,0-0.4l5-16.2c0.2-0.5,0.7-0.8,1.2-0.6c0.5,0.2,0.8,0.7,0.6,1.2l-5,16.2
				c-0.2,0.5-0.7,0.8-1.2,0.6C392,471.6,391.8,471.3,391.7,470.9z"/>
			<path class="st0" d="M374.3,455.7c-0.2-0.5,0-0.9,0.4-1.2c0.5-0.2,1-0.1,1.2,0.4l8.7,16.3c0.2,0.5,0.1,1-0.4,1.2
				c-0.5,0.2-1,0.1-1.2-0.4L374.3,455.7L374.3,455.7z"/>
		</g>
		<g>
			<path class="st0" d="M348.5,671.5c-0.1,0.2-0.2,0.2-0.3,0.3l-9.6,4.4c-0.4,0.2-0.9,0-1.1-0.4c-0.2-0.4,0-0.9,0.4-1.1l9.6-4.4
				c0.4-0.2,0.9,0,1.1,0.4C348.6,671,348.6,671.3,348.5,671.5z"/>
			<path class="st0" d="M354.4,673.6c0,0.1,0,0.2-0.1,0.3l-5.8,13.5c-0.2,0.4-0.6,0.6-1,0.4c-0.4-0.2-0.6-0.6-0.4-1l5.8-13.5
				c0.2-0.4,0.6-0.6,1-0.4C354.3,673,354.4,673.3,354.4,673.6z"/>
			<path class="st0" d="M368.1,688.2c0.2,0.4-0.1,0.9-0.5,1c-0.4,0.2-0.9,0-1-0.5l-6-14.9c-0.2-0.4,0-0.9,0.5-1c0.4-0.2,0.9,0,1,0.5
				L368.1,688.2C368.1,688.2,368.1,688.2,368.1,688.2z"/>
		</g>
	</g>
	<g>
		<g>
			<path class="st3" d="M248.2,577.4l-0.5-11.1l19.1,17.7l-17.6,19.2l-0.5-11.1c0,0-16.5-3.3-26.9,15.9c0,0-3.3-14.2,8.7-25
				C230.6,583,236.1,577.5,248.2,577.4L248.2,577.4z"/>
			<path class="st0" d="M221.9,609c-0.1,0-0.1,0-0.2,0c-0.4-0.1-0.7-0.3-0.8-0.8c0-0.2-3.3-14.9,9-25.9c0.2-0.2,5.5-5.4,17.3-5.8
				l-0.4-10.1c0-0.4,0.2-0.8,0.5-0.9c0.4-0.2,0.8-0.1,1.1,0.2l19.1,17.7c0.4,0.4,0.4,1,0.1,1.4L250,604c-0.2,0.3-0.7,0.4-1,0.2
				c-0.4-0.2-0.6-0.5-0.6-0.9L248,593c-3.3-0.4-16.3-0.8-25.1,15.5C222.6,608.8,222.3,609,221.9,609z M248.9,568.6l0.3,8.7
				c0,0.2-0.1,0.5-0.2,0.7c-0.2,0.2-0.5,0.3-0.7,0.3c-11.6,0.1-16.9,5.3-17,5.3c-8.4,7.6-9.1,16.9-8.7,21.4
				c10.7-16.8,26.3-13.9,26.5-13.9c0.5,0.1,0.8,0.5,0.8,0.9l0.3,8.7l15.4-16.7L248.9,568.6z"/>
		</g>
		<g>
			<path class="st3" d="M443.4,615.3l-0.3,11.1l-17.9-19l18.9-18l-0.3,11.1c0,0,16.2,4.4,27.9-14c0,0,2.4,14.4-10.4,24.4
				C461.3,610.9,455.5,616,443.4,615.3L443.4,615.3z"/>
			<path class="st0" d="M443,627.4c-0.2,0-0.5-0.1-0.7-0.3l-17.9-19c-0.4-0.4-0.3-1,0-1.4l18.9-18c0.3-0.2,0.7-0.3,1.1-0.2
				c0.4,0.2,0.6,0.5,0.5,0.9l-0.3,10.3c3.3,0.6,16.2,1.9,26.1-13.8c0.2-0.3,0.6-0.5,1-0.5s0.7,0.4,0.8,0.8c0,0.2,2.3,15.1-10.7,25.3
				c-0.2,0.2-5.9,5-17.6,4.6l-0.3,10.1c0,0.4-0.2,0.8-0.6,0.9C443.3,627.4,443.2,627.4,443,627.4z M426.6,607.5l15.6,16.6l0.2-8.7
				c0-0.2,0.2-0.5,0.3-0.7c0.2-0.2,0.5-0.2,0.7-0.2c11.5,0.7,17.2-4.1,17.3-4.2c8.9-7,10.1-16.3,10.2-20.7
				c-11.8,16-27.2,12.1-27.3,12.1c-0.5-0.2-0.7-0.5-0.7-0.9l0.2-8.7L426.6,607.5z"/>
		</g>
	</g>
</g>
<g>
	<path class="st12" d="M1060.2,96.8c41.5-4.9,56.4,31.6,49.1,61.3c-1.6,6.3-0.9,12.5-0.9,18.8c-0.2,74.6-0.2,149.2,0,224
		c0,8.6,0.5,17.3-1.9,25.7c-4.9,17.3-19.6,29.4-37.6,29.7c-18.8,0.5-37.4,0.3-56.2,0.3c-3.2,0-5.7,0.6-8,2.7
		c-15.9,13.3-31.9,26.2-47.9,39.3c-9.8,8-20.2,4.3-23-8c-2.1-9.4-4.6-18.8-6.3-28c-0.9-4.6-2.8-6-7.4-6c-22.3,0.3-44.5,0.5-66.7-0.2
		c-25.9-0.6-43.1-18.8-43.1-44.7c-0.2-73,0-146,0-219.1c0-10.8-0.5-21.7,0.2-32.4c0.9-13.8,9.2-21.7,20.9-26.6
		c13.1-5.5,26.9-8.6,40.5-11.8c46.8-10.8,93.2-7.3,139.7,2.8c13.3,2.8,26.4,6.5,40,6.8c1.6,0,3.1,0.2,4.7,0c7.1,0,13.6-1.3,16.7-8.6
		c2.7-6.3-0.6-15.2-7.1-20.5C1063.8,100.4,1061.5,99.4,1060.2,96.8z M816.8,349.3C816.6,349.3,816.6,349.3,816.8,349.3
		c-0.2,17.5-0.2,35-0.2,52.6c0,6-0.5,11.8,0.8,17.7c3.6,18.8,18.3,30,38.3,30c23.3,0.2,46.5,0,69.6-0.2c4.2,0,6.3,1,7.4,5.5
		c2.6,11.3,5.5,22.5,8,33.8c1.9,8,5.5,9.4,11.8,4c16-13.1,32.1-26.1,47.9-39.3c3.2-2.7,6.3-4,10.7-4c17.7,0.3,35.3,0.3,53.1,0
		c22.5-0.3,37.1-15.2,37.1-37.6c0-42.7,0-85.5,0-128.1c0-6-2.3-7.1-7.6-4.6c-2.7,1.2-3.4,3.6-4.2,6.1c-1.5,6-2.9,11.7-4.7,17.5
		c-6.7,22.3-26.4,39.8-47.8,42c-26.6,2.8-48.9-8.6-61.3-30.9c-5.2-9.4-7.6-19.7-10.8-29.8c-1.9-6.3-7.6-8.7-12.9-5.7
		c-3.1,1.8-3.7,4.9-4.6,7.9c-3.2,12-6.5,24.1-14.1,34.2c-14.6,19.9-34.6,28.3-58.8,24.1c-24.1-4.2-39.2-19.4-46-42.7
		c-1.9-6.3-3.1-12.5-4.9-18.8c-0.8-2.7-2.8-4.6-5.7-4.2c-3.2,0.5-1.8,3.4-1.8,5.2C816.6,305.7,816.8,327.3,816.8,349.3z
		 M1077.1,104.4c0.8,1.9,1.2,2.8,1.5,3.7c5.7,16.2-2.8,28.8-20.1,29.8c-10.1,0.5-20.1-0.9-29.8-2.9c-24.3-5.2-48.9-9.5-73.6-12.6
		c-41.9-5.2-81.8,2.6-120.6,17c-10.2,3.9-17.5,10.7-17.7,22.5c-0.2,24.1,0,47.9-0.2,72c0,3.4,1.2,4,4.2,3.4
		c10.8-1.8,16.3-10.4,12.5-21.2c-7.9-21.7,8.6-36.8,24.9-40.5c20.2-4.5,41-4.9,61.6-4c22.8,1.2,45,6.3,67.4,10.4
		c24.5,4.6,48.9,9.9,74.1,8.9c9.8-0.5,18.6-3.2,26.1-9.5c16.7-13.8,21.8-41.4,11.5-60.4C1094.4,112.8,1087.9,106.6,1077.1,104.4z
		 M1101.4,177.6c-4.2,4.2-7.1,7.8-10.8,10.5c-13.5,10.4-29.4,10.8-45,9.8c-21.2-1.5-42-5.2-62.8-9.7c-39.8-8.6-79.8-13.6-120.6-6.5
		c-17,2.9-26.2,16.2-22,32.4s-3.4,27.9-20.1,30.3c-1.2,0.2-2.7-0.5-3.4,1.5c-0.6,1.8,0,16,0.9,16c5,0,9.5-2.1,13.4-5.3
		c1-0.9,1.9-1.9,2.8-2.9c4.6-4.3,9.1-8.7,13.8-12.8c22-18.3,53.9-18,76,0.5c5.7,4.7,10.7,10.1,15.2,15.7c4.5,5.5,9.4,8.9,16.8,6.5
		c1.5-0.5,3.4,0,5.2,0.5c4.3,1,7.9-0.2,10.7-3.4c3.4-3.7,7-7.6,10.4-11.3c17.8-19.4,39.5-26.4,65.1-19c13.8,4,23.9,14.1,34,23.8
		c4.6,4.5,9.8,7,15.9,8.3c3.6,0.8,4.6-0.3,4.6-3.7C1101.4,232,1101.4,205.4,1101.4,177.6z M885.2,337.6c28.5,0,51.6-23.3,51.6-51.8
		c0-27.2-24.1-50.9-51-50.8c-28.3,0.2-51.2,23.2-51.3,51.5C834.3,314.4,857.3,337.6,885.2,337.6z M1079.4,286.5
		c-0.2-30-23.9-50.9-50.7-51.5c-28-0.5-50.9,22.4-51.6,49.7c-0.9,27.7,21.5,52.3,50,52.6C1056,337.9,1079.2,315.2,1079.4,286.5z"/>
	<path class="st12" d="M845.7,142.5c37.1-15.9,75.6-16.3,114.5-9.7C921.4,130.6,882.8,129.2,845.7,142.5z"/>
	<path class="st12" d="M1018.8,181c28.7,4.5,55.1,3.2,70.1-28.2c1,9.4-5.7,20.1-15.2,25.1c-11.8,6.3-24.8,8.6-38.2,6.8
		C1030,183.9,1024.1,183.9,1018.8,181z"/>
	<path class="st12" d="M868.6,283.8c0.3-7.3,1.3-14.9,5.5-21.5c6-9.7,15.2-9.7,20.7,0.3c7.6,13.8,7.8,28.3,0.3,42.3
		c-5.7,10.8-15.6,10.7-21.7-0.2C869.9,298.5,868.7,291.6,868.6,283.8z"/>
	<path class="st12" d="M1045.8,284.1c-0.6,7.6-1.6,15.2-5.8,22c-6,9.4-15.2,9.4-20.5-0.3c-7.9-14.6-8-29.4,0.3-43.8
		c5.5-9.4,14.1-9.1,20.1,0.2C1044.4,268.7,1045,276.4,1045.8,284.1z"/>
</g>
<g>
	<path class="st12" d="M728.9,583.8c9.8,9.8,14.7,21.6,14.7,35.3v41.7c0,2.3-0.8,4.4-2.5,5.9c-1.7,1.7-3.6,2.5-5.9,2.5h-0.3
		c-2.3,0-4.2-0.8-5.9-2.5c-1.7-1.5-2.5-3.6-2.5-5.9v-4.2c-9.5,8.4-20.5,12.5-33,12.5c-13.7,0-25.7-4.8-35.3-14.7
		c-9.8-9.8-14.7-21.6-14.7-35.3s4.8-25.7,14.7-35.3c9.8-9.8,21.6-14.7,35.3-14.7C707.3,569.2,719.3,574.1,728.9,583.8z M670.1,595.9
		c-6.3,6.5-9.6,14.3-9.6,23.3c0,9.2,3.2,17,9.6,23.5c6.5,6.3,14.3,9.6,23.5,9.6s17-3.2,23.3-9.6c6.5-6.5,9.7-14.3,9.7-23.5
		c0-9.1-3.2-16.9-9.7-23.3c-6.3-6.5-14.1-9.7-23.3-9.7S676.6,589.3,670.1,595.9z"/>
	<path class="st12" d="M778.9,660.9c0,2.3-0.8,4.4-2.5,5.9c-1.7,1.7-3.6,2.5-5.9,2.5h-0.2c-2.3,0-4.2-0.8-5.9-2.5
		c-1.7-1.5-2.5-3.6-2.5-5.9v-50.1c0-11.5,4.1-21.3,12.2-29.5s18-12.2,29.5-12.2s21.1,4.1,29.4,12.2c8.1,8.1,12.2,18,12.2,29.5v50.1
		c0,2.3-0.8,4.4-2.5,5.9c-1.5,1.7-3.6,2.5-5.9,2.5h-0.1c-2.3,0-4.4-0.8-6-2.5c-1.7-1.5-2.5-3.6-2.5-5.9v-50.1
		c0-6.7-2.5-12.6-7.1-17.4c-4.8-4.8-10.6-7.3-17.4-7.3c-6.9,0-12.6,2.5-17.4,7.3c-4.7,4.8-7.1,10.6-7.1,17.4v50.1H778.9z"/>
	<path class="st12" d="M910.5,569.2c13.7,0,25.7,4.8,35.3,14.7c9.8,9.8,14.7,21.6,14.7,35.3s-4.8,25.7-14.7,35.3
		c-9.8,9.8-21.6,14.7-35.3,14.7s-25.7-4.8-35.3-14.7c-9.8-9.8-14.7-21.6-14.7-35.3s4.8-25.7,14.7-35.3
		C885.1,574.1,896.8,569.2,910.5,569.2z M910.5,586.3c-9.2,0-17,3.2-23.5,9.7c-6.3,6.5-9.6,14.3-9.6,23.5c0,9.1,3.2,16.9,9.6,23.3
		c6.5,6.5,14.3,9.7,23.5,9.7s17-3.2,23.3-9.7c6.5-6.5,9.7-14.3,9.7-23.3c0-9.2-3.2-17-9.7-23.5C927.5,589.6,919.7,586.3,910.5,586.3
		z"/>
	<path class="st12" d="M984.9,531.7c2.3,0,4.2,0.8,5.9,2.5s2.5,3.7,2.5,6v29.2h16.5c2.3,0,4.2,0.8,5.9,2.5s2.5,3.7,2.5,6v0.1
		c0,2.3-0.8,4.4-2.5,5.9c-1.7,1.7-3.6,2.5-5.9,2.5h-16.5v57.1c0,2.6,0.9,4.5,2.7,6.3s4,2.7,6.5,2.7h7.3c2.3,0,4.2,0.8,5.9,2.5
		s2.5,3.7,2.5,6v0.1c0,2.3-0.8,4.4-2.5,5.9c-1.7,1.7-3.6,2.5-5.9,2.5h-7.3c-7.3,0-13.4-2.6-18.5-7.7c-5.1-5.1-7.7-11.2-7.7-18.4
		V539.8c0-2.3,0.8-4.4,2.5-6c1.7-1.5,3.6-2.5,5.9-2.5h0.4L984.9,531.7L984.9,531.7z"/>
	<path class="st12" d="M1116.2,583.8c9.8,9.8,14.7,21.6,14.7,35.3v41.7c0,2.3-0.8,4.4-2.5,5.9c-1.7,1.7-3.6,2.5-5.9,2.5h-0.3
		c-2.3,0-4.2-0.8-5.9-2.5c-1.7-1.5-2.5-3.6-2.5-5.9v-4.2c-9.5,8.4-20.5,12.5-33,12.5c-13.7,0-25.7-4.8-35.3-14.7
		c-9.8-9.8-14.7-21.6-14.7-35.3s4.8-25.7,14.7-35.3c9.8-9.8,21.6-14.7,35.3-14.7C1094.6,569.2,1106.4,574.1,1116.2,583.8z
		 M1057.4,595.9c-6.3,6.5-9.6,14.3-9.6,23.3c0,9.2,3.2,17,9.6,23.5c6.5,6.3,14.3,9.6,23.5,9.6s17-3.2,23.3-9.6
		c6.5-6.5,9.7-14.3,9.7-23.5c0-9.1-3.2-16.9-9.7-23.3c-6.3-6.5-14.1-9.7-23.3-9.7S1064,589.3,1057.4,595.9z"/>
	<path class="st13" d="M1239.4,660.9c0,2.3-0.8,4.4-2.5,5.9c-1.7,1.7-3.6,2.5-5.9,2.5h-0.3c-2.3,0-4.2-0.8-5.9-2.5
		c-1.7-1.5-2.5-3.6-2.5-5.9v-43.6h-55.5v43.6c0,2.3-0.8,4.4-2.5,5.9c-1.7,1.7-3.6,2.5-5.9,2.5h-0.3c-2.3,0-4.2-0.8-5.9-2.5
		c-1.7-1.5-2.5-3.6-2.5-5.9v-84.7c0-12.4,4.4-22.8,13.2-31.6c8.8-8.7,19.2-13,31.5-13c12.4,0,22.8,4.4,31.6,13
		c8.8,8.8,13.2,19.2,13.2,31.6L1239.4,660.9L1239.4,660.9z M1222.5,600.4v-24.1c0-7.7-2.7-14.1-8-19.6c-5.5-5.5-12-8.1-19.8-8.1
		c-7.7,0-14.1,2.7-19.6,8.1c-5.4,5.5-8,12-8,19.6v24.2L1222.5,600.4L1222.5,600.4z"/>
	<path class="st13" d="M1271,531.7c2.3,0,4.2,0.8,5.9,2.5c1.7,1.7,2.5,3.7,2.5,6v121c0,2.3-0.8,4.4-2.5,5.9
		c-1.7,1.7-3.6,2.5-5.9,2.5h-0.3c-2.3,0-4.2-0.8-5.9-2.5c-1.7-1.5-2.5-3.6-2.5-5.9V540c0-2.3,0.8-4.4,2.5-6c1.7-1.5,3.6-2.5,5.9-2.5
		L1271,531.7L1271,531.7z"/>
</g>
<g>
	<path class="st12" d="M173.2,113.9h17.2c0.8,0,1.6,0.3,2.2,0.9c0.6,0.6,0.9,1.3,0.9,2.2v0.1c0,0.9-0.3,1.6-0.9,2.2
		c-0.6,0.6-1.3,0.9-2.2,0.9h-17.2v11c0,1.4,0.5,2.6,1.5,3.6c1,1,2.2,1.5,3.6,1.5h12.1c0.8,0,1.6,0.3,2.2,0.9
		c0.6,0.6,0.9,1.3,0.9,2.2v0.1c0,0.9-0.3,1.6-0.9,2.2c-0.6,0.6-1.3,0.9-2.2,0.9h-12.1c-3.1,0-5.8-1.1-8-3.3c-2.2-2.2-3.3-4.9-3.3-8
		V103c0-3.1,1.1-5.8,3.3-8c2.2-2.2,4.9-3.3,8-3.3h12.1c0.8,0,1.6,0.3,2.2,0.9c0.6,0.6,0.9,1.3,0.9,2.2v0.1c0,0.9-0.3,1.6-0.9,2.2
		c-0.6,0.6-1.3,0.9-2.2,0.9h-12.1c-1.4,0-2.6,0.5-3.6,1.5c-1,1-1.5,2.2-1.5,3.6V113.9z"/>
	<path class="st12" d="M208.2,111.8c-1.3,0-2.3,0.4-3.2,1.3c-0.9,0.9-1.3,2-1.3,3.2c0,1.8,0.8,3.1,2.5,4c0.5,0.3,2.5,0.9,5.9,1.8
		c2.5,0.7,4.4,1.6,5.6,2.8c1.7,1.6,2.5,3.9,2.5,6.9c0,3-1.1,5.5-3.2,7.7c-2.1,2.1-4.7,3.2-7.7,3.2h-8.8c-0.8,0-1.6-0.3-2.2-0.9
		c-0.6-0.6-0.9-1.3-0.9-2.2v-0.1c0-0.9,0.3-1.6,0.9-2.2c0.6-0.6,1.3-0.9,2.2-0.9h9.2c1.3,0,2.3-0.4,3.2-1.3c0.9-0.9,1.3-2,1.3-3.2
		c0-1.7-0.8-2.9-2.5-3.7c-0.4-0.2-2.3-0.8-5.9-1.8c-2.5-0.7-4.4-1.7-5.6-2.8c-1.7-1.6-2.5-4-2.5-7c0-3,1.1-5.5,3.2-7.6
		c2.1-2.1,4.7-3.2,7.7-3.2h6.2c0.9,0,1.6,0.3,2.2,0.9c0.6,0.6,0.9,1.3,0.9,2.2v0.1c0,0.9-0.3,1.6-0.9,2.2c-0.6,0.6-1.3,0.9-2.2,0.9
		H208.2z"/>
	<path class="st12" d="M228.7,91.6c0.8,0,1.6,0.3,2.2,0.9c0.6,0.6,0.9,1.3,0.9,2.2v10.8h6.1c0.8,0,1.6,0.3,2.2,0.9
		c0.6,0.6,0.9,1.3,0.9,2.2v0.1c0,0.9-0.3,1.6-0.9,2.2c-0.6,0.6-1.3,0.9-2.2,0.9h-6.1v21.1c0,0.9,0.3,1.7,1,2.4c0.7,0.7,1.5,1,2.4,1
		h2.7c0.8,0,1.6,0.3,2.2,0.9c0.6,0.6,0.9,1.3,0.9,2.2v0.1c0,0.9-0.3,1.6-0.9,2.2c-0.6,0.6-1.3,0.9-2.2,0.9h-2.7
		c-2.7,0-4.9-0.9-6.8-2.8c-1.9-1.9-2.8-4.2-2.8-6.8V94.7c0-0.9,0.3-1.6,0.9-2.2c0.6-0.6,1.3-0.9,2.2-0.9H228.7z"/>
	<path class="st12" d="M277.3,110.9c3.6,3.6,5.4,8,5.4,13.1v15.4c0,0.9-0.3,1.6-0.9,2.2c-0.6,0.6-1.3,0.9-2.2,0.9h-0.1
		c-0.8,0-1.6-0.3-2.2-0.9c-0.6-0.6-0.9-1.3-0.9-2.2v-1.6c-3.5,3.1-7.6,4.6-12.2,4.6c-5.1,0-9.5-1.8-13.1-5.4
		c-3.6-3.6-5.4-8-5.4-13.1c0-5.1,1.8-9.5,5.4-13.1c3.6-3.6,8-5.4,13.1-5.4C269.3,105.5,273.6,107.3,277.3,110.9z M255.5,115.4
		c-2.4,2.4-3.6,5.3-3.6,8.6c0,3.4,1.2,6.3,3.6,8.7c2.4,2.4,5.3,3.6,8.7,3.6c3.4,0,6.3-1.2,8.6-3.6c2.4-2.4,3.6-5.3,3.6-8.7
		c0-3.4-1.2-6.2-3.6-8.6c-2.4-2.4-5.3-3.6-8.6-3.6C260.8,111.8,257.9,113,255.5,115.4z"/>
	<path class="st12" d="M295.7,139.4c0,0.9-0.3,1.6-0.9,2.2c-0.6,0.6-1.3,0.9-2.2,0.9h-0.1c-0.8,0-1.6-0.3-2.2-0.9
		c-0.6-0.6-0.9-1.3-0.9-2.2v-18.6c0-4.2,1.5-7.8,4.5-10.8c3-3,6.6-4.5,10.8-4.5c5,0,9.1,2,12.2,6c3-4,7.1-6,12.1-6
		c4.2,0,7.8,1.5,10.8,4.5c3,3,4.5,6.6,4.5,10.8v18.6c0,0.9-0.3,1.6-0.9,2.2c-0.6,0.6-1.3,0.9-2.2,0.9h-0.1c-0.9,0-1.6-0.3-2.2-0.9
		c-0.6-0.6-0.9-1.3-0.9-2.2v-18.6c0-2.5-0.9-4.6-2.6-6.4c-1.8-1.8-3.9-2.6-6.4-2.6c-2.5,0-4.6,0.9-6.4,2.6c-1.8,1.8-2.6,3.9-2.6,6.4
		v18.6c0,0.9-0.3,1.6-0.9,2.2c-0.6,0.6-1.3,0.9-2.2,0.9h-0.1c-0.9,0-1.6-0.3-2.2-0.9c-0.6-0.6-0.9-1.3-0.9-2.2v-18.6
		c0-2.5-0.9-4.6-2.6-6.4c-1.8-1.8-3.9-2.6-6.4-2.6c-2.5,0-4.6,0.9-6.4,2.6c-1.8,1.8-2.6,3.9-2.6,6.4V139.4z"/>
	<path class="st12" d="M368.6,105.5c5.1,0,9.5,1.8,13.1,5.4c3.6,3.6,5.4,8,5.4,13.1c0,5.1-1.8,9.5-5.4,13.1c-3.6,3.6-8,5.4-13.1,5.4
		s-9.5-1.8-13.1-5.4c-3.6-3.6-5.4-8-5.4-13.1c0-5.1,1.8-9.5,5.4-13.1C359.1,107.3,363.5,105.5,368.6,105.5z M368.6,111.8
		c-3.4,0-6.3,1.2-8.7,3.6c-2.4,2.4-3.6,5.3-3.6,8.7c0,3.4,1.2,6.2,3.6,8.6c2.4,2.4,5.3,3.6,8.7,3.6c3.4,0,6.3-1.2,8.6-3.6
		c2.4-2.4,3.6-5.3,3.6-8.6c0-3.4-1.2-6.3-3.6-8.7C374.8,113,372,111.8,368.6,111.8z"/>
	<path class="st12" d="M402.3,111.8c-1.3,0-2.3,0.4-3.2,1.3c-0.9,0.9-1.3,2-1.3,3.2c0,1.8,0.8,3.1,2.5,4c0.5,0.3,2.5,0.9,5.9,1.8
		c2.5,0.7,4.4,1.6,5.6,2.8c1.7,1.6,2.5,3.9,2.5,6.9c0,3-1,5.5-3.2,7.7c-2.1,2.1-4.7,3.2-7.7,3.2h-8.8c-0.8,0-1.6-0.3-2.2-0.9
		c-0.6-0.6-0.9-1.3-0.9-2.2v-0.1c0-0.9,0.3-1.6,0.9-2.2c0.6-0.6,1.3-0.9,2.2-0.9h9.2c1.3,0,2.3-0.4,3.2-1.3c0.9-0.9,1.3-2,1.3-3.2
		c0-1.7-0.8-2.9-2.5-3.7c-0.4-0.2-2.3-0.8-5.9-1.8c-2.5-0.7-4.4-1.7-5.6-2.8c-1.7-1.6-2.5-4-2.5-7c0-3,1-5.5,3.2-7.6
		c2.1-2.1,4.7-3.2,7.7-3.2h6.2c0.9,0,1.6,0.3,2.2,0.9c0.6,0.6,0.9,1.3,0.9,2.2v0.1c0,0.9-0.3,1.6-0.9,2.2c-0.6,0.6-1.3,0.9-2.2,0.9
		H402.3z"/>
	<path class="st12" d="M441.5,91.6c0.8,0,1.6,0.3,2.2,0.9c0.6,0.6,0.9,1.3,0.9,2.2v10.8h6.1c0.8,0,1.6,0.3,2.2,0.9
		c0.6,0.6,0.9,1.3,0.9,2.2v0.1c0,0.9-0.3,1.6-0.9,2.2c-0.6,0.6-1.3,0.9-2.2,0.9h-6.1v21.1c0,0.9,0.3,1.7,1,2.4c0.7,0.7,1.5,1,2.4,1
		h2.7c0.8,0,1.6,0.3,2.2,0.9c0.6,0.6,0.9,1.3,0.9,2.2v0.1c0,0.9-0.3,1.6-0.9,2.2c-0.6,0.6-1.3,0.9-2.2,0.9H448
		c-2.7,0-4.9-0.9-6.8-2.8c-1.9-1.9-2.8-4.2-2.8-6.8V94.7c0-0.9,0.3-1.6,0.9-2.2c0.6-0.6,1.3-0.9,2.2-0.9H441.5z"/>
	<path class="st12" d="M492.8,116.3c0.4,0.8,0.4,1.6,0.1,2.4c-0.3,0.8-0.8,1.4-1.6,1.7c-3.2,1.4-7.3,3.3-12.5,5.6
		c-6.4,2.9-10.5,4.8-12.4,5.6c2.4,3.1,5.6,4.7,9.6,4.7c2.6,0,5-0.8,7.2-2.3c2.1-1.5,3.5-3.5,4.4-5.9c0.5-1.4,1.5-2.1,3-2.1
		c1.1,0,1.9,0.4,2.5,1.3c0.6,0.9,0.7,1.8,0.4,2.8c-1.3,3.7-3.5,6.6-6.6,8.9c-3.2,2.3-6.8,3.5-10.8,3.5c-5.1,0-9.5-1.8-13.1-5.4
		c-3.6-3.6-5.4-8-5.4-13.1c0-5.1,1.8-9.5,5.4-13.1c3.6-3.6,8-5.4,13.1-5.4c3.7,0,7,1,10.1,3C489.1,110.5,491.3,113.1,492.8,116.3z
		 M476,111.8c-3.4,0-6.3,1.2-8.7,3.6c-2.4,2.4-3.6,5.3-3.6,8.7c0,0.6,0,1.2,0.1,1.8l21.4-9.7C482.9,113.3,479.8,111.8,476,111.8z"/>
	<path class="st12" d="M182.4,188.8c0.9,0,1.6,0.3,2.2,0.9c0.6,0.6,0.9,1.3,0.9,2.2v0.1c0,0.9-0.3,1.6-0.9,2.2
		c-0.6,0.6-1.3,0.9-2.2,0.9h-1.9c-2.1,0-3.9,0.7-5.4,2.2c-1.5,1.5-2.2,3.3-2.2,5.4v20c0,0.9-0.3,1.6-0.9,2.2
		c-0.6,0.6-1.3,0.9-2.2,0.9h-0.1c-0.8,0-1.6-0.3-2.2-0.9c-0.6-0.6-0.9-1.3-0.9-2.2v-20c0-3.9,1.4-7.1,4.1-9.9c2.7-2.7,6-4.1,9.9-4.1
		H182.4z"/>
	<path class="st12" d="M223.5,199.6c0.4,0.8,0.4,1.6,0.1,2.4c-0.3,0.8-0.8,1.4-1.6,1.7c-3.2,1.4-7.3,3.3-12.5,5.6
		c-6.4,2.9-10.5,4.8-12.4,5.6c2.4,3.1,5.6,4.7,9.6,4.7c2.6,0,5-0.8,7.2-2.3c2.1-1.5,3.5-3.5,4.4-5.9c0.5-1.4,1.5-2.1,3-2.1
		c1.1,0,1.9,0.4,2.5,1.3c0.6,0.9,0.7,1.8,0.4,2.8c-1.3,3.7-3.5,6.6-6.6,8.9c-3.2,2.3-6.8,3.5-10.8,3.5c-5.1,0-9.5-1.8-13.1-5.4
		c-3.6-3.6-5.4-8-5.4-13.1c0-5.1,1.8-9.5,5.4-13.1c3.6-3.6,8-5.4,13.1-5.4c3.7,0,7,1,10.1,3C219.8,193.7,222.1,196.3,223.5,199.6z
		 M206.7,195.1c-3.4,0-6.3,1.2-8.7,3.6c-2.4,2.4-3.6,5.3-3.6,8.7c0,0.6,0,1.2,0.1,1.8l21.4-9.7C213.6,196.6,210.5,195.1,206.7,195.1
		z"/>
	<path class="st12" d="M263.4,174.9c0.8,0,1.6,0.3,2.2,0.9c0.6,0.6,0.9,1.3,0.9,2.2v29.4c0,5.1-1.8,9.4-5.5,13
		c-3.6,3.6-8,5.4-13,5.4c-5.1,0-9.5-1.8-13.1-5.4c-3.6-3.6-5.4-8-5.4-13.1c0-5.1,1.8-9.5,5.4-13.1c3.6-3.6,8-5.4,13.1-5.4
		c4.7,0,8.7,1.5,12.2,4.6V178c0-0.9,0.3-1.6,0.9-2.2c0.6-0.6,1.3-0.9,2.2-0.9H263.4z M239.3,198.7c-2.4,2.4-3.6,5.3-3.6,8.7
		c0,3.4,1.2,6.2,3.6,8.6c2.4,2.4,5.3,3.6,8.7,3.6c3.4,0,6.3-1.2,8.6-3.6c2.4-2.4,3.6-5.3,3.6-8.6c0-3.4-1.2-6.3-3.6-8.7
		c-2.4-2.4-5.3-3.6-8.6-3.6C244.6,195.1,241.7,196.3,239.3,198.7z"/>
	<path class="st12" d="M277.6,182.3c-1,0-1.9-0.4-2.6-1.1c-0.7-0.7-1.1-1.6-1.1-2.6c0-1,0.4-1.9,1.1-2.6c0.7-0.7,1.6-1.1,2.6-1.1
		c1,0,1.9,0.4,2.6,1.1c0.7,0.7,1.1,1.6,1.1,2.6c0,1-0.4,1.9-1.1,2.6C279.5,182,278.7,182.3,277.6,182.3z M277.7,188.8
		c0.9,0,1.6,0.3,2.2,0.9c0.6,0.6,0.9,1.3,0.9,2.2v30.8c0,0.9-0.3,1.6-0.9,2.2c-0.6,0.6-1.3,0.9-2.2,0.9h-0.1c-0.9,0-1.6-0.3-2.2-0.9
		c-0.6-0.6-0.9-1.3-0.9-2.2v-30.8c0-0.9,0.3-1.6,0.9-2.2C276,189.1,276.7,188.8,277.7,188.8L277.7,188.8z"/>
	<path class="st12" d="M304.7,188.8c0.9,0,1.6,0.3,2.2,0.9c0.6,0.6,0.9,1.3,0.9,2.2v0.1c0,0.9-0.3,1.6-0.9,2.2
		c-0.6,0.6-1.3,0.9-2.2,0.9h-1.9c-2.1,0-3.9,0.7-5.4,2.2c-1.5,1.5-2.2,3.3-2.2,5.4v20c0,0.9-0.3,1.6-0.9,2.2
		c-0.6,0.6-1.3,0.9-2.2,0.9h-0.1c-0.8,0-1.6-0.3-2.2-0.9c-0.6-0.6-0.9-1.3-0.9-2.2v-20c0-3.9,1.4-7.1,4.1-9.9c2.7-2.7,6-4.1,9.9-4.1
		H304.7z"/>
	<path class="st12" d="M345.8,199.6c0.4,0.8,0.4,1.6,0.1,2.4c-0.3,0.8-0.8,1.4-1.6,1.7c-3.2,1.4-7.3,3.3-12.5,5.6
		c-6.4,2.9-10.5,4.8-12.4,5.6c2.4,3.1,5.6,4.7,9.6,4.7c2.6,0,5-0.8,7.2-2.3c2.1-1.5,3.5-3.5,4.4-5.9c0.5-1.4,1.5-2.1,3-2.1
		c1.1,0,1.9,0.4,2.5,1.3c0.6,0.9,0.7,1.8,0.4,2.8c-1.3,3.7-3.5,6.6-6.6,8.9c-3.2,2.3-6.8,3.5-10.8,3.5c-5.1,0-9.5-1.8-13.1-5.4
		c-3.6-3.6-5.4-8-5.4-13.1c0-5.1,1.8-9.5,5.4-13.1c3.6-3.6,8-5.4,13.1-5.4c3.7,0,7,1,10.1,3C342.1,193.7,344.3,196.3,345.8,199.6z
		 M329,195.1c-3.4,0-6.3,1.2-8.7,3.6c-2.4,2.4-3.6,5.3-3.6,8.7c0,0.6,0,1.2,0.1,1.8l21.4-9.7C335.9,196.6,332.8,195.1,329,195.1z"/>
	<path class="st12" d="M375.8,189.6c1.4,0.5,2.2,1.4,2.2,2.9v0.2c0,1-0.4,1.9-1.3,2.5c-0.9,0.6-1.8,0.8-2.8,0.5
		c-1.2-0.4-2.4-0.6-3.7-0.6c-3.4,0-6.3,1.2-8.7,3.6c-2.4,2.4-3.6,5.3-3.6,8.7c0,3.4,1.2,6.2,3.6,8.6c2.4,2.4,5.3,3.6,8.7,3.6
		c1.3,0,2.5-0.2,3.7-0.6c1-0.3,1.9-0.2,2.8,0.4c0.8,0.6,1.3,1.4,1.3,2.5c0,1.5-0.7,2.5-2.2,2.9c-1.8,0.6-3.7,0.8-5.6,0.8
		c-5.1,0-9.5-1.8-13.1-5.4c-3.6-3.6-5.4-8-5.4-13.1c0-5.1,1.8-9.5,5.4-13.1c3.6-3.6,8-5.4,13.1-5.4
		C372.1,188.8,374,189.1,375.8,189.6z"/>
	<path class="st12" d="M388.1,182.3c-1,0-1.9-0.4-2.6-1.1c-0.7-0.7-1.1-1.6-1.1-2.6c0-1,0.4-1.9,1.1-2.6c0.7-0.7,1.6-1.1,2.6-1.1
		c1,0,1.9,0.4,2.6,1.1c0.7,0.7,1.1,1.6,1.1,2.6c0,1-0.4,1.9-1.1,2.6C390,182,389.1,182.3,388.1,182.3z M388.2,188.8
		c0.9,0,1.6,0.3,2.2,0.9c0.6,0.6,0.9,1.3,0.9,2.2v30.8c0,0.9-0.3,1.6-0.9,2.2c-0.6,0.6-1.3,0.9-2.2,0.9h-0.1c-0.9,0-1.6-0.3-2.2-0.9
		c-0.6-0.6-0.9-1.3-0.9-2.2v-30.8c0-0.9,0.3-1.6,0.9-2.2C386.5,189.1,387.2,188.8,388.2,188.8L388.2,188.8z"/>
	<path class="st12" d="M416.8,188.8c5.1,0,9.5,1.8,13.1,5.4c3.6,3.6,5.4,8,5.4,13.1c0,5.1-1.8,9.5-5.4,13.1c-3.6,3.6-8,5.4-13.1,5.4
		s-9.5-1.8-13.1-5.4c-3.6-3.6-5.4-8-5.4-13.1c0-5.1,1.8-9.5,5.4-13.1C407.3,190.6,411.7,188.8,416.8,188.8z M416.8,195.1
		c-3.4,0-6.3,1.2-8.7,3.6c-2.4,2.4-3.6,5.3-3.6,8.7c0,3.4,1.2,6.2,3.6,8.6c2.4,2.4,5.3,3.6,8.7,3.6c3.4,0,6.3-1.2,8.6-3.6
		c2.4-2.4,3.6-5.3,3.6-8.6c0-3.4-1.2-6.3-3.6-8.7C423.1,196.3,420.2,195.1,416.8,195.1z"/>
	<path class="st12" d="M447.3,222.7c0,0.9-0.3,1.6-0.9,2.2c-0.6,0.6-1.3,0.9-2.2,0.9h-0.1c-0.8,0-1.6-0.3-2.2-0.9
		c-0.6-0.6-0.9-1.3-0.9-2.2v-18.5c0-4.2,1.5-7.9,4.5-10.9c3-3,6.6-4.5,10.9-4.5c4.2,0,7.8,1.5,10.8,4.5c3,3,4.5,6.6,4.5,10.9v18.5
		c0,0.9-0.3,1.6-0.9,2.2c-0.6,0.6-1.3,0.9-2.2,0.9h-0.1c-0.9,0-1.6-0.3-2.2-0.9c-0.6-0.6-0.9-1.3-0.9-2.2v-18.5
		c0-2.5-0.9-4.7-2.6-6.4c-1.8-1.8-3.9-2.7-6.4-2.7c-2.5,0-4.7,0.9-6.5,2.7c-1.8,1.8-2.6,3.9-2.6,6.4V222.7z"/>
	<path class="st12" d="M510.1,194.2c3.6,3.6,5.4,8,5.4,13.1v15.4c0,0.9-0.3,1.6-0.9,2.2c-0.6,0.6-1.3,0.9-2.2,0.9h-0.1
		c-0.8,0-1.6-0.3-2.2-0.9c-0.6-0.6-0.9-1.3-0.9-2.2v-1.6c-3.5,3.1-7.6,4.6-12.2,4.6c-5.1,0-9.5-1.8-13.1-5.4
		c-3.6-3.6-5.4-8-5.4-13.1c0-5.1,1.8-9.5,5.4-13.1c3.6-3.6,8-5.4,13.1-5.4C502.2,188.8,506.5,190.6,510.1,194.2z M488.4,198.6
		c-2.4,2.4-3.6,5.3-3.6,8.6c0,3.4,1.2,6.3,3.6,8.7c2.4,2.4,5.3,3.6,8.7,3.6c3.4,0,6.3-1.2,8.6-3.6c2.4-2.4,3.6-5.3,3.6-8.7
		c0-3.4-1.2-6.2-3.6-8.6c-2.4-2.4-5.3-3.6-8.6-3.6C493.7,195,490.8,196.2,488.4,198.6z"/>
	<path class="st12" d="M528.6,222.7c0,0.9-0.3,1.6-0.9,2.2c-0.6,0.6-1.3,0.9-2.2,0.9h-0.1c-0.8,0-1.6-0.3-2.2-0.9
		c-0.6-0.6-0.9-1.3-0.9-2.2v-18.5c0-4.2,1.5-7.9,4.5-10.9c3-3,6.6-4.5,10.9-4.5c4.2,0,7.8,1.5,10.8,4.5c3,3,4.5,6.6,4.5,10.9v18.5
		c0,0.9-0.3,1.6-0.9,2.2c-0.6,0.6-1.3,0.9-2.2,0.9h-0.1c-0.9,0-1.6-0.3-2.2-0.9c-0.6-0.6-0.9-1.3-0.9-2.2v-18.5
		c0-2.5-0.9-4.7-2.6-6.4c-1.8-1.8-3.9-2.7-6.4-2.7c-2.5,0-4.7,0.9-6.5,2.7c-1.8,1.8-2.6,3.9-2.6,6.4V222.7z"/>
	<path class="st12" d="M592.7,174.9c0.8,0,1.6,0.3,2.2,0.9c0.6,0.6,0.9,1.3,0.9,2.2v29.4c0,5.1-1.8,9.4-5.5,13
		c-3.6,3.6-8,5.4-13,5.4c-5.1,0-9.5-1.8-13.1-5.4c-3.6-3.6-5.4-8-5.4-13.1c0-5.1,1.8-9.5,5.4-13.1c3.6-3.6,8-5.4,13.1-5.4
		c4.7,0,8.7,1.5,12.2,4.6V178c0-0.9,0.3-1.6,0.9-2.2c0.6-0.6,1.3-0.9,2.2-0.9H592.7z M568.6,198.7c-2.4,2.4-3.6,5.3-3.6,8.7
		c0,3.4,1.2,6.2,3.6,8.6c2.4,2.4,5.3,3.6,8.7,3.6c3.4,0,6.3-1.2,8.6-3.6c2.4-2.4,3.6-5.3,3.6-8.6c0-3.4-1.2-6.3-3.6-8.7
		c-2.4-2.4-5.3-3.6-8.6-3.6C573.9,195.1,571,196.3,568.6,198.7z"/>
	<path class="st12" d="M620.1,188.8c5.1,0,9.5,1.8,13.1,5.4c3.6,3.6,5.4,8,5.4,13.1c0,5.1-1.8,9.5-5.4,13.1c-3.6,3.6-8,5.4-13.1,5.4
		c-5.1,0-9.5-1.8-13.1-5.4c-3.6-3.6-5.4-8-5.4-13.1c0-5.1,1.8-9.5,5.4-13.1C610.6,190.6,615,188.8,620.1,188.8z M620.1,195.1
		c-3.4,0-6.3,1.2-8.7,3.6c-2.4,2.4-3.6,5.3-3.6,8.7c0,3.4,1.2,6.2,3.6,8.6c2.4,2.4,5.3,3.6,8.7,3.6c3.4,0,6.3-1.2,8.6-3.6
		c2.4-2.4,3.6-5.3,3.6-8.6c0-3.4-1.2-6.3-3.6-8.7C626.3,196.3,623.5,195.1,620.1,195.1z"/>
	<path class="st12" d="M169.7,323c-0.8,0-1.6-0.3-2.2-0.9c-0.6-0.6-0.9-1.3-0.9-2.2v-29.4c0-5.1,1.8-9.5,5.5-13
		c3.6-3.6,7.9-5.4,13-5.4c5.1,0,9.5,1.8,13.1,5.4c3.6,3.6,5.4,8,5.4,13.1c0,5.1-1.8,9.5-5.4,13.1c-3.6,3.6-8,5.4-13.1,5.4
		c-4.7,0-8.8-1.5-12.2-4.6v15.5c0,0.8-0.3,1.6-0.9,2.2c-0.6,0.6-1.3,0.9-2.2,0.9H169.7z M193.7,299.1c2.4-2.4,3.6-5.3,3.6-8.6
		c0-3.4-1.2-6.3-3.6-8.7c-2.4-2.4-5.3-3.6-8.6-3.6c-3.4,0-6.3,1.2-8.7,3.6c-2.4,2.4-3.6,5.3-3.6,8.7c0,3.4,1.2,6.2,3.6,8.6
		c2.4,2.4,5.3,3.6,8.7,3.6C188.5,302.7,191.3,301.5,193.7,299.1z"/>
	<path class="st12" d="M240.9,277.5c3.6,3.6,5.4,8,5.4,13.1V306c0,0.9-0.3,1.6-0.9,2.2c-0.6,0.6-1.3,0.9-2.2,0.9h-0.1
		c-0.8,0-1.6-0.3-2.2-0.9c-0.6-0.6-0.9-1.3-0.9-2.2v-1.6c-3.5,3.1-7.6,4.6-12.2,4.6c-5.1,0-9.5-1.8-13.1-5.4
		c-3.6-3.6-5.4-8-5.4-13.1c0-5.1,1.8-9.5,5.4-13.1c3.6-3.6,8-5.4,13.1-5.4C232.9,272,237.3,273.8,240.9,277.5z M219.2,281.9
		c-2.4,2.4-3.6,5.3-3.6,8.6c0,3.4,1.2,6.3,3.6,8.7c2.4,2.4,5.3,3.6,8.7,3.6c3.4,0,6.3-1.2,8.6-3.6c2.4-2.4,3.6-5.3,3.6-8.7
		c0-3.4-1.2-6.2-3.6-8.6c-2.4-2.4-5.3-3.6-8.6-3.6C224.4,278.3,221.5,279.5,219.2,281.9z"/>
	<path class="st12" d="M269,272c0.9,0,1.6,0.3,2.2,0.9c0.6,0.6,0.9,1.3,0.9,2.2v0.1c0,0.9-0.3,1.6-0.9,2.2c-0.6,0.6-1.3,0.9-2.2,0.9
		H267c-2.1,0-3.9,0.7-5.4,2.2c-1.5,1.5-2.2,3.3-2.2,5.4v20c0,0.9-0.3,1.6-0.9,2.2c-0.6,0.6-1.3,0.9-2.2,0.9h-0.1
		c-0.8,0-1.6-0.3-2.2-0.9c-0.6-0.6-0.9-1.3-0.9-2.2v-20c0-3.9,1.4-7.1,4.1-9.9c2.7-2.7,6-4.1,9.9-4.1H269z"/>
	<path class="st12" d="M307.4,277.5c3.6,3.6,5.4,8,5.4,13.1V306c0,0.9-0.3,1.6-0.9,2.2c-0.6,0.6-1.3,0.9-2.2,0.9h-0.1
		c-0.8,0-1.6-0.3-2.2-0.9c-0.6-0.6-0.9-1.3-0.9-2.2v-1.6c-3.5,3.1-7.6,4.6-12.2,4.6c-5.1,0-9.5-1.8-13.1-5.4
		c-3.6-3.6-5.4-8-5.4-13.1c0-5.1,1.8-9.5,5.4-13.1c3.6-3.6,8-5.4,13.1-5.4C299.4,272,303.7,273.8,307.4,277.5z M285.6,281.9
		c-2.4,2.4-3.6,5.3-3.6,8.6c0,3.4,1.2,6.3,3.6,8.7c2.4,2.4,5.3,3.6,8.7,3.6c3.4,0,6.3-1.2,8.6-3.6c2.4-2.4,3.6-5.3,3.6-8.7
		c0-3.4-1.2-6.2-3.6-8.6c-2.4-2.4-5.3-3.6-8.6-3.6C290.9,278.3,288,279.5,285.6,281.9z"/>
	<path class="st12" d="M341.3,323c-0.8,0-1.6-0.3-2.2-0.9c-0.6-0.6-0.9-1.3-0.9-2.2v-29.4c0-5.1,1.8-9.5,5.5-13
		c3.6-3.6,7.9-5.4,13-5.4c5.1,0,9.5,1.8,13.1,5.4c3.6,3.6,5.4,8,5.4,13.1c0,5.1-1.8,9.5-5.4,13.1c-3.6,3.6-8,5.4-13.1,5.4
		c-4.7,0-8.8-1.5-12.2-4.6v15.5c0,0.8-0.3,1.6-0.9,2.2c-0.6,0.6-1.3,0.9-2.2,0.9H341.3z M365.4,299.1c2.4-2.4,3.6-5.3,3.6-8.6
		c0-3.4-1.2-6.3-3.6-8.7c-2.4-2.4-5.3-3.6-8.6-3.6c-3.4,0-6.3,1.2-8.7,3.6c-2.4,2.4-3.6,5.3-3.6,8.7c0,3.4,1.2,6.2,3.6,8.6
		c2.4,2.4,5.3,3.6,8.7,3.6C360.1,302.7,363,301.5,365.4,299.1z"/>
	<path class="st12" d="M412.6,277.5c3.6,3.6,5.4,8,5.4,13.1V306c0,0.9-0.3,1.6-0.9,2.2c-0.6,0.6-1.3,0.9-2.2,0.9h-0.1
		c-0.8,0-1.6-0.3-2.2-0.9c-0.6-0.6-0.9-1.3-0.9-2.2v-1.6c-3.5,3.1-7.6,4.6-12.2,4.6c-5.1,0-9.5-1.8-13.1-5.4
		c-3.6-3.6-5.4-8-5.4-13.1c0-5.1,1.8-9.5,5.4-13.1c3.6-3.6,8-5.4,13.1-5.4S408.9,273.8,412.6,277.5z M390.8,281.9
		c-2.4,2.4-3.6,5.3-3.6,8.6c0,3.4,1.2,6.3,3.6,8.7c2.4,2.4,5.3,3.6,8.7,3.6c3.4,0,6.3-1.2,8.6-3.6c2.4-2.4,3.6-5.3,3.6-8.7
		c0-3.4-1.2-6.2-3.6-8.6c-2.4-2.4-5.3-3.6-8.6-3.6C396.1,278.3,393.2,279.5,390.8,281.9z M399.8,269.7c-0.4,0.3-0.7,0.5-1,0.5h-2.6
		c-0.5,0-0.9-0.2-1.2-0.7c-0.2-0.5-0.2-0.9,0.1-1.4l6-8.5c0.2-0.3,0.6-0.5,1-0.5h5.2c0.5,0,0.9,0.2,1.2,0.7c0.3,0.5,0.3,1-0.1,1.4
		L399.8,269.7z"/>
	<path class="st12" d="M442.2,316.7c3.1,0,5.9-1.2,8.4-3.6c2.6-2.5,3.9-5.3,3.9-8.6v-0.1c-3.5,3.1-7.6,4.6-12.2,4.6
		c-5.1,0-9.5-1.8-13.1-5.4c-3.6-3.6-5.4-8-5.4-13.1c0-5.1,1.8-9.5,5.4-13.1c3.6-3.6,8-5.4,13.1-5.4c5.1,0,9.4,1.8,13,5.4
		c3.6,3.6,5.4,7.9,5.5,13v14c0,5-1.9,9.4-5.8,13.1c-3.7,3.6-8,5.4-12.7,5.4c-7.3,0-12.7-2.8-16.3-8.4c-0.5-0.8-0.7-1.7-0.3-2.7
		c0.3-0.9,0.9-1.6,1.9-1.9l0.1,0c1.5-0.5,2.7-0.1,3.6,1.2C433.7,314.8,437.4,316.7,442.2,316.7z M454.5,290.3c0-3.3-1.3-6.2-3.7-8.5
		c-2.4-2.3-5.2-3.5-8.6-3.5c-3.4,0-6.3,1.2-8.7,3.6c-2.4,2.4-3.6,5.3-3.6,8.6c0,3.4,1.2,6.3,3.6,8.7c2.4,2.4,5.3,3.6,8.7,3.6
		c3.4,0,6.3-1.2,8.6-3.6c2.4-2.4,3.6-5.3,3.6-8.7V290.3z"/>
	<path class="st12" d="M471.9,265.6c-1,0-1.9-0.4-2.6-1.1c-0.7-0.7-1.1-1.6-1.1-2.6c0-1,0.4-1.9,1.1-2.6c0.7-0.7,1.6-1.1,2.6-1.1
		c1,0,1.9,0.4,2.6,1.1c0.7,0.7,1.1,1.6,1.1,2.6c0,1-0.4,1.9-1.1,2.6C473.8,265.2,472.9,265.6,471.9,265.6z M471.9,272
		c0.9,0,1.6,0.3,2.2,0.9c0.6,0.6,0.9,1.3,0.9,2.2V306c0,0.9-0.3,1.6-0.9,2.2c-0.6,0.6-1.3,0.9-2.2,0.9h-0.1c-0.9,0-1.6-0.3-2.2-0.9
		c-0.6-0.6-0.9-1.3-0.9-2.2v-30.8c0-0.9,0.3-1.6,0.9-2.2C470.3,272.3,471,272,471.9,272L471.9,272z"/>
	<path class="st12" d="M489.4,306c0,0.9-0.3,1.6-0.9,2.2c-0.6,0.6-1.3,0.9-2.2,0.9h-0.1c-0.8,0-1.6-0.3-2.2-0.9
		c-0.6-0.6-0.9-1.3-0.9-2.2v-18.5c0-4.2,1.5-7.9,4.5-10.9c3-3,6.6-4.5,10.9-4.5c4.2,0,7.8,1.5,10.8,4.5c3,3,4.5,6.6,4.5,10.9V306
		c0,0.9-0.3,1.6-0.9,2.2c-0.6,0.6-1.3,0.9-2.2,0.9h-0.1c-0.9,0-1.6-0.3-2.2-0.9c-0.6-0.6-0.9-1.3-0.9-2.2v-18.5
		c0-2.5-0.9-4.7-2.6-6.4c-1.8-1.8-3.9-2.7-6.4-2.7c-2.5,0-4.7,0.9-6.5,2.7c-1.8,1.8-2.6,3.9-2.6,6.4V306z"/>
	<path class="st12" d="M552.2,277.5c3.6,3.6,5.4,8,5.4,13.1V306c0,0.9-0.3,1.6-0.9,2.2c-0.6,0.6-1.3,0.9-2.2,0.9h-0.1
		c-0.8,0-1.6-0.3-2.2-0.9c-0.6-0.6-0.9-1.3-0.9-2.2v-1.6c-3.5,3.1-7.6,4.6-12.2,4.6c-5.1,0-9.5-1.8-13.1-5.4
		c-3.6-3.6-5.4-8-5.4-13.1c0-5.1,1.8-9.5,5.4-13.1c3.6-3.6,8-5.4,13.1-5.4C544.2,272,548.6,273.8,552.2,277.5z M530.4,281.9
		c-2.4,2.4-3.6,5.3-3.6,8.6c0,3.4,1.2,6.3,3.6,8.7c2.4,2.4,5.3,3.6,8.7,3.6c3.4,0,6.3-1.2,8.6-3.6c2.4-2.4,3.6-5.3,3.6-8.7
		c0-3.4-1.2-6.2-3.6-8.6c-2.4-2.4-5.3-3.6-8.6-3.6C535.7,278.3,532.8,279.5,530.4,281.9z"/>
	<path class="st12" d="M615.9,258.1c0.8,0,1.6,0.3,2.2,0.9c0.6,0.6,0.9,1.3,0.9,2.2v29.4c0,5.1-1.8,9.4-5.5,13
		c-3.6,3.6-8,5.4-13,5.4c-5.1,0-9.5-1.8-13.1-5.4c-3.6-3.6-5.4-8-5.4-13.1c0-5.1,1.8-9.5,5.4-13.1c3.6-3.6,8-5.4,13.1-5.4
		c4.7,0,8.7,1.5,12.2,4.6v-15.4c0-0.9,0.3-1.6,0.9-2.2c0.6-0.6,1.3-0.9,2.2-0.9H615.9z M591.9,282c-2.4,2.4-3.6,5.3-3.6,8.7
		c0,3.4,1.2,6.2,3.6,8.6c2.4,2.4,5.3,3.6,8.7,3.6c3.4,0,6.3-1.2,8.6-3.6c2.4-2.4,3.6-5.3,3.6-8.6c0-3.4-1.2-6.3-3.6-8.7
		c-2.4-2.4-5.3-3.6-8.6-3.6C597.1,278.4,594.3,279.6,591.9,282z"/>
	<path class="st12" d="M660.1,282.8c0.4,0.8,0.4,1.6,0.1,2.4c-0.3,0.8-0.8,1.4-1.6,1.7c-3.2,1.4-7.3,3.3-12.5,5.6
		c-6.4,2.9-10.5,4.8-12.4,5.6c2.4,3.1,5.6,4.7,9.6,4.7c2.6,0,5-0.8,7.2-2.3c2.1-1.5,3.5-3.5,4.4-5.9c0.5-1.4,1.5-2.1,3-2.1
		c1.1,0,1.9,0.4,2.5,1.3c0.6,0.9,0.7,1.8,0.4,2.8c-1.3,3.7-3.5,6.6-6.6,8.9c-3.2,2.3-6.8,3.5-10.8,3.5c-5.1,0-9.5-1.8-13.1-5.4
		c-3.6-3.6-5.4-8-5.4-13.1c0-5.1,1.8-9.5,5.4-13.1c3.6-3.6,8-5.4,13.1-5.4c3.7,0,7,1,10.1,3C656.4,277,658.6,279.6,660.1,282.8z
		 M643.3,278.4c-3.4,0-6.3,1.2-8.7,3.6c-2.4,2.4-3.6,5.3-3.6,8.7c0,0.6,0,1.2,0.1,1.8l21.4-9.7C650.2,279.8,647.1,278.4,643.3,278.4
		z"/>
	<path class="st12" d="M169.7,406.2c-0.8,0-1.6-0.3-2.2-0.9c-0.6-0.6-0.9-1.3-0.9-2.2v-29.4c0-5.1,1.8-9.5,5.5-13
		c3.6-3.6,7.9-5.4,13-5.4c5.1,0,9.5,1.8,13.1,5.4c3.6,3.6,5.4,8,5.4,13.1c0,5.1-1.8,9.5-5.4,13.1s-8,5.4-13.1,5.4
		c-4.7,0-8.8-1.5-12.2-4.6v15.5c0,0.8-0.3,1.6-0.9,2.2c-0.6,0.6-1.3,0.9-2.2,0.9H169.7z M193.7,382.4c2.4-2.4,3.6-5.3,3.6-8.6
		c0-3.4-1.2-6.3-3.6-8.7c-2.4-2.4-5.3-3.6-8.6-3.6c-3.4,0-6.3,1.2-8.7,3.6c-2.4,2.4-3.6,5.3-3.6,8.7c0,3.4,1.2,6.2,3.6,8.6
		c2.4,2.4,5.3,3.6,8.7,3.6C188.5,386,191.3,384.8,193.7,382.4z"/>
	<path class="st12" d="M240.9,360.7c3.6,3.6,5.4,8,5.4,13.1v15.4c0,0.9-0.3,1.6-0.9,2.2c-0.6,0.6-1.3,0.9-2.2,0.9h-0.1
		c-0.8,0-1.6-0.3-2.2-0.9c-0.6-0.6-0.9-1.3-0.9-2.2v-1.6c-3.5,3.1-7.6,4.6-12.2,4.6c-5.1,0-9.5-1.8-13.1-5.4s-5.4-8-5.4-13.1
		c0-5.1,1.8-9.5,5.4-13.1c3.6-3.6,8-5.4,13.1-5.4C232.9,355.3,237.3,357.1,240.9,360.7z M219.2,365.2c-2.4,2.4-3.6,5.3-3.6,8.6
		c0,3.4,1.2,6.3,3.6,8.7c2.4,2.4,5.3,3.6,8.7,3.6c3.4,0,6.3-1.2,8.6-3.6c2.4-2.4,3.6-5.3,3.6-8.7c0-3.4-1.2-6.2-3.6-8.6
		c-2.4-2.4-5.3-3.6-8.6-3.6C224.4,361.6,221.5,362.8,219.2,365.2z"/>
	<path class="st12" d="M270.6,400c3.1,0,5.9-1.2,8.4-3.6c2.6-2.5,3.9-5.3,3.9-8.6v-0.1c-3.5,3.1-7.6,4.6-12.2,4.6
		c-5.1,0-9.5-1.8-13.1-5.4c-3.6-3.6-5.4-8-5.4-13.1c0-5.1,1.8-9.5,5.4-13.1c3.6-3.6,8-5.4,13.1-5.4c5.1,0,9.4,1.8,13,5.4
		c3.6,3.6,5.4,7.9,5.5,13v14c0,5-1.9,9.4-5.8,13.1c-3.8,3.6-8,5.4-12.7,5.4c-7.3,0-12.7-2.8-16.3-8.4c-0.5-0.8-0.7-1.7-0.3-2.7
		c0.3-0.9,0.9-1.6,1.9-1.9l0.1,0c1.5-0.5,2.7-0.1,3.6,1.2C262.1,398.1,265.7,400,270.6,400z M282.8,373.6c0-3.3-1.3-6.2-3.7-8.5
		c-2.4-2.3-5.2-3.5-8.6-3.5c-3.4,0-6.3,1.2-8.7,3.6c-2.4,2.4-3.6,5.3-3.6,8.6c0,3.4,1.2,6.3,3.6,8.7c2.4,2.4,5.3,3.6,8.7,3.6
		c3.4,0,6.3-1.2,8.6-3.6c2.4-2.4,3.6-5.3,3.6-8.7V373.6z"/>
	<path class="st12" d="M327.4,360.7c3.6,3.6,5.4,8,5.4,13.1v15.4c0,0.9-0.3,1.6-0.9,2.2c-0.6,0.6-1.3,0.9-2.2,0.9h-0.1
		c-0.8,0-1.6-0.3-2.2-0.9c-0.6-0.6-0.9-1.3-0.9-2.2v-1.6c-3.5,3.1-7.6,4.6-12.2,4.6c-5.1,0-9.5-1.8-13.1-5.4
		c-3.6-3.6-5.4-8-5.4-13.1c0-5.1,1.8-9.5,5.4-13.1c3.6-3.6,8-5.4,13.1-5.4S323.8,357.1,327.4,360.7z M305.7,365.2
		c-2.4,2.4-3.6,5.3-3.6,8.6c0,3.4,1.2,6.3,3.6,8.7c2.4,2.4,5.3,3.6,8.7,3.6c3.4,0,6.3-1.2,8.6-3.6c2.4-2.4,3.6-5.3,3.6-8.7
		c0-3.4-1.2-6.2-3.6-8.6c-2.4-2.4-5.3-3.6-8.6-3.6C311,361.6,308.1,362.8,305.7,365.2z"/>
	<path class="st12" d="M345.9,389.2c0,0.9-0.3,1.6-0.9,2.2c-0.6,0.6-1.3,0.9-2.2,0.9h-0.1c-0.8,0-1.6-0.3-2.2-0.9
		c-0.6-0.6-0.9-1.3-0.9-2.2v-18.6c0-4.2,1.5-7.8,4.5-10.8c3-3,6.6-4.5,10.8-4.5c5,0,9.1,2,12.2,6c3-4,7.1-6,12.1-6
		c4.2,0,7.8,1.5,10.8,4.5c3,3,4.5,6.6,4.5,10.8v18.6c0,0.9-0.3,1.6-0.9,2.2c-0.6,0.6-1.3,0.9-2.2,0.9h-0.1c-0.9,0-1.6-0.3-2.2-0.9
		c-0.6-0.6-0.9-1.3-0.9-2.2v-18.6c0-2.5-0.9-4.6-2.6-6.4c-1.8-1.8-3.9-2.6-6.4-2.6c-2.5,0-4.6,0.9-6.4,2.6c-1.8,1.8-2.6,3.9-2.6,6.4
		v18.6c0,0.9-0.3,1.6-0.9,2.2c-0.6,0.6-1.3,0.9-2.2,0.9h-0.1c-0.9,0-1.6-0.3-2.2-0.9c-0.6-0.6-0.9-1.3-0.9-2.2v-18.6
		c0-2.5-0.9-4.6-2.6-6.4c-1.8-1.8-3.9-2.6-6.4-2.6s-4.6,0.9-6.4,2.6c-1.8,1.8-2.6,3.9-2.6,6.4V389.2z"/>
	<path class="st12" d="M435.6,366.1c0.4,0.8,0.4,1.6,0.1,2.4c-0.3,0.8-0.8,1.4-1.6,1.7c-3.2,1.4-7.3,3.3-12.5,5.6
		c-6.4,2.9-10.5,4.8-12.4,5.6c2.4,3.1,5.6,4.7,9.6,4.7c2.6,0,5-0.8,7.2-2.3c2.1-1.5,3.5-3.5,4.4-5.9c0.5-1.4,1.5-2.1,3-2.1
		c1.1,0,1.9,0.4,2.5,1.3c0.6,0.9,0.7,1.8,0.4,2.8c-1.3,3.7-3.5,6.6-6.6,8.9c-3.2,2.3-6.8,3.5-10.8,3.5c-5.1,0-9.5-1.8-13.1-5.4
		c-3.6-3.6-5.4-8-5.4-13.1c0-5.1,1.8-9.5,5.4-13.1c3.6-3.6,8-5.4,13.1-5.4c3.7,0,7,1,10.1,3C431.9,360.3,434.1,362.9,435.6,366.1z
		 M418.8,361.6c-3.4,0-6.3,1.2-8.7,3.6c-2.4,2.4-3.6,5.3-3.6,8.7c0,0.6,0,1.2,0.1,1.8l21.4-9.7C425.7,363.1,422.5,361.6,418.8,361.6
		z"/>
	<path class="st12" d="M448.8,389.2c0,0.9-0.3,1.6-0.9,2.2c-0.6,0.6-1.3,0.9-2.2,0.9h-0.1c-0.8,0-1.6-0.3-2.2-0.9
		c-0.6-0.6-0.9-1.3-0.9-2.2v-18.5c0-4.2,1.5-7.9,4.5-10.9c3-3,6.6-4.5,10.9-4.5c4.2,0,7.8,1.5,10.8,4.5c3,3,4.5,6.6,4.5,10.9v18.5
		c0,0.9-0.3,1.6-0.9,2.2c-0.6,0.6-1.3,0.9-2.2,0.9h-0.1c-0.9,0-1.6-0.3-2.2-0.9c-0.6-0.6-0.9-1.3-0.9-2.2v-18.5
		c0-2.5-0.9-4.7-2.6-6.4c-1.8-1.8-3.9-2.7-6.4-2.7c-2.5,0-4.7,0.9-6.5,2.7c-1.8,1.8-2.6,3.9-2.6,6.4V389.2z"/>
	<path class="st12" d="M483.2,341.4c0.8,0,1.6,0.3,2.2,0.9c0.6,0.6,0.9,1.3,0.9,2.2v10.8h6.1c0.8,0,1.6,0.3,2.2,0.9
		c0.6,0.6,0.9,1.3,0.9,2.2v0.1c0,0.9-0.3,1.6-0.9,2.2c-0.6,0.6-1.3,0.9-2.2,0.9h-6.1v21.1c0,0.9,0.3,1.7,1,2.4c0.7,0.7,1.5,1,2.4,1
		h2.7c0.8,0,1.6,0.3,2.2,0.9c0.6,0.6,0.9,1.3,0.9,2.2v0.1c0,0.9-0.3,1.6-0.9,2.2c-0.6,0.6-1.3,0.9-2.2,0.9h-2.7
		c-2.7,0-4.9-0.9-6.8-2.8c-1.9-1.9-2.8-4.2-2.8-6.8v-38.2c0-0.9,0.3-1.6,0.9-2.2c0.6-0.6,1.3-0.9,2.2-0.9H483.2z"/>
	<path class="st12" d="M517.7,355.3c5.1,0,9.5,1.8,13.1,5.4c3.6,3.6,5.4,8,5.4,13.1c0,5.1-1.8,9.5-5.4,13.1c-3.6,3.6-8,5.4-13.1,5.4
		s-9.5-1.8-13.1-5.4s-5.4-8-5.4-13.1c0-5.1,1.8-9.5,5.4-13.1C508.2,357.1,512.6,355.3,517.7,355.3z M517.7,361.6
		c-3.4,0-6.3,1.2-8.7,3.6c-2.4,2.4-3.6,5.3-3.6,8.7c0,3.4,1.2,6.2,3.6,8.6c2.4,2.4,5.3,3.6,8.7,3.6c3.4,0,6.3-1.2,8.6-3.6
		c2.4-2.4,3.6-5.3,3.6-8.6c0-3.4-1.2-6.3-3.6-8.7C524,362.8,521.1,361.6,517.7,361.6z"/>
	<path class="st12" d="M545.7,392.3c-1,0-1.9-0.4-2.6-1.1c-0.7-0.7-1.1-1.6-1.1-2.6c0-1,0.4-1.9,1.1-2.6c0.7-0.7,1.6-1.1,2.6-1.1
		c1,0,1.9,0.4,2.6,1.1c0.7,0.7,1.1,1.6,1.1,2.6c0,1-0.4,1.9-1.1,2.6C547.6,391.9,546.7,392.3,545.7,392.3z M548.8,344.5
		c0-0.9-0.3-1.6-0.9-2.2c-0.6-0.6-1.3-0.9-2.2-0.9h-0.1c-0.8,0-1.6,0.3-2.2,0.9c-0.6,0.6-0.9,1.3-0.9,2.2v20.1l1.1,14.4h4l1.1-14.4
		V344.5z"/>
</g>
</svg>
