<?xml version="1.0" encoding="utf-8"?>
<!-- Generator: Adobe Illustrator 24.2.3, SVG Export Plug-In . SVG Version: 6.00 Build 0)  -->
<svg version="1.1" id="Camada_1" xmlns="http://www.w3.org/2000/svg" xmlns:xlink="http://www.w3.org/1999/xlink" x="0px" y="0px"
	 viewBox="0 0 856 627.5" style="enable-background:new 0 0 856 627.5;" xml:space="preserve">
<style type="text/css">
	.st0{fill:#0099FF;}
	.st1{fill:#2F6180;}
</style>
<g>
	<path class="st0" d="M532.2,11.7C576,6.5,591.8,45.1,584,76.4c-1.7,6.7-0.9,13.2-0.9,19.8c-0.2,78.8-0.2,157.5,0,236.5
		c0,9.1,0.5,18.3-2,27.1c-5.2,18.3-20.7,31-39.7,31.4c-19.8,0.5-39.5,0.3-59.3,0.3c-3.4,0-6,0.6-8.5,2.8
		c-16.8,14-33.7,27.7-50.6,41.5c-10.3,8.5-21.3,4.5-24.3-8.5c-2.2-9.9-4.9-19.8-6.7-29.6c-0.9-4.9-3-6.3-7.8-6.3
		c-23.5,0.3-47,0.5-70.4-0.2c-27.3-0.6-45.5-19.8-45.5-47.2c-0.2-77.1,0-154.2,0-231.4c0-11.4-0.5-22.9,0.2-34.2
		c0.9-14.6,9.7-22.9,22.1-28.1c13.8-5.8,28.4-9.1,42.8-12.5c49.4-11.4,98.4-7.7,147.5,3c14,3,27.9,6.9,42.2,7.2c1.7,0,3.3,0.2,5,0
		c7.5,0,14.4-1.4,17.6-9.1c2.8-6.7-0.6-16-7.5-21.6C536,15.5,533.6,14.4,532.2,11.7z M275.2,278.3C275,278.3,275,278.3,275.2,278.3
		c-0.2,18.5-0.2,37-0.2,55.5c0,6.3-0.5,12.5,0.8,18.7c3.8,19.8,19.3,31.7,40.4,31.7c24.6,0.2,49.1,0,73.5-0.2c4.4,0,6.7,1.1,7.8,5.8
		c2.7,11.9,5.8,23.8,8.5,35.7c2,8.5,5.8,9.9,12.5,4.2c16.9-13.8,33.9-27.6,50.6-41.5c3.4-2.8,6.7-4.2,11.3-4.2
		c18.7,0.3,37.3,0.3,56.1,0c23.8-0.3,39.2-16.1,39.2-39.7c0-45.1,0-90.3,0-135.3c0-6.3-2.4-7.5-8-4.9c-2.8,1.3-3.6,3.8-4.4,6.4
		c-1.6,6.3-3.1,12.4-5,18.5c-7.1,23.5-27.9,42-50.5,44.4c-28.1,3-51.6-9.1-64.7-32.6c-5.5-9.9-8-20.8-11.4-31.5c-2-6.7-8-9.2-13.6-6
		c-3.3,1.9-3.9,5.2-4.9,8.3c-3.4,12.7-6.9,25.4-14.9,36.1c-15.4,21-36.5,29.9-62.1,25.4c-25.4-4.4-41.4-20.5-48.6-45.1
		c-2-6.6-3.3-13.2-5.2-19.9c-0.8-2.8-3-4.9-6-4.4c-3.4,0.5-1.9,3.6-1.9,5.5C275,232.3,275.2,255.1,275.2,278.3z M550.1,19.7
		c0.8,2,1.3,3,1.6,3.9c6,17.1-3,30.4-21.2,31.5c-10.7,0.5-21.2-0.9-31.5-3.1c-25.7-5.5-51.6-10-77.7-13.3
		c-44.2-5.5-86.4,2.7-127.4,17.9c-10.8,4.1-18.5,11.3-18.7,23.8c-0.2,25.4,0,50.6-0.2,76c0,3.6,1.3,4.2,4.4,3.6
		c11.4-1.9,17.2-11,13.2-22.4c-8.3-22.9,9.1-38.9,26.3-42.8c21.3-4.7,43.3-5.2,65.1-4.2c24.1,1.3,47.5,6.6,71.2,11
		c25.9,4.9,51.6,10.5,78.2,9.4c10.3-0.5,19.6-3.4,27.6-10c17.6-14.6,23-43.7,12.1-63.8C568.3,28.6,561.5,22.1,550.1,19.7z M575.7,97
		c-4.4,4.4-7.5,8.2-11.4,11.1c-14.3,11-31,11.4-47.5,10.3c-22.4-1.6-44.4-5.5-66.3-10.2c-42-9.1-84.3-14.4-127.3-6.9
		c-17.9,3.1-27.7,17.1-23.2,34.2s-3.6,29.5-21.2,32c-1.3,0.2-2.8-0.5-3.6,1.6c-0.6,1.9,0,16.9,0.9,16.9c5.3,0,10-2.2,14.1-5.6
		c1.1-0.9,2-2,3-3.1c4.9-4.5,9.6-9.2,14.6-13.5c23.2-19.3,56.9-19,80.3,0.5c6,5,11.3,10.7,16.1,16.6c4.7,5.8,9.9,9.4,17.7,6.9
		c1.6-0.5,3.6,0,5.5,0.5c4.5,1.1,8.3-0.2,11.3-3.6c3.6-3.9,7.4-8,11-11.9c18.8-20.5,41.7-27.9,68.7-20.1
		c14.6,4.2,25.2,14.9,35.9,25.1c4.9,4.7,10.3,7.4,16.8,8.8c3.8,0.8,4.9-0.3,4.9-3.9C575.7,154.5,575.7,126.4,575.7,97z M347.4,266
		c30.1,0,54.5-24.6,54.5-54.7c0-28.7-25.4-53.8-53.9-53.6c-29.9,0.2-54.1,24.5-54.2,54.4C293.7,241.5,318,266,347.4,266z M552.5,212
		c-0.2-31.7-25.2-53.8-53.5-54.4c-29.6-0.5-53.8,23.7-54.5,52.5c-0.9,29.3,22.7,55.2,52.8,55.5C527.8,266.3,552.3,242.3,552.5,212z"
		/>
	<path class="st0" d="M305.7,60c39.2-16.8,79.8-17.2,120.9-10.2C385.7,47.4,344.9,45.9,305.7,60z"/>
	<path class="st0" d="M488.5,100.6c30.3,4.7,58.2,3.4,74-29.8c1.1,9.9-6,21.2-16.1,26.5c-12.5,6.7-26.2,9.1-40.3,7.2
		C500.3,103.7,494.1,103.7,488.5,100.6z"/>
	<path class="st0" d="M329.9,209.2c0.3-7.7,1.4-15.7,5.8-22.7c6.3-10.2,16.1-10.2,21.9,0.3c8,14.6,8.2,29.9,0.3,44.7
		c-6,11.4-16.5,11.3-22.9-0.2C331.3,224.7,330,217.4,329.9,209.2z"/>
	<path class="st0" d="M517,209.5c-0.6,8-1.7,16.1-6.1,23.2c-6.3,9.9-16.1,9.9-21.6-0.3c-8.3-15.4-8.5-31,0.3-46.2
		c5.8-9.9,14.9-9.6,21.2,0.2C515.5,193.2,516.2,201.4,517,209.5z"/>
</g>
<g>
	<path class="st0" d="M163.4,525.9c10.4,10.4,15.5,22.8,15.5,37.3v44c0,2.4-0.8,4.6-2.6,6.2c-1.8,1.8-3.8,2.6-6.2,2.6h-0.3
		c-2.4,0-4.4-0.8-6.2-2.6c-1.8-1.6-2.6-3.8-2.6-6.2v-4.4c-10,8.9-21.7,13.2-34.9,13.2c-14.5,0-27.1-5.1-37.3-15.5
		c-10.4-10.4-15.5-22.8-15.5-37.3s5.1-27.1,15.5-37.3c10.4-10.4,22.8-15.5,37.3-15.5C140.6,510.5,153.2,515.6,163.4,525.9z
		 M101.3,538.6c-6.7,6.9-10.1,15.1-10.1,24.6c0,9.7,3.4,17.9,10.1,24.8c6.9,6.7,15.1,10.1,24.8,10.1s17.9-3.4,24.6-10.1
		c6.9-6.9,10.2-15.1,10.2-24.8c0-9.6-3.4-17.8-10.2-24.6c-6.7-6.9-14.9-10.2-24.6-10.2S108.2,531.7,101.3,538.6z"/>
	<path class="st0" d="M216.2,607.3c0,2.4-0.8,4.6-2.6,6.2c-1.8,1.8-3.8,2.6-6.2,2.6h-0.3c-2.4,0-4.4-0.8-6.2-2.6
		c-1.8-1.6-2.6-3.8-2.6-6.2v-52.9c0-12.1,4.3-22.5,12.9-31.1c8.6-8.6,19-12.9,31.1-12.9s22.3,4.3,31,12.9c8.6,8.6,12.9,19,12.9,31.1
		v52.9c0,2.4-0.8,4.6-2.6,6.2c-1.6,1.8-3.8,2.6-6.2,2.6h-0.1c-2.4,0-4.6-0.8-6.3-2.6c-1.8-1.6-2.6-3.8-2.6-6.2v-52.9
		c0-7.1-2.6-13.3-7.5-18.4c-5.1-5.1-11.2-7.7-18.4-7.7c-7.3,0-13.3,2.6-18.4,7.7c-5,5.1-7.5,11.2-7.5,18.4v52.9H216.2z"/>
	<path class="st0" d="M355.2,510.5c14.5,0,27.1,5.1,37.3,15.5c10.4,10.4,15.5,22.8,15.5,37.3s-5.1,27.1-15.5,37.3
		c-10.4,10.4-22.8,15.5-37.3,15.5s-27.1-5.1-37.3-15.5c-10.4-10.4-15.5-22.8-15.5-37.3s5.1-27.1,15.5-37.3
		C328.3,515.6,340.7,510.5,355.2,510.5z M355.2,528.5c-9.7,0-17.9,3.4-24.8,10.2c-6.7,6.9-10.1,15.1-10.1,24.8
		c0,9.6,3.4,17.8,10.1,24.6c6.9,6.9,15.1,10.2,24.8,10.2c9.7,0,17.9-3.4,24.6-10.2c6.9-6.9,10.2-15.1,10.2-24.6
		c0-9.7-3.4-17.9-10.2-24.8C373.1,532,364.9,528.5,355.2,528.5z"/>
	<path class="st0" d="M433.7,470.8c2.4,0,4.4,0.8,6.2,2.6c1.8,1.8,2.6,3.9,2.6,6.3v30.8h17.4c2.4,0,4.4,0.8,6.2,2.6
		c1.8,1.8,2.6,3.9,2.6,6.3v0.1c0,2.4-0.8,4.6-2.6,6.2c-1.8,1.8-3.8,2.6-6.2,2.6h-17.4v60.3c0,2.7,0.9,4.8,2.8,6.7s4.2,2.8,6.9,2.8
		h7.7c2.4,0,4.4,0.8,6.2,2.6c1.8,1.8,2.6,3.9,2.6,6.3v0.1c0,2.4-0.8,4.6-2.6,6.2c-1.8,1.8-3.8,2.6-6.2,2.6h-7.7
		c-7.7,0-14.1-2.7-19.5-8.1c-5.4-5.4-8.1-11.8-8.1-19.4v-109c0-2.4,0.8-4.6,2.6-6.3c1.8-1.6,3.8-2.6,6.2-2.6h0.4v0.3H433.7z"/>
	<path class="st0" d="M572.4,525.9c10.4,10.4,15.5,22.8,15.5,37.3v44c0,2.4-0.8,4.6-2.6,6.2c-1.8,1.8-3.8,2.6-6.2,2.6h-0.3
		c-2.4,0-4.4-0.8-6.2-2.6c-1.8-1.6-2.6-3.8-2.6-6.2v-4.4c-10,8.9-21.7,13.2-34.9,13.2c-14.5,0-27.1-5.1-37.3-15.5
		c-10.4-10.4-15.5-22.8-15.5-37.3s5.1-27.1,15.5-37.3c10.4-10.4,22.8-15.5,37.3-15.5C549.6,510.5,562,515.6,572.4,525.9z
		 M510.3,538.6c-6.7,6.9-10.1,15.1-10.1,24.6c0,9.7,3.4,17.9,10.1,24.8c6.9,6.7,15.1,10.1,24.8,10.1s17.9-3.4,24.6-10.1
		c6.9-6.9,10.2-15.1,10.2-24.8c0-9.6-3.4-17.8-10.2-24.6c-6.7-6.9-14.9-10.2-24.6-10.2S517.2,531.7,510.3,538.6z"/>
	<path class="st1" d="M752.5,607.3c0,2.4-0.8,4.6-2.6,6.2c-1.8,1.8-3.8,2.6-6.2,2.6h-0.3c-2.4,0-4.4-0.8-6.2-2.6
		c-1.8-1.6-2.6-3.8-2.6-6.2v-46H676v46c0,2.4-0.8,4.6-2.6,6.2c-1.8,1.8-3.8,2.6-6.2,2.6h-0.3c-2.4,0-4.4-0.8-6.2-2.6
		c-1.8-1.6-2.6-3.8-2.6-6.2v-89.4c0-13.1,4.6-24.1,13.9-33.4c9.3-9.2,20.3-13.7,33.3-13.7c13.1,0,24.1,4.6,33.4,13.7
		c9.3,9.3,13.9,20.3,13.9,33.4v89.4H752.5z M734.6,543.4v-25.5c0-8.1-2.8-14.9-8.5-20.7c-5.8-5.8-12.7-8.6-20.9-8.6
		c-8.1,0-14.9,2.8-20.7,8.6c-5.7,5.8-8.5,12.7-8.5,20.7v25.6L734.6,543.4L734.6,543.4z"/>
	<path class="st1" d="M785.8,470.8c2.4,0,4.4,0.8,6.2,2.6c1.8,1.8,2.6,3.9,2.6,6.3v127.8c0,2.4-0.8,4.6-2.6,6.2
		c-1.8,1.8-3.8,2.6-6.2,2.6h-0.3c-2.4,0-4.4-0.8-6.2-2.6c-1.8-1.6-2.6-3.8-2.6-6.2V479.6c0-2.4,0.8-4.6,2.6-6.3
		c1.8-1.6,3.8-2.6,6.2-2.6L785.8,470.8L785.8,470.8z"/>
</g>
</svg>
