<?xml version="1.0" encoding="utf-8"?>
<!-- Generator: Adobe Illustrator 24.0.1, SVG Export Plug-In . SVG Version: 6.00 Build 0)  -->
<svg version="1.1" id="Camada_1" xmlns="http://www.w3.org/2000/svg" xmlns:xlink="http://www.w3.org/1999/xlink" x="0px" y="0px"
	 viewBox="0 0 380 380.1" style="enable-background:new 0 0 380 380.1;" xml:space="preserve">
<style type="text/css">
	.st0{fill:#099BFD;}
</style>
<g>
	<path class="st0" d="M270.7,26.3c33.5-4,45.6,25.5,39.6,49.5c-1.3,5.2-0.7,10.1-0.7,15.1c-0.1,60.3-0.1,120.6,0,181
		c0,7,0.3,14-1.6,20.8c-4,14-15.8,23.7-30.3,24c-15.1,0.4-30.2,0.2-45.4,0.2c-2.6,0-4.5,0.5-6.5,2.2c-12.8,10.7-25.8,21.2-38.7,31.8
		c-7.9,6.5-16.3,3.5-18.6-6.5c-1.7-7.6-3.7-15.1-5.2-22.7c-0.7-3.7-2.3-4.8-6-4.8c-18,0.2-36,0.3-53.9-0.1
		c-20.9-0.5-34.8-15.1-34.8-36.1c-0.1-59,0-118.1,0-177.1c0-8.7-0.4-17.5,0.1-26.2c0.7-11.2,7.4-17.5,16.9-21.5
		c10.6-4.4,21.7-7,32.8-9.6c37.8-8.7,75.4-5.9,112.9,2.3c10.7,2.3,21.3,5.3,32.3,5.5c1.3,0,2.5,0.1,3.8,0c5.7,0,11-1.1,13.4-7
		c2.1-5.2-0.5-12.2-5.8-16.5C273.6,29.2,271.8,28.4,270.7,26.3z M73.9,230.4C73.8,230.4,73.8,230.4,73.9,230.4
		c-0.1,14.2-0.1,28.3-0.1,42.5c0,4.8-0.3,9.6,0.6,14.3c2.9,15.1,14.7,24.2,30.9,24.2c18.8,0.1,37.5,0,56.3-0.1c3.4,0,5.2,0.8,6,4.4
		c2,9.1,4.4,18.2,6.5,27.3c1.5,6.5,4.4,7.5,9.6,3.2c12.9-10.6,25.9-21.1,38.7-31.8c2.6-2.1,5.2-3.2,8.6-3.2c14.3,0.2,28.6,0.2,43,0
		c18.2-0.2,30-12.3,30-30.4c0-34.5,0-69.1,0-103.6c0-4.8-1.8-5.8-6.1-3.7c-2.1,1-2.8,2.9-3.3,4.9c-1.2,4.8-2.4,9.5-3.8,14.2
		c-5.4,18-21.4,32.1-38.6,34c-21.5,2.3-39.5-6.9-49.5-25c-4.2-7.6-6.1-15.9-8.7-24.1c-1.6-5.2-6.1-7.1-10.4-4.6
		c-2.5,1.4-3,4-3.7,6.4c-2.6,9.7-5.3,19.4-11.4,27.6c-11.8,16.1-28,22.9-47.5,19.4c-19.4-3.4-31.7-15.7-37.2-34.6
		c-1.5-5-2.5-10.1-3.9-15.2c-0.6-2.2-2.3-3.7-4.6-3.4c-2.6,0.4-1.4,2.8-1.4,4.2C73.8,195.1,73.9,212.7,73.9,230.4z M284.4,32.4
		c0.6,1.6,0.9,2.3,1.2,3c4.6,13.1-2.3,23.3-16.2,24.1c-8.2,0.4-16.2-0.7-24.1-2.4c-19.7-4.2-39.5-7.7-59.5-10.2
		c-33.8-4.2-66.1,2-97.5,13.7C80,63.7,74.1,69.2,74,78.8c-0.1,19.4,0,38.8-0.1,58.2c0,2.7,1,3.2,3.4,2.8c8.7-1.4,13.2-8.4,10.1-17.2
		c-6.3-17.5,7-29.8,20.1-32.7c16.3-3.6,33.1-4,49.8-3.2c18.5,0.9,36.4,5,54.5,8.4c19.8,3.7,39.5,8,59.9,7.2c7.9-0.3,15-2.6,21.1-7.7
		c13.4-11.2,17.6-33.5,9.2-48.8C298.3,39.3,293.1,34.2,284.4,32.4z M303.9,91.6c-3.3,3.3-5.7,6.2-8.7,8.5
		c-10.9,8.4-23.7,8.8-36.4,7.9c-17.1-1.2-34-4.2-50.8-7.8c-32.2-7-64.5-11-97.4-5.3c-13.7,2.4-21.2,13.1-17.7,26.2
		s-2.7,22.5-16.2,24.5c-1,0.1-2.2-0.3-2.7,1.2c-0.5,1.4,0,13,0.7,13c4.1,0,7.7-1.7,10.8-4.3c0.8-0.7,1.5-1.6,2.3-2.4
		c3.7-3.5,7.3-7.1,11.2-10.3c17.8-14.8,43.6-14.5,61.4,0.4c4.5,3.8,8.6,8.1,12.3,12.7c3.6,4.4,7.5,7.2,13.6,5.3
		c1.2-0.4,2.8,0,4.2,0.3c3.5,0.8,6.3-0.1,8.6-2.7c2.8-3,5.6-6.1,8.4-9.1c14.4-15.7,31.9-21.4,52.6-15.4
		c11.2,3.2,19.3,11.4,27.5,19.2c3.7,3.6,7.9,5.6,12.8,6.7c2.9,0.6,3.7-0.2,3.7-3C303.9,135.6,303.9,114.1,303.9,91.6z M129.3,220.9
		c23,0,41.7-18.8,41.7-41.9c0-21.9-19.4-41.1-41.3-41c-22.9,0.1-41.4,18.7-41.5,41.6C88.1,202.2,106.7,220.9,129.3,220.9z
		 M286.2,179.7c-0.1-24.2-19.3-41.2-40.9-41.6c-22.7-0.4-41.1,18.1-41.7,40.2c-0.7,22.4,17.4,42.2,40.4,42.5
		C267.4,221.2,286.1,202.8,286.2,179.7z"/>
	<path class="st0" d="M97.3,63.3c30-12.8,61.1-13.2,92.5-7.8C158.6,53.7,127.4,52.5,97.3,63.3z"/>
	<path class="st0" d="M237.3,94.3c23.2,3.6,44.5,2.6,56.6-22.8c0.8,7.5-4.5,16.2-12.3,20.3c-9.6,5.1-20,6.9-30.8,5.5
		C246.3,96.7,241.6,96.8,237.3,94.3z"/>
	<path class="st0" d="M115.8,177.5c0.2-5.9,1.1-12,4.4-17.4c4.8-7.8,12.4-7.8,16.8,0.2c6.1,11.2,6.2,22.9,0.2,34.2
		c-4.6,8.8-12.6,8.6-17.5-0.1C116.9,189.4,115.9,183.7,115.8,177.5z"/>
	<path class="st0" d="M259.1,177.7c-0.5,6.1-1.3,12.3-4.7,17.7c-4.8,7.5-12.3,7.6-16.5-0.2c-6.4-11.7-6.5-23.8,0.2-35.4
		c4.4-7.6,11.4-7.3,16.2,0.1C257.9,165.3,258.5,171.5,259.1,177.7z"/>
</g>
</svg>
