<?xml version="1.0" encoding="utf-8"?>
<!-- Generator: Adobe Illustrator 24.2.1, SVG Export Plug-In . SVG Version: 6.00 Build 0)  -->
<svg version="1.1" id="Camada_1" xmlns="http://www.w3.org/2000/svg" xmlns:xlink="http://www.w3.org/1999/xlink" x="0px" y="0px"
	 viewBox="0 0 1762.6 627.5" style="enable-background:new 0 0 1762.6 627.5;" xml:space="preserve">
<style type="text/css">
	.st0{fill:#0099FF;}
	.st1{fill:#2F6180;}
</style>
<g>
	<path class="st0" d="M336.6,99.8c43.8-5.2,59.6,33.4,51.8,64.7c-1.7,6.7-0.9,13.2-0.9,19.8c-0.2,78.8-0.2,157.5,0,236.5
		c0,9.1,0.5,18.3-2,27.1c-5.2,18.3-20.7,31-39.7,31.4c-19.8,0.5-39.5,0.3-59.3,0.3c-3.4,0-6,0.6-8.5,2.8
		c-16.8,14-33.7,27.7-50.6,41.5c-10.3,8.5-21.3,4.5-24.3-8.5c-2.2-9.9-4.9-19.8-6.7-29.6c-0.9-4.9-3-6.3-7.8-6.3
		c-23.5,0.3-47,0.5-70.4-0.2c-27.3-0.6-45.5-19.8-45.5-47.2c-0.2-77.1,0-154.2,0-231.4c0-11.4-0.5-22.9,0.2-34.2
		c0.9-14.6,9.7-22.9,22.1-28.1c13.8-5.8,28.4-9.1,42.8-12.5c49.4-11.4,98.4-7.7,147.5,3c14,3,27.9,6.9,42.2,7.2c1.7,0,3.3,0.2,5,0
		c7.5,0,14.4-1.4,17.6-9.1c2.8-6.7-0.6-16-7.5-21.6C340.4,103.6,338,102.5,336.6,99.8z M79.6,366.4
		C79.4,366.4,79.4,366.4,79.6,366.4c-0.2,18.5-0.2,37-0.2,55.5c0,6.3-0.5,12.5,0.8,18.7c3.8,19.8,19.3,31.7,40.4,31.7
		c24.6,0.2,49.1,0,73.5-0.2c4.4,0,6.7,1.1,7.8,5.8c2.7,11.9,5.8,23.8,8.5,35.7c2,8.5,5.8,9.9,12.5,4.2
		c16.9-13.8,33.9-27.6,50.6-41.5c3.4-2.8,6.7-4.2,11.3-4.2c18.7,0.3,37.3,0.3,56.1,0c23.8-0.3,39.2-16.1,39.2-39.7
		c0-45.1,0-90.3,0-135.3c0-6.3-2.4-7.5-8-4.9c-2.8,1.3-3.6,3.8-4.4,6.4c-1.6,6.3-3.1,12.4-5,18.5c-7.1,23.5-27.9,42-50.5,44.4
		c-28.1,3-51.6-9.1-64.7-32.6c-5.5-9.9-8-20.8-11.4-31.5c-2-6.7-8-9.2-13.6-6c-3.3,1.9-3.9,5.2-4.9,8.3
		c-3.4,12.7-6.9,25.4-14.9,36.1c-15.4,21-36.5,29.9-62.1,25.4c-25.4-4.4-41.4-20.5-48.6-45.1c-2-6.6-3.3-13.2-5.2-19.9
		c-0.8-2.8-3-4.9-6-4.4c-3.4,0.5-1.9,3.6-1.9,5.5C79.4,320.4,79.6,343.2,79.6,366.4z M354.5,107.8c0.8,2,1.3,3,1.6,3.9
		c6,17.1-3,30.4-21.2,31.5c-10.7,0.5-21.2-0.9-31.5-3.1c-25.7-5.5-51.6-10-77.7-13.3c-44.2-5.5-86.4,2.7-127.4,17.9
		c-10.8,4.1-18.5,11.3-18.7,23.8c-0.2,25.4,0,50.6-0.2,76c0,3.6,1.3,4.2,4.4,3.6c11.4-1.9,17.2-11,13.2-22.4
		c-8.3-22.9,9.1-38.9,26.3-42.8c21.3-4.7,43.3-5.2,65.1-4.2c24.1,1.3,47.5,6.6,71.2,11c25.9,4.9,51.6,10.5,78.2,9.4
		c10.3-0.5,19.6-3.4,27.6-10c17.6-14.6,23-43.7,12.1-63.8C372.7,116.7,365.9,110.2,354.5,107.8z M380.1,185.1
		c-4.4,4.4-7.5,8.2-11.4,11.1c-14.3,11-31,11.4-47.5,10.3c-22.4-1.6-44.4-5.5-66.3-10.2c-42-9.1-84.3-14.4-127.3-6.9
		c-17.9,3.1-27.7,17.1-23.2,34.2s-3.6,29.5-21.2,32c-1.3,0.2-2.8-0.5-3.6,1.6c-0.6,1.9,0,16.9,0.9,16.9c5.3,0,10-2.2,14.1-5.6
		c1.1-0.9,2-2,3-3.1c4.9-4.5,9.6-9.2,14.6-13.5c23.2-19.3,56.9-19,80.3,0.5c6,5,11.3,10.7,16.1,16.6c4.7,5.8,9.9,9.4,17.7,6.9
		c1.6-0.5,3.6,0,5.5,0.5c4.5,1.1,8.3-0.2,11.3-3.6c3.6-3.9,7.4-8,11-11.9c18.8-20.5,41.7-27.9,68.7-20.1
		c14.6,4.2,25.2,14.9,35.9,25.1c4.9,4.7,10.3,7.4,16.8,8.8c3.8,0.8,4.9-0.3,4.9-3.9C380.1,242.6,380.1,214.5,380.1,185.1z
		 M151.8,354.1c30.1,0,54.5-24.6,54.5-54.7c0-28.7-25.4-53.8-53.9-53.6c-29.9,0.2-54.1,24.5-54.2,54.4
		C98.1,329.6,122.4,354.1,151.8,354.1z M356.9,300.1c-0.2-31.7-25.2-53.8-53.5-54.4c-29.6-0.5-53.8,23.7-54.5,52.5
		c-0.9,29.3,22.7,55.2,52.8,55.5C332.2,354.4,356.7,330.4,356.9,300.1z"/>
	<path class="st0" d="M110.1,148.1c39.2-16.8,79.8-17.2,120.9-10.2C190.1,135.5,149.3,134,110.1,148.1z"/>
	<path class="st0" d="M292.9,188.7c30.3,4.7,58.2,3.4,74-29.8c1.1,9.9-6,21.2-16.1,26.5c-12.5,6.7-26.2,9.1-40.3,7.2
		C304.7,191.8,298.5,191.8,292.9,188.7z"/>
	<path class="st0" d="M134.3,297.3c0.3-7.7,1.4-15.7,5.8-22.7c6.3-10.2,16.1-10.2,21.9,0.3c8,14.6,8.2,29.9,0.3,44.7
		c-6,11.4-16.5,11.3-22.9-0.2C135.7,312.8,134.4,305.5,134.3,297.3z"/>
	<path class="st0" d="M321.4,297.6c-0.6,8-1.7,16.1-6.1,23.2c-6.3,9.9-16.1,9.9-21.6-0.3c-8.3-15.4-8.5-31,0.3-46.2
		c5.8-9.9,14.9-9.6,21.2,0.2C319.9,281.3,320.6,289.5,321.4,297.6z"/>
</g>
<g>
	<path class="st0" d="M630.5,281.8c18.8,18.8,28.1,41.3,28.1,67.5V429c0,4.3-1.4,8.3-4.7,11.2c-3.3,3.3-6.9,4.7-11.2,4.7h-0.5
		c-4.3,0-8-1.4-11.2-4.7c-3.3-2.9-4.7-6.9-4.7-11.2v-8c-18.1,16.1-39.3,23.9-63.2,23.9c-26.3,0-49.1-9.2-67.5-28.1
		c-18.8-18.8-28.1-41.3-28.1-67.5s9.2-49.1,28.1-67.5c18.8-18.8,41.3-28.1,67.5-28.1C589.2,253.9,612,263.1,630.5,281.8z M518,304.8
		c-12.1,12.5-18.3,27.3-18.3,44.5c0,17.6,6.2,32.4,18.3,44.9c12.5,12.1,27.3,18.3,44.9,18.3c17.6,0,32.4-6.2,44.5-18.3
		c12.5-12.5,18.5-27.3,18.5-44.9c0-17.4-6.2-32.2-18.5-44.5c-12.1-12.5-27-18.5-44.5-18.5S530.5,292.3,518,304.8z"/>
	<path class="st0" d="M726.1,429.2c0,4.3-1.4,8.3-4.7,11.2c-3.3,3.3-6.9,4.7-11.2,4.7h-0.5c-4.3,0-8-1.4-11.2-4.7
		c-3.3-2.9-4.7-6.9-4.7-11.2v-95.8c0-21.9,7.8-40.7,23.4-56.3c15.6-15.6,34.4-23.4,56.3-23.4c21.9,0,40.4,7.8,56.1,23.4
		c15.6,15.6,23.4,34.4,23.4,56.3v95.8c0,4.3-1.4,8.3-4.7,11.2c-2.9,3.3-6.9,4.7-11.2,4.7h-0.2c-4.3,0-8.3-1.4-11.4-4.7
		c-3.3-2.9-4.7-6.9-4.7-11.2v-95.8c0-12.9-4.7-24.1-13.6-33.3c-9.2-9.2-20.3-13.9-33.3-13.9c-13.2,0-24.1,4.7-33.3,13.9
		c-9.1,9.2-13.6,20.3-13.6,33.3v95.8H726.1z"/>
	<path class="st0" d="M977.7,253.9c26.3,0,49.1,9.2,67.5,28.1c18.8,18.8,28.1,41.3,28.1,67.5s-9.2,49.1-28.1,67.5
		c-18.8,18.8-41.3,28.1-67.5,28.1s-49.1-9.2-67.5-28.1c-18.8-18.8-28.1-41.3-28.1-67.5s9.2-49.1,28.1-67.5
		C929,263.1,951.5,253.9,977.7,253.9z M977.7,286.5c-17.6,0-32.4,6.2-44.9,18.5c-12.1,12.5-18.3,27.3-18.3,44.9
		c0,17.4,6.2,32.2,18.3,44.5c12.5,12.5,27.3,18.5,44.9,18.5c17.6,0,32.4-6.2,44.5-18.5c12.5-12.5,18.5-27.3,18.5-44.5
		c0-17.6-6.2-32.4-18.5-44.9C1010.1,292.8,995.3,286.5,977.7,286.5z"/>
	<path class="st0" d="M1119.9,182c4.3,0,8,1.4,11.2,4.7c3.3,3.3,4.7,7.1,4.7,11.4v55.8h31.5c4.3,0,8,1.4,11.2,4.7
		c3.3,3.3,4.7,7.1,4.7,11.4v0.2c0,4.3-1.4,8.3-4.7,11.2c-3.3,3.3-6.9,4.7-11.2,4.7h-31.5v109.2c0,4.9,1.6,8.7,5.1,12.1
		c3.4,3.4,7.6,5.1,12.5,5.1h13.9c4.3,0,8,1.4,11.2,4.7c3.3,3.3,4.7,7.1,4.7,11.4v0.2c0,4.3-1.4,8.3-4.7,11.2
		c-3.3,3.3-6.9,4.7-11.2,4.7h-13.9c-13.9,0-25.5-4.9-35.3-14.7c-9.8-9.8-14.7-21.4-14.7-35.1V197.6c0-4.3,1.4-8.3,4.7-11.4
		c3.3-2.9,6.9-4.7,11.2-4.7h0.7v0.5H1119.9z"/>
	<path class="st0" d="M1371,281.8c18.8,18.8,28.1,41.3,28.1,67.5V429c0,4.3-1.4,8.3-4.7,11.2c-3.3,3.3-6.9,4.7-11.2,4.7h-0.5
		c-4.3,0-8-1.4-11.2-4.7c-3.3-2.9-4.7-6.9-4.7-11.2v-8c-18.1,16.1-39.3,23.9-63.2,23.9c-26.3,0-49.1-9.2-67.5-28.1
		c-18.8-18.8-28.1-41.3-28.1-67.5s9.2-49.1,28.1-67.5c18.8-18.8,41.3-28.1,67.5-28.1C1329.7,253.9,1352.1,263.1,1371,281.8z
		 M1258.5,304.8c-12.1,12.5-18.3,27.3-18.3,44.5c0,17.6,6.2,32.4,18.3,44.9c12.5,12.1,27.3,18.3,44.9,18.3
		c17.6,0,32.4-6.2,44.5-18.3c12.5-12.5,18.5-27.3,18.5-44.9c0-17.4-6.2-32.2-18.5-44.5c-12.1-12.5-27-18.5-44.5-18.5
		C1285.9,286.3,1271,292.3,1258.5,304.8z"/>
	<path class="st1" d="M1606.5,429.2c0,4.3-1.4,8.3-4.7,11.2c-3.3,3.3-6.9,4.7-11.2,4.7h-0.5c-4.3,0-8-1.4-11.2-4.7
		c-3.3-2.9-4.7-6.9-4.7-11.2v-83.3H1468v83.3c0,4.3-1.4,8.3-4.7,11.2c-3.3,3.3-6.9,4.7-11.2,4.7h-0.5c-4.3,0-8-1.4-11.2-4.7
		c-3.3-2.9-4.7-6.9-4.7-11.2V267.3c0-23.7,8.3-43.6,25.2-60.5c16.8-16.7,36.8-24.8,60.3-24.8c23.7,0,43.6,8.3,60.5,24.8
		c16.8,16.8,25.2,36.8,25.2,60.5v161.9H1606.5z M1574.1,313.5v-46.2c0-14.7-5.1-27-15.4-37.5c-10.5-10.5-23-15.6-37.8-15.6
		c-14.7,0-27,5.1-37.5,15.6c-10.3,10.5-15.4,23-15.4,37.5v46.3h106.1V313.5z"/>
	<path class="st1" d="M1666.8,182c4.3,0,8,1.4,11.2,4.7c3.3,3.3,4.7,7.1,4.7,11.4v231.4c0,4.3-1.4,8.3-4.7,11.2
		c-3.3,3.3-6.9,4.7-11.2,4.7h-0.5c-4.3,0-8-1.4-11.2-4.7c-3.3-2.9-4.7-6.9-4.7-11.2V198c0-4.3,1.4-8.3,4.7-11.4
		c3.3-2.9,6.9-4.7,11.2-4.7h0.5V182z"/>
</g>
</svg>
