<?xml version="1.0" encoding="utf-8"?>
<!-- Generator: Adobe Illustrator 24.0.1, SVG Export Plug-In . SVG Version: 6.00 Build 0)  -->
<svg version="1.1" id="Camada_1" xmlns="http://www.w3.org/2000/svg" xmlns:xlink="http://www.w3.org/1999/xlink" x="0px" y="0px"
	 viewBox="0 0 1200 1000" style="enable-background:new 0 0 1200 1000;" xml:space="preserve">
<style type="text/css">
	.st0{fill:#059BFD;}
	.st1{fill:#064366;}
</style>
<g>
	<path class="st0" d="M759.2,102.4c20.7-1.1,39.8-0.9,56.3,12c17.9,13.9,26.5,32.6,28.3,54.6c1.1,13.8,0.6,27.7-4.2,41
		c-0.4,1.1-0.6,2.3-0.5,3.4c1.9,60.3,0.5,120.6,0.8,180.9c0.3,70.8,0.1,141.6,0.2,212.4c0,16.2-1.8,32-11,45.9
		c-13,19.7-31.2,30.9-54.9,31.2c-31,0.5-62,0.1-93,0c-2.8,0-4.7,1.1-6.6,2.7c-26.8,22-53.8,43.7-80.3,66c-11,9.3-31.8,7.7-36.1-12
		c-3.8-17.6-8.3-35-12.3-52.5c-0.7-3.2-1.9-4.2-5.2-4.1c-35.8,0.1-71.6,0.1-107.5,0.1c-8.7,0-17.3-0.5-25.7-3
		c-15.2-4.6-27.1-13.6-36.5-26.4c-9.7-13.2-13.1-27.9-13.1-44.1c0.2-131,0.1-261.9,0.1-392.9c0-2.2,0.1-4.3,0-6.5
		c-1.2-23.5,10.7-38.8,31.1-48.2c19.1-8.8,39.7-13.5,60-18.5c44.8-11,90.4-14.5,136.4-11.9c32.3,1.9,64.1,7.8,95.8,14.1
		c22.7,4.5,45,10.9,68.3,11.6c6.9,0.2,13.7,0,20.2-2.2c8.4-2.9,13.5-9.5,13.5-18.4c0-10.2-3.7-18.8-11.8-25.3
		C767.8,109.1,764,106.2,759.2,102.4z M828.1,509.5C828.1,509.5,828,509.5,828.1,509.5c0-35.8,0-71.6,0-107.5c0-1.3,0-2.7,0-4
		c0-1.4-0.6-1.9-2.1-2.1c-7.1-1.1-13.4,2.7-15.3,9.6c-3,10.7-5.3,21.7-8.9,32.2c-11.5,33.4-34.1,55.7-68.6,64.3
		c-42.1,10.5-91.6-9-112.4-58.8c-5.3-12.8-8.7-26.2-12.7-39.4c-1.4-4.6-4-7.5-8.6-8.9c-8.1-2.4-14.9,1.9-17.5,10.9
		c-4.3,15.2-8.3,30.4-15.5,44.7c-19.2,38.1-57.3,59.4-99.5,53.2c-38.7-5.7-64.4-28.5-76.9-65.4c-3.5-10.2-5.4-20.9-7.9-31.4
		c-1.1-4.7-2.7-8.8-8.2-10.2c-2.9-0.7-4.5-0.6-4.3,3c0.1,2.3,0,4.7,0,7c0,68.8,0.1,137.6,0.1,206.4c0,23.5,10.8,40.7,30.8,52.3
		c9.9,5.7,21,6.9,32.4,6.8c37.8-0.1,75.6-0.1,113.5-0.2c4.8,0,8.3,0.9,9.6,6.4c4.6,19.8,9.5,39.5,14.1,59.2
		c2.3,9.8,8.8,12.1,16.7,5.7c27.6-22.6,55.2-45.1,82.7-67.7c3-2.5,6-3.6,10-3.6c31,0.1,62,0.1,93,0c11.6,0,22.4-2.8,31.9-9.8
		c15.9-11.7,23.7-27.6,23.8-47.2C828.2,579.8,828.1,544.6,828.1,509.5z M789.4,114.9c1.2,2.7,2,4.5,2.7,6.3
		c9.2,22.2-1.1,42.3-24.5,47.2c-11.7,2.4-23.5,1.6-35.3,0.1c-17.4-2.2-34.2-7.3-51.4-10.1c-36.1-5.9-71.9-14-108.7-15
		c-22-0.6-43.9-1.9-65.8,0.3c-18,1.8-35.3,6.6-52.6,11.3c-19.4,5.2-39.2,9.4-57.6,17.5c-12.6,5.6-23.8,13.2-25.8,28.6
		c-0.6,4.8-1.2,9.6-1.2,14.4c0.2,37,1.5,73.9,0.4,110.9c-0.1,3.4,1.4,4,4.2,3.6c6.6-1,12.4-3.9,17.4-8.2c6.4-5.5,8.6-12.5,6.6-20.7
		c-0.6-2.6-1.4-5.1-2.3-7.7c-5.5-16.1-3.9-30.9,8.3-43.6c9.9-10.3,20.9-19,35.8-21.1c28.7-4.2,57.5-6.6,86.6-5.6
		c16.7,0.6,33.3,1.5,49.7,4.4c35.7,6.3,71.3,13.4,107,19.8c27.1,4.9,54.3,8.7,81.9,7.4c20.3-1,37.8-7.9,50.5-24.3
		c18.8-24.3,22.6-51.4,12.7-80.1C821.6,132.5,809.3,120.2,789.4,114.9z M828.2,233.2c-13.7,17.8-30,29-51,32
		c-16.9,2.4-33.9,2.5-50.8,0.4c-38-4.7-75.6-11.7-113.2-19.2c-29.4-5.9-58.9-11-89-11.5c-22.5-0.4-44.9,0.8-67.3,3.3
		c-14.6,1.6-28.4,4.6-39.9,14.7c-11.2,9.8-15,20.4-10.8,34.7c1.2,4.1,2.5,8.3,3.4,12.5c2,9.5,0.3,18.2-6.1,25.8
		c-7.9,9.3-17.9,14.7-30,15.9c-2.1,0.2-3.9,0-3.9,3c0.2,7.5,0.1,15,0,22.5c0,2.2,0.8,3.2,3,2.5c7.5-2.3,15.1-4.2,20.7-10.2
		c7.6-8.1,15.9-15.6,24.2-23.1c33.8-30.6,86.8-28.6,118.5-5.1c12.9,9.6,23.5,21.6,33.9,33.7c5.3,6.2,11.2,9.1,19.3,7.3
		c4.2-0.9,8.7-1.1,12.9,0c7.3,1.7,12.9-0.5,17.8-6c7.8-8.6,15.3-17.6,23.9-25.5c28.6-26.3,61.5-33.8,98.5-22.4
		c21.5,6.6,37.3,22.3,52.9,37.4c8.1,7.8,17.1,12.2,27.8,14.3c4.3,0.9,5.2-0.3,5.2-4.6c-0.1-40.5,0-81,0-121.4
		C828.2,241,828.2,237.8,828.2,233.2z M628.5,410.1c0.3,44.9,36.9,81.1,81,81.3c46.8,0.2,83.8-37.1,83.3-82.7
		c-0.5-47.4-38.2-81.4-81.3-81.7C664,326.7,628.2,363.1,628.5,410.1z M562.4,409.5c-0.1-43.4-32.7-80.4-78.4-82.4
		c-45-2-83.2,30.2-86,78.8c-2.6,44.7,33.3,83.1,77.8,85.5C521,493.8,562.6,457.3,562.4,409.5z"/>
	<path class="st0" d="M403.6,182.3c7.2-4.8,15-8.4,23-11.4c21.4-8.1,43.8-12.2,66.6-14.7c45.3-5.1,90-0.3,134.5,8.5
		c3.9,0.8,7.8,1,11.4,3.2c-6.3-0.8-12.5-1.6-18.8-2.4c-41.4-5.3-82.9-7.7-124.5-4.5c-29.7,2.3-58.4,9.5-86.1,20.5
		c-1.8,0.7-3.7,1.3-5.5,2C404,183.2,403.8,182.8,403.6,182.3z"/>
	<path class="st0" d="M811.4,187.4c0.8,20.8-12.5,40.6-33.2,49.9c-21.8,9.8-44.4,10.3-67.5,6.6c-23.8-3.9-47.2-9.6-70.2-17
		c-1.1-0.3-2.2-0.8-3.2-1.4c21,5.1,42,10.2,63.5,13c19,2.5,38.1,4.4,57-0.5c14-3.6,26.3-10.5,35.6-21.7c6.7-8,12.7-16.7,16.3-26.7
		C810.2,188.9,810.3,187.8,811.4,187.4z"/>
	<path class="st0" d="M756.1,380.6c-0.9,1-1.7,1.9-2.5,2.7c-6.9,6.9-13.8,14-20.9,20.8c-2.2,2.1-2.3,3.4,0,5.5
		c7.2,6.9,14.1,14.1,21.3,21.1c1.9,1.9,2.3,3.1,0.1,5.1c-4.9,4.5-9.5,9.3-14.1,14.1c-1.8,1.9-3,1.8-4.7-0.1
		c-6.7-6.9-13.8-13.5-20.4-20.6c-2.7-2.9-4.3-3.4-7.3-0.2c-6.4,7-13.4,13.4-20,20.2c-2.1,2.2-3.4,2.3-5.5,0
		c-4.3-4.6-8.8-9.1-13.4-13.4c-2.3-2.1-2.2-3.4,0-5.5c6.7-6.4,13-13.4,19.9-19.6c3.6-3.3,2.9-5.1-0.2-8c-6.7-6.2-12.9-13-19.5-19.3
		c-2.2-2.1-2.4-3.4-0.1-5.5c4.8-4.4,9.3-9,13.8-13.8c2.1-2.2,3.2-1.8,5.1,0.2c6.7,6.9,13.7,13.6,20.4,20.6c2.3,2.4,3.7,2.8,6.2,0.1
		c6.7-7.1,13.9-13.9,20.7-20.9c2-2.1,3.1-2,5.1,0c4.6,4.8,9.4,9.5,14.1,14.2C754.8,379,755.4,379.7,756.1,380.6z"/>
	<path class="st0" d="M504.4,450c-1.7-0.1-2.4-1.5-3.3-2.3c-7-6.9-14-13.8-20.8-20.9c-2.1-2.2-3.4-2.2-5.5,0
		c-6.8,7.1-13.9,13.9-20.7,20.9c-2,2.1-3.2,2.7-5.5,0.2c-4.4-4.8-9-9.3-13.8-13.8c-2.1-2-2-3.2,0-5.1c6.9-6.7,13.6-13.7,20.6-20.4
		c2.6-2.5,3-3.9,0.1-6.6c-6.9-6.5-13.4-13.5-20.3-20c-2.5-2.3-2.3-3.7,0.1-5.8c4.6-4.3,9.1-8.8,13.4-13.4c1.9-2.1,3.2-2.1,5.2,0
		c6.7,6.9,13.8,13.5,20.4,20.6c2.7,2.9,4.1,2.4,6.5-0.1c6.7-7,13.7-13.6,20.4-20.5c2-2,3.2-2.1,5.2,0c4.4,4.7,9,9.3,13.8,13.8
		c2.1,1.9,2.1,3.1,0,5.1c-7,6.7-13.6,13.7-20.6,20.4c-2.6,2.5-3.1,3.9-0.2,6.6c6.8,6.3,13.1,13.3,19.9,19.6c3.2,2.9,2.8,4.7-0.2,7.3
		c-4.6,4.1-8.8,8.7-13.1,13C505.6,449.1,505,449.6,504.4,450z"/>
</g>
<g>
	<path class="st1" d="M227.9,808.1l-21,46.4h-0.5l-20.9-46.4h7.6l13.5,30.8l13.6-30.8H227.9z"/>
	<path class="st1" d="M226.6,830.8c0-13,10.5-23.6,23.5-23.6c12.9,0,23.5,10.6,23.5,23.6c0,12.9-10.6,23.4-23.5,23.4
		C237.1,854.2,226.6,843.7,226.6,830.8z M266.4,830.8c0-9-7.4-16.3-16.3-16.3c-9,0-16.3,7.3-16.3,16.3c0,8.9,7.3,16.2,16.3,16.2
		C259,847,266.4,839.7,266.4,830.8z"/>
	<path class="st1" d="M278,830.8c0-12.8,10.7-23.5,23.5-23.5c5.9,0.1,11.3,2.6,15.8,6.9l-4.1,5.6c-3.2-3.2-7.3-5.3-11.8-5.3
		c-8.2,0-16.1,7.2-16.1,16.3c0,9.2,8,16.2,16.1,16.2c4.7,0,8.7-2.3,11.8-5.4l4.1,5.8c-3.9,3.9-8.9,6.8-15.7,6.8
		C288.6,854.2,278,843.6,278,830.8z"/>
	<path class="st1" d="M330,815.1v11.6h17.2v7.1H330v12.6H350v7.1h-27.1v-45.5H350v7H330z M330.7,803.9h-5.8l8.9-8.2h4l8.9,8.2h-5.8
		l-5.1-4.8L330.7,803.9z"/>
	<path class="st1" d="M410.8,807.9v46.4h-0.3l-29.1-30.4v29.6h-7.1v-46.3h0.4l29,30.3v-29.6H410.8z"/>
	<path class="st1" d="M448.2,846.6h-21.5l-3.1,6.9h-7.7l21.4-46.4h0.4l21.4,46.4h-7.7L448.2,846.6z M429.9,803.5l-3.5-1.4
		c1.1-5.2,4.7-6.1,6.8-6.1c4.3,0,5.6,3.8,8.5,3.8c1.7,0,2.7-1.5,3.3-3.7l3.5,1.4c-1.1,5.2-4.7,6.1-6.8,6.1c-4.3,0-5.6-3.8-8.5-3.8
		C431.4,799.8,430.4,801.3,429.9,803.5z M445.4,840.5l-8-17.8l-8,17.8H445.4z"/>
	<path class="st1" d="M461.9,830.8c0-13,10.5-23.6,23.5-23.6c12.9,0,23.5,10.6,23.5,23.6c0,12.9-10.6,23.4-23.5,23.4
		C472.5,854.2,461.9,843.7,461.9,830.8z M501.7,830.8c0-9-7.4-16.3-16.3-16.3c-9,0-16.3,7.3-16.3,16.3c0,8.9,7.3,16.2,16.3,16.2
		C494.3,847,501.7,839.7,501.7,830.8z"/>
	<path class="st1" d="M560.9,815.1h-12.2v38.4h-7.2v-38.4h-12.2v-7.1h31.5V815.1z"/>
	<path class="st1" d="M573.7,815.1v11.6h17.2v7.1h-17.2v12.6h19.9v7.1h-27.1v-45.5h27.1v7H573.7z"/>
	<path class="st1" d="M645.5,807.1v46.4h-7.1v-25.2l-15.1,24.4h-0.1l-15.1-24.5v25.2H601v-46.4h0.5l21.7,33l21.7-33H645.5z"/>
	<path class="st1" d="M671.2,808.1h15.2c8.8,0,16,6.7,16,15c0,8.1-7.2,14.7-16,14.7h-8.1v15.8h-7.1V808.1z M695.3,823
		c0-4.3-4-7.9-8.9-7.9h-8.1v15.5l8.1,0C691.3,830.7,695.3,827.3,695.3,823z"/>
	<path class="st1" d="M715.2,815.1v11.6h17.2v7.1h-17.2v12.6h19.9v7.1h-27.1v-45.5h27.1v7H715.2z"/>
	<path class="st1" d="M767.5,853.5l-12.2-17.6h-5.6v17.6h-7.1l0-45.5h14.1c8.5,0,15.4,6.5,15.4,14.6c0,5.9-3.8,11-9,12.7l13.2,18.2
		H767.5z M756.8,830c4.3,0,7.9-3.4,7.9-7.5c0-4.2-3.6-7.4-7.9-7.4h-7.2V830H756.8z"/>
	<path class="st1" d="M825.6,807.1v46.4h-7.1v-25.2l-15.1,24.4h-0.1l-15.1-24.5v25.2h-7.1v-46.4h0.5l21.7,33l21.7-33H825.6z"/>
	<path class="st1" d="M834.4,808.1h7.1v45.5h-7.1V808.1z"/>
	<path class="st1" d="M847.6,845.5l5.6-4c2,3.6,5.8,5.6,10.2,5.6c5.1,0,9-2.5,9-5.9c0-4.2-6-6.7-11.3-9c-5.3-2.4-11.3-5.1-11.3-12.3
		c0-7.4,6.5-12.6,14.6-12.6c6.5,0,11.3,3.1,13.2,8.1l-5.3,3.7c-1.4-3.1-4.5-4.8-7.8-4.8c-4.2,0-7.5,2.6-7.5,5.8
		c0,3.6,4.2,4.8,9.7,7.2c7.2,3.2,12.8,6.6,12.8,13.8c0,8.1-7,13.3-16.2,13.3C855.9,854.3,850.2,850.8,847.6,845.5z"/>
	<path class="st1" d="M883.1,845.5l5.6-4c2,3.6,5.8,5.6,10.2,5.6c5.1,0,9-2.5,9-5.9c0-4.2-6-6.7-11.3-9c-5.3-2.4-11.3-5.1-11.3-12.3
		c0-7.4,6.5-12.6,14.6-12.6c6.5,0,11.3,3.1,13.2,8.1l-5.3,3.7c-1.4-3.1-4.5-4.8-7.8-4.8c-4.2,0-7.5,2.6-7.5,5.8
		c0,3.6,4.2,4.8,9.7,7.2c7.2,3.2,12.8,6.6,12.8,13.8c0,8.1-7,13.3-16.2,13.3C891.3,854.3,885.7,850.8,883.1,845.5z"/>
	<path class="st1" d="M949.8,846.6h-21.5l-3.1,6.9h-7.7l21.4-46.4h0.4l21.4,46.4h-7.7L949.8,846.6z M931.5,803.5l-3.5-1.4
		c1.1-5.2,4.7-6.1,6.8-6.1c4.3,0,5.6,3.8,8.5,3.8c1.7,0,2.7-1.5,3.3-3.7l3.5,1.4c-1.1,5.2-4.7,6.1-6.8,6.1c-4.3,0-5.6-3.8-8.5-3.8
		C933,799.8,932,801.3,931.5,803.5z M947,840.5l-8-17.8l-8,17.8H947z"/>
	<path class="st1" d="M963.5,830.8c0-13,10.5-23.6,23.5-23.6c12.9,0,23.5,10.6,23.5,23.6c0,12.9-10.6,23.4-23.5,23.4
		C974,854.2,963.5,843.7,963.5,830.8z M1003.3,830.8c0-9-7.4-16.3-16.3-16.3s-16.3,7.3-16.3,16.3c0,8.9,7.3,16.2,16.3,16.2
		S1003.3,839.7,1003.3,830.8z"/>
	<path class="st1" d="M175.4,877.4h15.2c8.8,0,16,6.7,16,15c0,8.1-7.2,14.7-16,14.7h-8.1v15.8h-7.1V877.4z M199.4,892.3
		c0-4.3-4-7.9-8.9-7.9h-8.1V900l8.1,0C195.4,900,199.4,896.6,199.4,892.3z"/>
	<path class="st1" d="M232.4,915.9h-21.5l-3.1,6.9H200l21.4-46.4h0.4l21.4,46.4h-7.7L232.4,915.9z M229.6,909.8l-8-17.8l-8,17.8
		H229.6z"/>
	<path class="st1" d="M273.2,922.8L261,905.2h-5.6v17.6h-7.1l0-45.5h14.1c8.5,0,15.4,6.5,15.4,14.6c0,5.9-3.8,11-9,12.7l13.2,18.2
		H273.2z M262.5,899.3c4.3,0,7.9-3.4,7.9-7.5c0-4.2-3.6-7.4-7.9-7.4h-7.2v14.9H262.5z"/>
	<path class="st1" d="M315.4,915.9h-21.5l-3.1,6.9h-7.7l21.4-46.4h0.4l21.4,46.4h-7.7L315.4,915.9z M312.7,909.8l-8-17.8l-8,17.8
		H312.7z"/>
	<path class="st1" d="M376.8,915.9h-21.5l-3.1,6.9h-7.7l21.4-46.4h0.4l21.4,46.4h-7.7L376.8,915.9z M374.1,909.8l-8-17.8l-8,17.8
		H374.1z"/>
	<path class="st1" d="M386.3,900.1c0-12.8,10.7-23.5,23.5-23.5c5.9,0.1,11.3,2.6,15.8,6.9l-4.1,5.6c-3.2-3.2-7.3-5.3-11.8-5.3
		c-8.2,0-16.1,7.2-16.1,16.3c0,9.2,8,16.2,16.1,16.2c4.7,0,8.7-2.3,11.8-5.4l4.1,5.8c-3.9,3.9-8.9,6.8-15.7,6.8
		C397,923.6,386.3,912.9,386.3,900.1z"/>
	<path class="st1" d="M438.4,884.4V896h17.2v7.1h-17.2v12.6h19.9v7.1h-27.1v-45.5h27.1v7H438.4z"/>
	<path class="st1" d="M463.1,914.8l5.6-4c2,3.6,5.8,5.6,10.2,5.6c5.1,0,9-2.5,9-5.9c0-4.2-6-6.7-11.3-9c-5.3-2.4-11.3-5.1-11.3-12.3
		c0-7.4,6.5-12.6,14.6-12.6c6.5,0,11.3,3.1,13.2,8.1l-5.3,3.7c-1.4-3.1-4.5-4.8-7.8-4.8c-4.2,0-7.5,2.6-7.5,5.8
		c0,3.6,4.2,4.8,9.7,7.2c7.2,3.2,12.8,6.6,12.8,13.8c0,8.1-7,13.3-16.2,13.3C471.4,923.6,465.7,920.1,463.1,914.8z"/>
	<path class="st1" d="M498.6,914.8l5.6-4c2,3.6,5.8,5.6,10.2,5.6c5.1,0,9-2.5,9-5.9c0-4.2-6-6.7-11.3-9c-5.3-2.4-11.3-5.1-11.3-12.3
		c0-7.4,6.5-12.6,14.6-12.6c6.5,0,11.3,3.1,13.2,8.1l-5.3,3.7c-1.4-3.1-4.5-4.8-7.8-4.8c-4.2,0-7.5,2.6-7.5,5.8
		c0,3.6,4.2,4.8,9.7,7.2c7.2,3.2,12.8,6.6,12.8,13.8c0,8.1-7,13.3-16.2,13.3C506.8,923.6,501.1,920.1,498.6,914.8z"/>
	<path class="st1" d="M563,915.9h-21.5l-3.1,6.9h-7.7l21.4-46.4h0.4l21.4,46.4h-7.7L563,915.9z M560.2,909.8l-8-17.8l-8,17.8H560.2z
		"/>
	<path class="st1" d="M603.8,922.8l-12.2-17.6H586v17.6h-7.1l0-45.5H593c8.5,0,15.4,6.5,15.4,14.6c0,5.9-3.8,11-9,12.7l13.2,18.2
		H603.8z M593.2,899.3c4.3,0,7.9-3.4,7.9-7.5c0-4.2-3.6-7.4-7.9-7.4H586v14.9H593.2z"/>
	<path class="st1" d="M641.5,884.4V896h17.2v7.1h-17.2v12.6h19.9v7.1h-27.1v-45.5h27.1v7H641.5z"/>
	<path class="st1" d="M666.2,914.8l5.6-4c2,3.6,5.8,5.6,10.2,5.6c5.1,0,9-2.5,9-5.9c0-4.2-6-6.7-11.3-9c-5.3-2.4-11.3-5.1-11.3-12.3
		c0-7.4,6.5-12.6,14.6-12.6c6.5,0,11.3,3.1,13.2,8.1l-5.3,3.7c-1.4-3.1-4.5-4.8-7.8-4.8c-4.2,0-7.5,2.6-7.5,5.8
		c0,3.6,4.2,4.8,9.7,7.2c7.2,3.2,12.8,6.6,12.8,13.8c0,8.1-7,13.3-16.2,13.3C674.5,923.6,668.8,920.1,666.2,914.8z"/>
	<path class="st1" d="M732.7,884.4h-12.2v38.4h-7.2v-38.4h-12.2v-7.1h31.5V884.4z"/>
	<path class="st1" d="M761.4,915.9h-21.5l-3.1,6.9h-7.7l21.4-46.4h0.4l21.4,46.4h-7.7L761.4,915.9z M758.6,909.8l-8-17.8l-8,17.8
		H758.6z"/>
	<path class="st1" d="M794.2,877.4h15.2c8.8,0,16,6.7,16,15c0,8.1-7.2,14.7-16,14.7h-8.1v15.8h-7.1V877.4z M818.3,892.3
		c0-4.3-4-7.9-8.9-7.9h-8.1V900l8.1,0C814.3,900,818.3,896.6,818.3,892.3z"/>
	<path class="st1" d="M859.7,915.9h-21.5l-3.1,6.9h-7.7l21.4-46.4h0.4l21.4,46.4h-7.7L859.7,915.9z M856.9,909.8l-8-17.8l-8,17.8
		H856.9z M849.7,873.6h-5.2l5.6-9.2h6.3L849.7,873.6z"/>
	<path class="st1" d="M918.7,901.6c0,13.5-9.8,22-21.6,22c-13.2,0-23.7-10.5-23.7-23.4c0-12.9,10.5-23.5,23.5-23.5
		c5.7,0,12.3,2.8,16.6,7l-4,5.9c-3.6-3.5-8.3-5.7-12.7-5.7c-8.3,0-16.1,6.9-16.1,16.4c0,8.9,7.1,16.2,16.8,16.2
		c7.8,0,13.7-4.8,13.7-11.7v-0.1H897V898h21.5C918.6,899,918.7,900.3,918.7,901.6z"/>
	<path class="st1" d="M925.3,877.4h7.1v45.5h-7.1V877.4z"/>
	<path class="st1" d="M977.7,877.3v46.4h-0.3l-29.1-30.4v29.6h-7.1v-46.3h0.4l29,30.3v-29.6H977.7z"/>
	<path class="st1" d="M1015.1,915.9h-21.5l-3.1,6.9h-7.7l21.4-46.4h0.4l21.4,46.4h-7.7L1015.1,915.9z M1012.3,909.8l-8-17.8l-8,17.8
		H1012.3z"/>
</g>
</svg>
