<?xml version="1.0" encoding="utf-8"?>
<!-- Generator: Adobe Illustrator 24.0.1, SVG Export Plug-In . SVG Version: 6.00 Build 0)  -->
<svg version="1.1" id="Camada_1" xmlns="http://www.w3.org/2000/svg" xmlns:xlink="http://www.w3.org/1999/xlink" x="0px" y="0px"
	 viewBox="0 0 1200 1000" style="enable-background:new 0 0 1200 1000;" xml:space="preserve">
<style type="text/css">
	.st0{fill:#069CFE;}
	.st1{fill:#FEFEFE;}
	.st2{fill:#064366;}
</style>
<g>
	<path class="st0" d="M779.4,47.6c19.4-0.1,37.1-1.5,53.6,6.8c25.8,12.9,39.4,34.5,44.7,62.2c3.6,18.7,2.3,37-3.4,55.1
		c-0.7,2.2-1.4,4.5-1,6.8c1.7,12.2,0.9,24.4,0.9,36.6c0,136.5,0,273.1,0,409.6c0,14.7,0.7,29.4-3.3,43.9
		c-9.4,33.6-37.2,56.6-72.1,57.4c-36.4,0.9-72.9,0.3-109.4,0.1c-3.3,0-5.5,1.1-7.8,3c-31.2,25.6-62.4,51.1-93.5,76.8
		c-4.6,3.8-9.4,6.8-15.5,7.2c-13.6,1.1-23.2-6.2-26.7-20.5c-4.3-17.5-8.3-35-12.6-52.5c-3.3-13.7-3.4-13.7-17.7-13.7
		c-41.9-0.1-83.8-0.1-125.7-0.4c-42.6-0.2-78.2-39.1-78.1-81c0.4-157.1,0.2-314.2,0-471.3c0-24.6,11-41.7,32-53.1
		c9.9-5.4,20.7-8.7,31.4-12.1C444.3,87.2,514.8,78,587,83.8c37.5,3,74.4,10.2,111.3,17.8c23.5,4.8,46.8,11.1,71,11.6
		c6.4,0.1,12.8,0,19.1-1.5c15.1-3.7,22.3-14.9,19-30.1c-2-9.4-6.5-17.3-14.5-23.1C788.7,55.4,784.8,52,779.4,47.6z M860.2,522.4
		C860.2,522.4,860.2,522.4,860.2,522.4c-0.1-30.5-0.1-60.9-0.1-91.4c0-12,0-24,0-36.1c0-1.9,0.8-4.2-2.7-4.5
		c-9-0.8-15.5,3.3-17.8,12c-2.9,10.8-5.4,21.8-8.6,32.5c-8.6,28.8-25.2,51.9-51.3,67.1c-59.7,34.7-135.6,7.8-161.3-56.8
		c-5.8-14.6-9.9-29.7-14.4-44.7c-1.4-4.7-3.5-8.5-8.2-10.5c-10-4.3-19.3,0.9-22.6,12.7c-5.1,18.1-10.2,36-18.7,53
		c-33.5,67-123,82.8-176.8,30.6c-16.6-16.1-26.5-36-31.6-58.4c-1.9-8.3-3.8-16.6-5.9-24.9c-0.7-2.6-1.3-5.4-2.8-7.6
		c-2.3-3.3-6.1-5-10.1-4.5c-2.6,0.3-1.4,3.2-1.4,5c0,83.4,0,166.8,0,250.1c0,21.9,9.9,39.1,26.6,52.5c13.3,10.7,29,14,45.8,13.9
		c30.4-0.2,60.9-0.1,91.3-0.1c14,0,27.9-0.1,41.9-0.1c7.9,0,9.7,1.3,11.5,8.5c5.6,23,11.2,45.9,16.7,68.9
		c2.5,10.3,10.3,13.2,18.4,6.5c31.9-26,63.7-51.9,95.4-78.1c4.8-3.9,9.5-5.8,15.7-5.7c36.8,0.2,73.7,0,110.5-0.2
		c12.2-0.1,23.2-4.1,33-11.4c18.6-13.9,27.5-32.7,27.6-55.6C860.4,604.3,860.2,563.4,860.2,522.4z M816.3,63.4
		c-0.6,2.3,0.6,3.5,1.2,4.8c12.3,27.7-0.3,52.6-30.1,57.4c-21.1,3.4-42.2,0.3-62.9-4.4c-40.1-9.1-80.6-15.4-121.2-21.8
		c-17.1-2.7-34.4-3.1-51.6-3.8c-26.9-1.1-53.9-2.3-80.6,2.7c-33.9,6.3-66.9,16.5-100,26c-10.1,2.9-19.6,7.2-28.2,13.4
		c-8.6,6.2-14.8,13.9-16.2,25c-1.3,9.8-1.5,19.6-1.4,29.6c0.5,38.6,1.1,77.2,0.4,115.8c-0.1,6.3,0.4,6.7,6.6,5.4
		c21.8-4.6,30.3-18.8,24.1-40.1c-0.2-0.6-0.2-1.1-0.4-1.7c-7-19.6-4.5-37.6,10.5-52.6c10.9-10.9,22.8-20.7,38.8-23
		c30.5-4.4,61-7.8,92-6.9c21.5,0.6,43,1.2,64.3,4.5c46.5,7.1,92.4,17.8,138.9,25.5c30.2,5,60.6,9.2,91.4,6.4
		c21.7-1.9,39.9-10.8,53.5-28.1c18.3-23.3,23.7-50,18.7-78.9c-3.2-18.6-11.8-34.3-27-46C830.9,68,823.9,64.9,816.3,63.4z M860.3,201
		c-1.8,2.2-2.6,3.1-3.3,4c-13.7,16.5-30.3,28.2-51.7,32.1c-23.5,4.3-47.1,3.7-70.6,0.6c-49.6-6.4-98.6-16.3-147.6-25.9
		c-31.3-6.1-62.9-9.2-94.7-9.3c-22.9-0.1-45.7,2.1-68.4,4.5c-16.4,1.7-31.3,6.2-43.9,17.5c-12.1,10.9-17,23.7-11.9,39.6
		c1.3,4.2,2.5,8.5,3.6,12.9c2.9,12,1.1,23.1-7.2,32.6c-9,10.4-20.4,16.6-34.2,17.7c-3.9,0.3-4.8,1.6-4.7,5.2
		c0.2,7.9,0.3,15.9,0,23.8c-0.1,4,1.2,4.4,4.8,3.5c11.4-3,20.7-8.7,28.8-17.5c11.8-12.9,24.5-25,39.8-33.7
		c41.9-24,97.9-17.1,133,16.9c9.6,9.3,18.7,19.1,27.3,29.3c5.8,6.8,12.2,10.3,21.3,8.4c5.5-1.1,11.2-1.3,16.8-0.1
		c7.8,1.8,13.9-0.5,19.3-6.3c10.1-10.9,19.8-22.3,30.7-32.5c33.7-31.4,85.1-39.3,125.9-18.5c18.6,9.5,34.2,23.5,48.7,38.2
		c8.9,9.1,19.4,13.8,31.3,16.4c4.9,1,7,0.3,7-5.7c-0.2-47.3-0.1-94.6,0-142C860.3,209.4,860.3,206,860.3,201z M455.3,501.8
		c53.7-0.6,96.5-44.1,95.1-97.5c-1.4-54.5-44.1-94.6-96-94.2c-54.5,0.4-95.4,41.6-95.7,96.9C358.4,460,402.5,502.4,455.3,501.8z
		 M723.6,501.7c52.7,0.2,96.2-42.7,95.5-96.4c-0.7-56.5-46.3-94.8-95.8-95.2c-55.3-0.5-98.5,47.1-96.1,101.3
		C629.5,460.7,673.3,502.8,723.6,501.7z"/>
	<path class="st1" d="M860.2,522.4c0,40.9,0.1,81.8-0.1,122.8c-0.1,22.9-9,41.7-27.6,55.6c-9.8,7.3-20.8,11.3-33,11.4
		c-36.8,0.2-73.7,0.4-110.5,0.2c-6.2,0-11,1.8-15.7,5.7c-31.7,26.2-63.5,52.1-95.4,78.1c-8.2,6.7-16,3.8-18.4-6.5
		c-5.5-23-11.1-45.9-16.7-68.9c-1.8-7.2-3.5-8.5-11.5-8.5c-14,0.1-27.9,0.1-41.9,0.1c-30.5,0.1-60.9,0-91.3,0.1
		c-16.7,0.1-32.4-3.2-45.8-13.9c-16.7-13.5-26.6-30.6-26.6-52.5c-0.1-83.4-0.1-166.8,0-250.1c0-1.7-1.2-4.6,1.4-5
		c4-0.5,7.8,1.2,10.1,4.5c1.5,2.1,2.1,5,2.8,7.6c2.1,8.3,4,16.6,5.9,24.9c5.1,22.4,15.1,42.4,31.6,58.4
		c53.8,52.2,143.4,36.4,176.8-30.6c8.5-17,13.6-35,18.7-53c3.3-11.8,12.6-17,22.6-12.7c4.8,2.1,6.8,5.9,8.2,10.5
		c4.5,15,8.6,30.1,14.4,44.7c25.7,64.6,101.6,91.4,161.3,56.8c26.2-15.2,42.7-38.3,51.3-67.1c3.2-10.8,5.7-21.7,8.6-32.5
		c2.3-8.7,8.8-12.8,17.8-12c3.6,0.3,2.7,2.6,2.7,4.5c0,12,0,24,0,36.1C860.2,461.5,860.2,492,860.2,522.4
		C860.2,522.4,860.2,522.4,860.2,522.4z"/>
	<path class="st1" d="M816.3,63.4c7.7,1.5,14.6,4.6,20.8,9.3c15.2,11.6,23.7,27.4,27,46c5,28.9-0.4,55.6-18.7,78.9
		c-13.5,17.2-31.8,26.1-53.5,28.1c-30.8,2.8-61.2-1.5-91.4-6.4c-46.4-7.7-92.3-18.4-138.9-25.5c-21.3-3.3-42.8-3.9-64.3-4.5
		c-31-0.9-61.5,2.5-92,6.9c-16,2.3-27.9,12.1-38.8,23c-15,15-17.5,33-10.5,52.6c0.2,0.5,0.3,1.1,0.4,1.7
		c6.2,21.3-2.3,35.4-24.1,40.1c-6.2,1.3-6.7,0.9-6.6-5.4c0.7-38.6,0.1-77.2-0.4-115.8c-0.1-9.9,0.1-19.7,1.4-29.6
		c1.4-11.1,7.6-18.8,16.2-25c8.6-6.2,18.1-10.5,28.2-13.4c33.1-9.6,66.1-19.7,100-26c26.7-5,53.7-3.8,80.6-2.7
		c17.2,0.7,34.5,1.1,51.6,3.8c40.6,6.3,81.1,12.6,121.2,21.8c20.7,4.7,41.7,7.8,62.9,4.4c29.8-4.8,42.4-29.6,30.1-57.4
		C816.9,66.8,815.7,65.6,816.3,63.4z M365.3,141.1c3.9,1.4,6.4-0.4,9-1.4c24.1-9.5,48.9-15.9,74.4-20.3c29.8-5.2,59.8-5,89.9-4.2
		c32.7,0.8,65.3,4.3,97.8,8.9c1,0.1,2.6,2.5,3.7-0.5c-2.2-0.6-4.2-1.2-6.3-1.6c-27.4-5.4-54.9-9.7-82.7-12
		c-48.7-4-96.7-0.4-143.9,12.9C392.4,127.1,378.9,133.4,365.3,141.1z M654.4,196.3c0.6,1.8,2,1.6,2.9,1.9
		c22.8,6.4,45.7,11.9,69.1,15.4c25.8,3.9,50.9,2.8,75.2-7.9c24.3-10.6,40.3-34.2,39-58.5c-1.9,1.4-2,3.7-2.9,5.6
		c-6.3,13.2-13.8,25.6-24.9,35.4c-17.1,15-37.4,21.2-59.9,21.5c-28.1,0.4-55.5-4.6-82.9-10.4C665.1,198.3,660,196.4,654.4,196.3z"/>
	<path class="st1" d="M860.3,201c0,5,0,8.4,0,11.8c0,47.3-0.2,94.6,0,142c0,6-2.1,6.7-7,5.7c-12-2.6-22.4-7.3-31.3-16.4
		c-14.5-14.8-30-28.7-48.7-38.2c-40.8-20.8-92.3-13-125.9,18.5c-10.9,10.2-20.6,21.6-30.7,32.5c-5.4,5.8-11.5,8.1-19.3,6.3
		c-5.5-1.2-11.3-1.1-16.8,0.1c-9.1,1.9-15.6-1.6-21.3-8.4c-8.7-10.2-17.7-20-27.3-29.3c-35.1-34-91.1-40.9-133-16.9
		c-15.2,8.7-28,20.8-39.8,33.7c-8,8.8-17.4,14.5-28.8,17.5c-3.5,0.9-4.9,0.6-4.8-3.5c0.3-7.9,0.2-15.9,0-23.8
		c-0.1-3.6,0.9-4.9,4.7-5.2c13.8-1.1,25.1-7.4,34.2-17.7c8.3-9.5,10.2-20.6,7.2-32.6c-1.1-4.3-2.2-8.6-3.6-12.9
		c-5-15.9-0.2-28.7,11.9-39.6c12.6-11.3,27.4-15.9,43.9-17.5c22.8-2.3,45.5-4.5,68.4-4.5c31.9,0.1,63.4,3.2,94.7,9.3
		c49,9.6,98,19.5,147.6,25.9c23.5,3.1,47.1,3.7,70.6-0.6c21.4-4,38-15.7,51.7-32.1C857.8,204.1,858.5,203.2,860.3,201z"/>
	<path class="st1" d="M455.3,501.8c-52.8,0.6-96.9-41.8-96.6-94.8c0.3-55.3,41.2-96.6,95.7-96.9c52-0.3,94.7,39.8,96,94.2
		C551.8,457.7,509,501.2,455.3,501.8z M425.4,370.2c8-8.1,11.1-10.2,17.3-11.6c10.5-2.5,20.8,1.5,24.6,9.5
		c3.9,8.3,1.3,16.5-7.7,23.7c-4.7,3.8-9.2,7.8-12.9,12.5c-4.2,5.3-6.9,11.2-7,18.1c0,1.4-0.6,3.6,1.7,3.6c4.8,0.1,9.7,0,14.5-0.3
		c2-0.1,1.4-2,1.4-3.3c0.3-7.1,3.7-12.4,9.2-16.7c2.9-2.2,5.9-4.4,8.6-6.9c10.2-9.4,13.7-21.2,9.9-34.3c-4.3-14.7-15.3-22.6-30-24.7
		c-13.7-2-25.7,2-34.4,13.5c-1,1.4-2,2.6-1,4.7C421.9,362.1,423.5,366.1,425.4,370.2z M449,467.6c6.9,0.1,12.7-5.4,12.9-12.2
		c0.1-6.9-5.9-12.9-12.9-12.9c-6.9,0-12.5,5.7-12.5,12.5C436.5,462,442.1,467.5,449,467.6z"/>
	<path class="st1" d="M723.6,501.7c-50.4,1.1-94.2-41.1-96.4-90.4c-2.4-54.2,40.8-101.8,96.1-101.3c49.6,0.5,95.1,38.7,95.8,95.2
		C819.8,459,776.4,502,723.6,501.7z M701.6,370.8c4.4-6.8,10.1-10.6,17.1-12.2c10.3-2.4,20.4,1.4,24.3,9.1
		c4.3,8.4,1.6,16.8-7.5,24.2c-4.5,3.7-8.8,7.5-12.5,12.1c-4.2,5.2-7.1,11.1-7.3,18c-0.1,2.2-0.3,5,2.9,4.1c4.8-1.4,13,3.5,14.1-2.6
		c1.8-9.3,6.3-15.4,13.5-20.6c6.1-4.4,11.2-9.5,13.8-16.7c6-16.1,0.3-32.2-14.5-41.2c-15.1-9.1-35.3-6.7-46.5,5.2
		c-3.4,3.7-4.9,7.1-1.7,11.7C699,364.4,699.9,367.2,701.6,370.8z M725.1,467.6c6.9,0,12.7-5.7,12.6-12.4c0-6.9-6.2-12.8-13.2-12.6
		c-6.9,0.2-12.4,5.9-12.2,12.8C712.5,462.2,718.2,467.7,725.1,467.6z"/>
	<path class="st0" d="M365.3,141.1c13.6-7.7,27.2-14.1,41.7-18.2c47.2-13.4,95.2-16.9,143.9-12.9c27.8,2.3,55.4,6.5,82.7,12
		c2.1,0.4,4.1,1,6.3,1.6c-1.1,3-2.6,0.6-3.7,0.5c-32.4-4.6-65-8.1-97.8-8.9c-30-0.7-60.1-0.9-89.9,4.2
		c-25.4,4.4-50.3,10.8-74.4,20.3C371.7,140.8,369.1,142.6,365.3,141.1z"/>
	<path class="st0" d="M654.4,196.3c5.6,0,10.6,2,15.8,3.1c27.3,5.8,54.7,10.8,82.9,10.4c22.5-0.3,42.8-6.5,59.9-21.5
		c11.1-9.7,18.7-22.1,24.9-35.4c0.9-1.8,0.9-4.1,2.9-5.6c1.3,24.2-14.7,47.8-39,58.5c-24.3,10.6-49.5,11.8-75.2,7.9
		c-23.4-3.6-46.4-9-69.1-15.4C656.4,198,655,198.2,654.4,196.3z"/>
	<path class="st0" d="M425.4,370.2c-1.9-4.1-3.6-8.2-5.6-12c-1.1-2.1-0.1-3.4,1-4.7c8.7-11.5,20.7-15.4,34.4-13.5
		c14.7,2.1,25.7,10.1,30,24.7c3.8,13.1,0.2,24.9-9.9,34.3c-2.7,2.5-5.7,4.6-8.6,6.9c-5.5,4.2-8.9,9.6-9.2,16.7
		c0,1.2,0.5,3.1-1.4,3.3c-4.8,0.3-9.7,0.4-14.5,0.3c-2.3-0.1-1.7-2.2-1.7-3.6c0-6.9,2.8-12.8,7-18.1c3.7-4.7,8.2-8.7,12.9-12.5
		c8.9-7.2,11.6-15.4,7.7-23.7c-3.8-8-14.1-12-24.6-9.5C436.5,360.1,433.5,362.1,425.4,370.2z"/>
	<path class="st0" d="M449,467.6c-6.9-0.1-12.5-5.7-12.5-12.5c0-6.9,5.6-12.5,12.5-12.5c7,0,13.1,6,12.9,12.9
		C461.8,462.2,456,467.7,449,467.6z"/>
	<path class="st0" d="M701.6,370.8c-1.7-3.6-2.6-6.4-4.2-8.8c-3.2-4.6-1.7-8,1.7-11.7c11.2-12,31.5-14.4,46.5-5.2
		c14.8,8.9,20.4,25,14.5,41.2c-2.7,7.2-7.7,12.4-13.8,16.7c-7.2,5.1-11.7,11.2-13.5,20.6c-1.2,6-9.3,1.2-14.1,2.6
		c-3.2,0.9-3-2-2.9-4.1c0.2-6.9,3.1-12.7,7.3-18c3.7-4.6,8-8.4,12.5-12.1c9.2-7.4,11.8-15.8,7.5-24.2c-3.9-7.7-14-11.5-24.3-9.1
		C711.7,360.2,706,364,701.6,370.8z"/>
	<path class="st0" d="M725.1,467.6c-6.9,0-12.6-5.4-12.8-12.3c-0.2-6.9,5.3-12.6,12.2-12.8c7-0.2,13.2,5.7,13.2,12.6
		C737.8,461.9,732.1,467.6,725.1,467.6z"/>
	<g>
		<path class="st2" d="M107,881.3h18.1c10.5,0,19.1,8,19.1,17.9c0,9.7-8.6,17.5-19.1,17.5h-9.6v18.8H107V881.3z M135.7,899.1
			c0-5.2-4.7-9.4-10.6-9.4h-9.6v18.5l9.6,0C131,908.3,135.7,904.2,135.7,899.1z"/>
		<path class="st2" d="M185.1,927.2h-25.7l-3.7,8.2h-9.2l25.5-55.3h0.5l25.5,55.3h-9.2L185.1,927.2z M181.8,919.9l-9.5-21.2
			l-9.6,21.2H181.8z M173.3,876.8h-6.2l6.7-11h7.5L173.3,876.8z"/>
		<path class="st2" d="M255.5,910.1c0,16.1-11.7,26.3-25.8,26.3c-15.8,0-28.3-12.6-28.3-27.9c0-15.4,12.6-28.1,28-28.1
			c6.8,0,14.6,3.3,19.7,8.3l-4.7,7.1c-4.2-4.2-10-6.8-15.1-6.8c-9.9,0-19.2,8.3-19.2,19.5c0,10.6,8.4,19.4,20,19.4
			c9.3,0,16.3-5.7,16.3-14v-0.2h-16.8v-7.8h25.7C255.4,907.1,255.5,908.6,255.5,910.1z"/>
		<path class="st2" d="M263.4,881.3h8.5v54.2h-8.5V881.3z"/>
		<path class="st2" d="M325.9,881.1v55.3h-0.4l-34.7-36.2v35.3h-8.5v-55.2h0.4l34.6,36.2v-35.3H325.9z"/>
		<path class="st2" d="M370.5,927.2h-25.7l-3.7,8.2h-9.2l25.5-55.3h0.5l25.5,55.3h-9.2L370.5,927.2z M367.2,919.9l-9.5-21.2
			l-9.6,21.2H367.2z"/>
		<path class="st2" d="M453.2,881.1v55.3h-0.4l-34.7-36.2v35.3h-8.5v-55.2h0.4l34.6,36.2v-35.3H453.2z"/>
		<path class="st2" d="M497.8,927.2h-25.7l-3.7,8.2h-9.2l25.5-55.3h0.5l25.5,55.3h-9.2L497.8,927.2z M475.9,875.8l-4.2-1.6
			c1.3-6.2,5.6-7.3,8.1-7.3c5.1,0,6.7,4.6,10.2,4.6c2.1,0,3.3-1.7,3.9-4.4l4.2,1.6c-1.3,6.2-5.6,7.3-8.1,7.3
			c-5.1,0-6.6-4.5-10.2-4.5C477.8,871.4,476.6,873.2,475.9,875.8z M494.5,919.9l-9.5-21.2l-9.6,21.2H494.5z"/>
		<path class="st2" d="M514.1,908.4c0-15.5,12.6-28.1,28-28.1c15.4,0,28,12.6,28,28.1c0,15.3-12.6,27.9-28.1,27.9
			C526.7,936.4,514.1,923.8,514.1,908.4z M561.6,908.4c0-10.7-8.8-19.5-19.5-19.5s-19.4,8.7-19.4,19.5c0,10.7,8.7,19.4,19.4,19.4
			S561.6,919,561.6,908.4z"/>
		<path class="st2" d="M606.7,889.6v13.9h20.5v8.5h-20.5v15h23.8v8.5h-32.3v-54.2h32.3v8.4H606.7z"/>
		<path class="st2" d="M682.9,881.1v55.3h-0.4l-34.7-36.2v35.3h-8.5v-55.2h0.4l34.6,36.2v-35.3H682.9z"/>
		<path class="st2" d="M690.7,908.4c0-15.3,12.7-28.1,28-28.1c7,0.1,13.5,3.1,18.8,8.3l-4.9,6.7c-3.8-3.8-8.7-6.3-14.1-6.3
			c-9.8,0-19.2,8.6-19.2,19.5c0,10.9,9.5,19.4,19.2,19.4c5.5,0,10.3-2.8,14.1-6.5l4.9,6.9c-4.7,4.6-10.6,8.1-18.7,8.1
			C703.5,936.4,690.7,923.7,690.7,908.4z"/>
		<path class="st2" d="M739.4,908.4c0-15.5,12.6-28.1,28-28.1c15.4,0,28,12.6,28,28.1c0,15.3-12.6,27.9-28.1,27.9
			C752,936.4,739.4,923.8,739.4,908.4z M786.9,908.4c0-10.7-8.8-19.5-19.5-19.5s-19.4,8.7-19.4,19.5c0,10.7,8.7,19.4,19.4,19.4
			S786.9,919,786.9,908.4z"/>
		<path class="st2" d="M846.9,881.1v55.3h-0.4l-34.7-36.2v35.3h-8.5v-55.2h0.4l34.6,36.2v-35.3H846.9z"/>
		<path class="st2" d="M891.3,889.7h-14.5v45.8h-8.5v-45.8h-14.5v-8.4h37.6V889.7z"/>
		<path class="st2" d="M927.8,935.5l-14.6-21h-6.7v21h-8.5l0-54.2h16.8c10.1,0,18.4,7.8,18.4,17.4c0,7-4.5,13.1-10.7,15.1l15.8,21.7
			H927.8z M915.1,907.4c5.1,0,9.4-4.1,9.4-8.9c0-5-4.3-8.8-9.4-8.8h-8.5v17.7H915.1z"/>
		<path class="st2" d="M978.2,927.2h-25.7l-3.7,8.2h-9.2l25.5-55.3h0.5l25.5,55.3h-9.2L978.2,927.2z M974.9,919.9l-9.5-21.2
			l-9.6,21.2H974.9z"/>
		<path class="st2" d="M1040.5,908.4c0,16.6-10.7,27-27.9,27h-15.4v-54.2h15.4C1029.8,881.2,1040.5,891.7,1040.5,908.4z
			 M1031.9,908.4c0-11.5-7.5-18.7-19.4-18.7h-6.9V927h7C1024.4,927,1031.9,919.8,1031.9,908.4z"/>
		<path class="st2" d="M1077.4,927.2h-25.7l-3.7,8.2h-9.2l25.5-55.3h0.5l25.5,55.3h-9.2L1077.4,927.2z M1074.1,919.9l-9.5-21.2
			l-9.6,21.2H1074.1z"/>
	</g>
</g>
</svg>
