<?xml version="1.0" encoding="utf-8"?>
<!-- Generator: Adobe Illustrator 24.2.3, SVG Export Plug-In . SVG Version: 6.00 Build 0)  -->
<svg version="1.1" id="OBJECTS" xmlns="http://www.w3.org/2000/svg" xmlns:xlink="http://www.w3.org/1999/xlink" x="0px" y="0px"
	 viewBox="0 0 500 500" style="enable-background:new 0 0 500 500;" xml:space="preserve">
<style type="text/css">
	.st0{fill:url(#shape_2_1_);}
	.st1{fill-rule:evenodd;clip-rule:evenodd;fill:url(#shape_1_1_);}
</style>
<g>
	
		<image style="overflow:visible;opacity:0.25;" width="508" height="510" xlink:href="F043E989.png"  transform="matrix(1 0 0 1 -1.6172 8.3828)">
	</image>
	<g>
		<g>
			<linearGradient id="shape_2_1_" gradientUnits="userSpaceOnUse" x1="251.8633" y1="474.2534" x2="251.8633" y2="25.7467">
				<stop  offset="0" style="stop-color:#20B038"/>
				<stop  offset="1" style="stop-color:#60D66A"/>
			</linearGradient>
			<path id="shape_2_12_" class="st0" d="M28.6,474.3l31.5-115.2C40.7,325.4,30.5,287.2,30.5,248c0-122.5,99.8-222.2,222.3-222.2
				c59.5,0,115.3,23.2,157.3,65.2c42,42,65.1,97.8,65.1,157.2c-0.1,122.5-99.8,222.2-222.3,222.2c0,0,0,0,0,0h-0.1
				c-37.2,0-73.8-9.3-106.2-27.1L28.6,474.3z M151.9,403.1l6.8,4c28.4,16.8,60.9,25.7,94,25.8h0.1c101.8,0,184.7-82.9,184.8-184.7
				c0-49.4-19.2-95.8-54.1-130.7c-34.9-34.9-81.3-54.2-130.6-54.2C150.9,63.3,68.1,146.1,68,248c0,34.9,9.8,68.9,28.2,98.3l4.4,7
				L82,421.5L151.9,403.1z"/>
			<linearGradient id="shape_1_1_" gradientUnits="userSpaceOnUse" x1="139.8306" y1="250.0421" x2="365.6078" y2="250.0421">
				<stop  offset="0" style="stop-color:#20B038"/>
				<stop  offset="1" style="stop-color:#60D66A"/>
			</linearGradient>
			<path id="shape_1_12_" class="st1" d="M197.2,155.1c-4.2-9.3-8.5-9.4-12.5-9.6c-3.2-0.1-6.9-0.1-10.6-0.1c-3.7,0-9.7,1.4-14.8,7
				c-5.1,5.6-19.4,19-19.4,46.3c0,27.3,19.9,53.7,22.7,57.5c2.8,3.7,38.4,61.6,94.9,83.8c46.9,18.5,56.5,14.8,66.7,13.9
				c10.2-0.9,32.9-13.4,37.5-26.4c4.6-13,4.6-24.1,3.2-26.4c-1.4-2.3-5.1-3.7-10.6-6.5c-5.6-2.8-32.9-16.2-38-18.1
				c-5.1-1.9-8.8-2.8-12.5,2.8c-3.7,5.6-14.3,18.1-17.6,21.8c-3.2,3.7-6.5,4.2-12,1.4c-5.6-2.8-23.4-8.6-44.7-27.6
				c-16.5-14.7-27.7-32.9-30.9-38.5c-3.2-5.6-0.3-8.6,2.4-11.3c2.5-2.5,5.6-6.5,8.3-9.7c2.8-3.2,3.7-5.6,5.5-9.3
				c1.9-3.7,0.9-7-0.5-9.7C213,193.5,202.2,166.1,197.2,155.1z"/>
		</g>
	</g>
</g>
</svg>
